<?xml version="1.0" standalone="no"?>
<!DOCTYPE svg PUBLIC "-//W3C//DTD SVG 1.1//EN" "http://www.w3.org/Graphics/SVG/1.1/DTD/svg11.dtd" >
<svg xmlns="http://www.w3.org/2000/svg">
<metadata>
This is a custom SVG webfont generated by Font Squirrel.
Designer    : David Berlow
Foundry     : The Font Bureau Inc
Foundry URL : httpwwwfontbureaucom
</metadata>
<defs>
<font id="webfonttQcGr3mO" horiz-adv-x="1226" >
<font-face units-per-em="2048" ascent="1638" descent="-410" />
<missing-glyph horiz-adv-x="509" />
<glyph unicode=" "  horiz-adv-x="509" />
<glyph unicode="&#x09;" horiz-adv-x="509" />
<glyph unicode="&#xa0;" horiz-adv-x="509" />
<glyph unicode="!" horiz-adv-x="688" d="M225 0v238h238v-238h-238zM225 1509h238l-17 -1077h-204z" />
<glyph unicode="&#x22;" horiz-adv-x="940" d="M104 1509h261l-46 -485h-182zM575 1509h261l-45 -485h-183z" />
<glyph unicode="#" horiz-adv-x="1425" d="M8 395l35 162h319l99 387h-330l37 170h330l92 395h178l-94 -395h229l92 395h176l-94 -395h340l-45 -170h-332l-100 -387h350l-37 -162h-346l-96 -395h-172l94 395h-233l-94 -395h-173l93 395h-318zM535 557h235l96 387h-229z" />
<glyph unicode="$" horiz-adv-x="1193" d="M94 27v176q129 -51 369 -58l55 576q-86 35 -143.5 63.5t-121 76.5t-96 115.5t-32.5 153.5q0 168 124 279t347 119l18 172h129l-18 -176q150 -12 266 -56v-176q-199 55 -282 64l-50 -490q80 -31 131.5 -53t111 -60t93 -81t56 -106.5t22.5 -143.5q0 -197 -137 -318.5 t-365 -126.5l-14 -147h-125l14 152q-225 12 -352 45zM326 1145q0 -78 48 -129t163 -101l43 445q-123 -8 -188.5 -69.5t-65.5 -145.5zM588 141q133 6 207.5 80t74.5 191q0 88 -53 149.5t-176 112.5z" />
<glyph unicode="%" horiz-adv-x="1830" d="M147 1151v55q0 133 91.5 229.5t243 96.5t236.5 -92t85 -234v-53q0 -147 -88 -237.5t-234 -90.5q-143 0 -238.5 93.5t-95.5 232.5zM340 1163q0 -182 143 -182q74 0 101.5 47t27.5 135v17q0 92 -25.5 137t-105.5 45q-141 0 -141 -182v-17zM350 0l932 1509h174l-911 -1509 h-195zM1028 313v56q0 133 91 229t242.5 96t236.5 -92t85 -233v-54q0 -147 -88 -237t-233 -90q-143 0 -238.5 93t-95.5 232zM1221 326q0 -182 143 -183q74 0 101.5 47.5t27.5 135.5v16q0 92 -25.5 137t-105.5 45q-141 0 -141 -182v-16z" />
<glyph unicode="&#x26;" horiz-adv-x="1449" d="M78 358q0 127 69.5 231.5t235.5 205.5q-178 207 -178 379q0 156 98 256t262 100q168 0 271.5 -92t103.5 -232q0 -129 -60.5 -232.5t-224.5 -201.5l349 -352q129 166 223 428l159 -86q-100 -285 -253 -473l286 -289h-258l-155 158q-215 -182 -488 -183 q-215 0 -327.5 103.5t-112.5 279.5zM299 362q0 -203 238 -202q180 0 340 129l-385 389q-86 -57 -132.5 -120.5t-53.5 -102t-7 -93.5zM406 1186q0 -123 145 -299q186 113 182 295v10q0 66 -39 111t-120.5 45t-124.5 -45t-43 -117z" />
<glyph unicode="'" horiz-adv-x="512" d="M131 1509h260l-45 -485h-182z" />
<glyph unicode="(" horiz-adv-x="808" d="M84 688q0 354 172 587.5t444 280.5v-143q-176 -55 -287.5 -257t-111.5 -468q0 -309 106.5 -494.5t292.5 -226.5v-145q-270 23 -443 252t-173 614z" />
<glyph unicode=")" horiz-adv-x="808" d="M109 -39q186 41 292.5 229.5t106.5 497.5q0 266 -111.5 465t-287.5 254v149q272 -47 444 -280.5t172 -587.5q0 -385 -173 -614.5t-443 -251.5v139z" />
<glyph unicode="*" horiz-adv-x="1101" d="M143 860v160h252l-211 211l123 123l242 -242l242 242l122 -123l-211 -211h252v-160h-266l225 -225l-122 -123l-242 242l-242 -242l-123 123l226 225h-267z" />
<glyph unicode="+" horiz-adv-x="1105" d="M94 614v177h369v346h182v-346h367v-177h-367v-348h-182v348h-369z" />
<glyph unicode="," horiz-adv-x="583" d="M156 0v287h282v-287q0 -315 -282 -315v127q82 0 117.5 44t35.5 144h-153z" />
<glyph unicode="-" horiz-adv-x="1189" d="M102 590v176h981v-176h-981z" />
<glyph unicode="." horiz-adv-x="583" d="M154 0v285h284v-285h-284z" />
<glyph unicode="/" horiz-adv-x="880" d="M-45 -170l786 1679h185l-787 -1679h-184z" />
<glyph unicode="0" horiz-adv-x="1107" d="M70 643v221q0 338 124.5 503t358.5 165q485 0 485 -668v-221q0 -334 -132 -501t-353 -167q-483 0 -483 668zM293 688q0 -295 53 -403.5t201 -108.5q156 0 212 111.5t56 400.5v131q0 291 -54 402.5t-208 111.5q-152 0 -206 -107.5t-54 -406.5v-131z" />
<glyph unicode="1" horiz-adv-x="618" d="M41 1186v135q86 8 160.5 47t108.5 73t57 68h96v-1509h-211v1186h-211z" />
<glyph unicode="2" horiz-adv-x="1107" d="M51 1159q18 166 141 268.5t338 102.5q229 0 349 -119t120 -313q0 -444 -706 -920h756v-178h-988v193q289 223 451 393t215 282.5t53 231.5q0 109 -67.5 171t-184.5 62q-115 0 -185.5 -48t-82.5 -126h-209z" />
<glyph unicode="3" horiz-adv-x="1107" d="M51 248l174 119q51 -115 133 -157t205 -42q115 0 185.5 73.5t70.5 202.5q0 119 -87 193t-228 74h-172v172h180q129 0 204 62.5t75 176.5q0 217 -230 217q-115 0 -168 -38.5t-71 -110.5h-224q12 145 136 243.5t323 98.5q233 0 345 -107.5t112 -285.5q0 -127 -65.5 -215 t-176.5 -113q119 -43 191.5 -137t72.5 -236q0 -223 -129 -343t-344 -120q-168 0 -306 67t-206 206z" />
<glyph unicode="4" horiz-adv-x="1173" d="M59 651l746 858h129v-893h199v-178h-199v-438h-209v438h-649zM244 616h485v549z" />
<glyph unicode="5" horiz-adv-x="1157" d="M41 281l176 104q45 -106 136 -159.5t206 -53.5q303 0 303 360q0 346 -287 347q-195 0 -282 -150l-184 96l26 684h823v-184h-651l-12 -403q18 57 114.5 103t215.5 46q211 0 334.5 -139t123.5 -395q0 -272 -143 -416t-360 -144q-195 0 -326 73t-213 231z" />
<glyph unicode="6" horiz-adv-x="1107" d="M68 647q0 254 39.5 428t118.5 271.5t182.5 138.5t244.5 41q96 0 240 -37v-199q-129 43 -272 43q-152 0 -236 -108.5t-96 -360.5q31 82 124 130t203 48q213 0 329 -135t116 -368q0 -262 -130 -413t-360 -151q-503 0 -503 672zM289 520q0 -180 75.5 -262t196.5 -82 q268 0 268 344q0 158 -65.5 252t-202.5 94q-119 0 -195.5 -94t-76.5 -252z" />
<glyph unicode="7" horiz-adv-x="1107" d="M59 1325v184h983v-194q-57 -49 -104 -94t-102.5 -107.5t-95.5 -125t-84 -145.5t-67.5 -168t-46 -193.5t-21.5 -224.5t9 -257h-229q-23 225 15 438t120 379t185.5 294t222.5 214h-785z" />
<glyph unicode="8" horiz-adv-x="1107" d="M74 422q0 119 66.5 227.5t174.5 141.5v22q-92 35 -148 121t-56 205q0 168 119.5 279.5t324.5 111.5q213 0 324.5 -113.5t111.5 -265.5q0 -137 -47 -215t-141 -123v-22q104 -25 170.5 -127.5t66.5 -241.5q0 -217 -131 -332t-354 -115q-233 0 -357 115t-124 332zM291 436 q0 -268 264 -268q123 0 195.5 66.5t72.5 201.5q0 137 -68.5 210t-199.5 73q-264 0 -264 -283zM315 1112q0 -221 240 -221q104 0 173 53t69 168q0 111 -63.5 171t-178.5 60t-177.5 -60t-62.5 -171z" />
<glyph unicode="9" horiz-adv-x="1107" d="M59 969q0 262 130 412.5t360 150.5q504 0 504 -672q0 -254 -40 -428t-119 -271.5t-182.5 -138t-244.5 -40.5q-104 0 -240 34v193q123 -41 272.5 -41t234.5 111.5t97 363.5q-31 -82 -124 -130t-203 -48q-213 0 -329 135.5t-116 368.5zM283 987q0 -158 65.5 -252t202.5 -94 q119 0 195.5 94t76.5 252q0 180 -75.5 262t-196.5 82q-268 0 -268 -344z" />
<glyph unicode=":" horiz-adv-x="571" d="M154 0v285h264v-285h-264zM154 864v285h264v-285h-264z" />
<glyph unicode=";" horiz-adv-x="571" d="M152 864v285h268v-285h-268zM156 0v287h282v-287q0 -315 -282 -315v120q80 0 116.5 47.5t36.5 147.5h-153z" />
<glyph unicode="&#x3c;" horiz-adv-x="1107" d="M129 537v161l850 402v-207l-617 -279l617 -272v-207z" />
<glyph unicode="=" horiz-adv-x="1107" d="M125 293v180h858v-180h-858zM125 772v180h858v-180h-858z" />
<glyph unicode="&#x3e;" horiz-adv-x="1107" d="M129 135v207l616 272l-616 279v207l850 -402v-161z" />
<glyph unicode="?" horiz-adv-x="917" d="M47 1223v188q170 119 424 119q219 0 317.5 -91t98.5 -218q0 -217 -215 -340q-104 -59 -147.5 -120t-43.5 -149v-180h-200v221q0 193 219 320q96 57 138 106t42 121q0 141 -240 141q-229 1 -393 -118zM262 0v238h238v-238h-238z" />
<glyph unicode="@" horiz-adv-x="1869" d="M129 594q0 408 238.5 667t601.5 259q371 0 591 -215t220 -617q0 -201 -105.5 -353.5t-261.5 -152.5q-117 0 -173 38t-75 142q-47 -182 -280 -182q-143 0 -227.5 98.5t-84.5 309.5q0 197 98.5 317.5t270.5 120.5q139 0 186 -98v92h191v-549q0 -141 84 -141q72 0 122 63.5 t67.5 137t17.5 145.5q0 334 -174 517t-473 183q-272 0 -463 -218t-191 -560q0 -367 180.5 -569.5t477.5 -202.5q236 0 385 78l-13 -154q-156 -82 -368 -82q-385 0 -613.5 250t-228.5 676zM758 582q0 -104 40 -180t132 -76q102 0 154.5 71.5t52.5 186.5v88q0 98 -49.5 153.5 t-145.5 55.5q-184 0 -184 -299z" />
<glyph unicode="A" horiz-adv-x="1255" d="M2 0l487 1509h256l508 -1509h-213l-127 391h-569l-129 -391h-213zM387 555h2h2h2h2h2h2h2h2h3h2h2h2h2h2h2h2h2h2h2h2h2h2h2h2h2h2h2h2h2h3h2h2h2h2h2h2h2h2h2h2h2h2h2h2h2h2h2h2h4h3h2h2h2h2h2h4h2h2h2h2h4h2h2h2h4h2h2h5h2h2h2h4h2h2h4h2h2h4h2h2h4h2h5h2h2h4h2h4h2h4 h2h4h2h2h4h2h4h3h4h2h4h2h4h2h4h4h2h4h2h4h3h4h4h2h4h2h4h4h2h4h4h2h4h3h4h4h2h4h4h4h2h4h4h2h4h5h4h2h4h4h4h2h4h4h4h2h4h5h4h4h2h4h4h4h4h4h2h4h4h5h4h4h16l-242 752z" />
<glyph unicode="B" horiz-adv-x="1298" d="M168 0v1509h514q197 0 299 -98t102 -244q0 -133 -50 -216t-171 -115q154 -23 241 -123.5t87 -263.5q0 -221 -133 -335t-385 -114h-504zM379 168h323q266 0 267 295q0 127 -70 200.5t-215 73.5h-305v-569zM379 903h309q98 0 144.5 58.5t46.5 154.5q0 100 -49.5 162.5 t-143.5 62.5h-307v-438z" />
<glyph unicode="C" horiz-adv-x="1169" d="M88 717v61q0 352 177 552t499 200q197 0 323 -49v-193q-8 2 -36.5 12.5t-41.5 13.5l-44 10q-31 7 -58.5 10t-70.5 6t-95 3q-428 0 -428 -585v-21q0 -317 116 -454.5t359 -137.5q158 0 299 66v-170q-102 -66 -352 -66q-133 0 -246.5 43t-204.5 129t-143.5 231.5 t-52.5 338.5z" />
<glyph unicode="D" horiz-adv-x="1359" d="M168 0v1509h432q309 0 482 -176t173 -549v-61q0 -358 -162.5 -540.5t-455.5 -182.5h-469zM381 166h301q156 0 255 143.5t99 423.5v41q0 270 -112.5 418.5t-286.5 148.5h-256v-1175z" />
<glyph unicode="E" horiz-adv-x="1136" d="M168 0v1509h887v-168h-676v-493h543v-166h-543v-516h706v-166h-917z" />
<glyph unicode="F" horiz-adv-x="1089" d="M168 0v1509h856v-168h-645v-493h536v-164h-536v-684h-211z" />
<glyph unicode="G" horiz-adv-x="1359" d="M88 717v82q0 334 179 533.5t464 199.5q250 0 387 -59v-201q-168 78 -360 78q-442 0 -443 -570v-43q0 -315 116 -454.5t308 -139.5q172 0 279 78v377h-281v170h496v-618q-190 -174 -512 -175q-295 0 -464 186.5t-169 555.5z" />
<glyph unicode="H" horiz-adv-x="1380" d="M168 0v1509h217v-659h610v659h217v-1509h-217v680h-610v-680h-217z" />
<glyph unicode="I" horiz-adv-x="569" d="M176 0v1509h217v-1509h-217z" />
<glyph unicode="J" horiz-adv-x="954" d="M90 37v186q117 -55 277 -55q92 0 141 60.5t49 170.5v1110h217v-1118q0 -190 -94 -297.5t-254 -107.5q-250 0 -336 51z" />
<glyph unicode="K" horiz-adv-x="1339" d="M168 0v1509h217v-764l608 764h234l-510 -645l620 -864h-256l-499 698l-197 -229v-469h-217z" />
<glyph unicode="L" horiz-adv-x="1044" d="M168 0v1509h217v-1341h621v-168h-838z" />
<glyph unicode="M" horiz-adv-x="1789" d="M168 0v1509h225l510 -1323l514 1323h205v-1509h-197v1077l-424 -1077h-215l-424 1077v-1077h-194z" />
<glyph unicode="N" horiz-adv-x="1437" d="M168 0v1509h141l760 -1103v1103h201v-1509h-146l-755 1087v-1087h-201z" />
<glyph unicode="O" horiz-adv-x="1366" d="M90 702v86q0 350 150.5 546t447.5 196q598 0 598 -742v-81q0 -731 -598 -732q-279 0 -438.5 180t-159.5 547zM313 731q0 -326 92.5 -463t282.5 -137q129 0 208 50t123 183.5t44 362.5v41q0 307 -86 450.5t-289 143.5q-201 0 -288 -136t-87 -458v-37z" />
<glyph unicode="P" horiz-adv-x="1189" d="M168 0v1509h524q203 0 318.5 -113.5t115.5 -297.5v-94q0 -166 -110.5 -279t-296.5 -113h-336v-612h-215zM383 788h332q92 0 140 58.5t48 150.5v105q0 102 -56 165.5t-149 63.5h-315v-543z" />
<glyph unicode="Q" horiz-adv-x="1366" d="M90 707v81q0 358 156.5 550t435.5 192q604 0 604 -742v-81q0 -657 -504 -721q-1 -9 0 -17q0 -71 48 -107q54 -40 163 -40h172v-164h-194q-209 0 -301 83t-99 253q-203 14 -342 190.5t-139 522.5zM313 702q0 -303 90.5 -435t276.5 -132q209 0 296 129t87 438v95 q0 291 -86 428t-295 137q-180 0 -274.5 -129t-94.5 -436v-95z" />
<glyph unicode="R" horiz-adv-x="1251" d="M168 0v1509h573q172 0 272.5 -97t100.5 -228v-82q0 -135 -72.5 -220t-218.5 -106q115 -27 185.5 -103.5t108.5 -241.5t38 -431h-221q-2 360 -71.5 521t-213.5 161h-264v-682h-217zM385 850h289q115 0 170 62.5t55 158.5v41q0 100 -54 158.5t-153 58.5h-307v-479z" />
<glyph unicode="S" horiz-adv-x="1155" d="M61 47v201q158 -94 449 -94q188 0 275 63.5t87 157.5q0 90 -68.5 155.5t-254.5 137.5q-233 90 -331.5 191.5t-98.5 256.5q0 182 142 298t396 116q201 0 351 -57v-179q-217 53 -365 54q-160 0 -235.5 -57.5t-75.5 -133.5q0 -106 57 -164.5t262 -138.5 q225 -88 329.5 -189.5t104.5 -265.5q0 -203 -149.5 -311t-433.5 -108q-265 -1 -441 67z" />
<glyph unicode="T" horiz-adv-x="983" d="M10 1331v178h963v-178h-373v-1331h-217v1331h-373z" />
<glyph unicode="U" horiz-adv-x="1302" d="M147 522v987h218v-1028q0 -139 68.5 -231t223.5 -92q152 0 228 70.5t76 258.5v1022h210v-1044q0 -223 -132 -353t-379.5 -130t-380 138t-132.5 402z" />
<glyph unicode="V" horiz-adv-x="1181" d="M2 1509h225l367 -1271l369 1271h217l-469 -1509h-242z" />
<glyph unicode="W" horiz-adv-x="1875" d="M4 1509h229l293 -1276l310 1276h202l303 -1276l304 1276h221l-418 -1509h-242l-280 1184l-297 -1184h-242z" />
<glyph unicode="X" horiz-adv-x="1191" d="M2 0l490 778l-441 731h236l331 -555l347 555h213l-457 -727l469 -782h-236l-360 606l-379 -606h-213z" />
<glyph unicode="Y" horiz-adv-x="1327" d="M10 1509h223l441 -766l438 766h209l-543 -952v-557h-217v545z" />
<glyph unicode="Z" horiz-adv-x="1107" d="M57 0v190l783 1143h-754v176h971v-194l-789 -1137h811v-178h-1022z" />
<glyph unicode="[" horiz-adv-x="727" d="M178 -223v1732h471v-163h-262v-1418h262v-151h-471z" />
<glyph unicode="\" horiz-adv-x="880" d="M-45 1509h184l787 -1679h-185z" />
<glyph unicode="]" horiz-adv-x="727" d="M78 -72h262v1418h-262v163h471v-1732h-471v151z" />
<glyph unicode="^" horiz-adv-x="1126" d="M20 698l443 811h203l440 -811h-213l-340 609l-320 -609h-213z" />
<glyph unicode="_" horiz-adv-x="1019" d="M0 -190h1020v-170h-1020v170z" />
<glyph unicode="`" horiz-adv-x="1024" d="M285 1575h204l267 -354h-158z" />
<glyph unicode="a" horiz-adv-x="1179" d="M78 369v28q0 190 123 294t319 104q207 0 318 -117v139q0 86 -61.5 138.5t-196.5 52.5q-205 0 -347 -82v170q129 78 377 78q211 0 320.5 -105.5t109.5 -259.5v-809h-184l-14 141q-49 -78 -151.5 -116.5t-213.5 -38.5q-178 0 -288.5 98.5t-110.5 284.5zM285 387 q0 -244 268 -244q129 0 207 70t78 172v31q0 102 -79 165.5t-206 63.5q-121 0 -194.5 -62.5t-73.5 -172.5v-23z" />
<glyph unicode="b" horiz-adv-x="1241" d="M150 0v1509h206v-503q35 76 126 122t188 46q219 0 344 -131.5t125 -385.5v-131q0 -250 -127 -395t-324 -145q-217 0 -319 127l-17 -113h-202zM362 367q8 -90 88 -150.5t183 -60.5q143 0 215 90t72 319v84q0 152 -71 250t-208 98q-190 0 -279 -168v-462z" />
<glyph unicode="c" horiz-adv-x="1124" d="M102 553v49q0 260 143.5 419t383.5 159q219 0 350 -78v-209q-158 98 -332 98q-147 0 -234 -98t-87 -303v-21q0 -197 87 -302t234 -105q190 0 332 96v-197q-145 -86 -334 -86q-248 0 -395.5 152t-147.5 426z" />
<glyph unicode="d" horiz-adv-x="1241" d="M102 494v120q0 266 126 413t350 147q86 0 174 -38t129 -100v473h211v-1509h-199l-19 117q-98 -131 -319 -131q-209 0 -331 129t-122 379zM322 502q0 -360 284 -361q94 0 171 47.5t102 143.5v502q-37 84 -114 123.5t-159 39.5q-285 0 -284 -407v-88z" />
<glyph unicode="e" d="M102 530v80q0 270 138.5 419t367.5 149q246 0 383 -156t137 -422v-86h-806q0 -184 97 -273t247 -89q184 0 376 92v-178q-152 -90 -391 -91q-238 0 -393.5 144.5t-155.5 410.5zM324 678h587q-2 168 -80.5 245.5t-214.5 77.5q-129 0 -207.5 -78.5t-84.5 -244.5z" />
<glyph unicode="f" horiz-adv-x="593" d="M-2 979v149h160v33q0 178 80.5 273.5t236.5 95.5q135 0 248 -66l-72 -147q-78 43 -153 43q-66 0 -101 -50t-35 -139v-43h238v-151h-240v-977h-208v979h-154z" />
<glyph unicode="g" horiz-adv-x="1236" d="M102 567v33q0 283 129 428.5t361 145.5q90 0 169 -33t122 -90v88h204v-981q0 -256 -130 -391.5t-371 -135.5q-254 0 -383 58v161q168 -61 346 -61q182 0 258 77t76 228v56q-98 -156 -330 -156q-209 0 -330 145t-121 428zM322 532q0 -389 274 -389q133 0 207 106.5 t74 307.5v72q0 188 -57.5 284.5t-217.5 96.5q-131 0 -205.5 -91.5t-74.5 -285.5v-101z" />
<glyph unicode="h" d="M150 0v1509h210v-503q55 70 152.5 119t220.5 49q168 0 261 -94.5t93 -272.5v-807h-215v834q0 70 -56 115.5t-152 45.5q-78 0 -168 -46t-131 -122v-827h-215z" />
<glyph unicode="i" horiz-adv-x="536" d="M150 1268v243h237v-243h-237zM166 0v1149h211v-1149h-211z" />
<glyph unicode="j" horiz-adv-x="526" d="M-170 -164q90 -25 203 -24q76 0 107.5 42t31.5 146v1149h209v-1167q0 -166 -93 -252t-220 -86t-238 32v160zM156 1268v243h239v-243h-239z" />
<glyph unicode="k" horiz-adv-x="1128" d="M150 0v1509h210v-802l445 444h242l-490 -489l553 -662h-258l-453 543l-32 -27v-516h-217z" />
<glyph unicode="l" horiz-adv-x="522" d="M156 0v1509h211v-1509h-211z" />
<glyph unicode="m" horiz-adv-x="1947" d="M150 0v1141h202l6 -148q43 70 145.5 125.5t229.5 55.5q238 0 322 -195q168 195 399 195q156 0 254 -93.5t98 -273.5v-807h-215v838q0 76 -57 119.5t-154 43.5q-76 0 -160.5 -41.5t-134.5 -121.5v-838h-215v838q0 76 -57 119.5t-154 43.5q-76 0 -160.5 -41.5 t-133.5 -121.5v-838h-215z" />
<glyph unicode="n" d="M150 0v1141h202l6 -148q43 70 145.5 125.5t229.5 55.5q156 0 255 -93.5t99 -273.5v-807h-215v840q0 76 -58 120t-155 44q-76 0 -160.5 -42t-133.5 -122v-840h-215z" />
<glyph unicode="o" horiz-adv-x="1298" d="M102 541v73q0 244 150.5 404t392.5 160q143 0 253 -45.5t173.5 -125t94 -178t30.5 -215.5v-73q0 -248 -151.5 -407t-399.5 -159q-246 0 -394.5 158t-148.5 408zM317 569q0 -203 85 -315.5t243 -112.5q340 0 340 428v17q0 418 -334 418q-164 0 -249 -109t-85 -309v-17z " />
<glyph unicode="p" horiz-adv-x="1241" d="M150 -342v1483h196l10 -150q31 72 122 127.5t192 55.5q238 0 353.5 -142.5t115.5 -365.5v-134q0 -266 -127 -406t-348 -140q-106 0 -189.5 42t-114.5 97v-467h-210zM362 352q0 -68 76 -137.5t195 -69.5q135 0 211 101.5t76 302.5v76q0 184 -75 280t-212 96 q-186 0 -271 -165v-484z" />
<glyph unicode="q" horiz-adv-x="1241" d="M102 506v151q0 223 130 365.5t354 142.5q96 0 183 -37.5t126 -97.5l72 121h125v-1493h-209v457q-35 -55 -117 -93t-195 -38q-209 0 -339 126t-130 396zM322 543q0 -223 76.5 -311.5t207.5 -88.5q209 0 275 172v539q-84 147 -273 147q-137 0 -211.5 -101t-74.5 -284v-73z " />
<glyph unicode="r" horiz-adv-x="987" d="M150 0v1141h202l6 -125q33 68 114 113t190 45q147 0 227 -98q65 -79 65 -186q0 -25 -4 -50h-184v13q0 74 -41 113q-45 42 -129 42q-78 0 -141.5 -40t-89.5 -102v-866h-215z" />
<glyph unicode="s" horiz-adv-x="897" d="M63 39v170q133 -78 345 -78q250 0 249 180q0 78 -63.5 123t-216.5 92q-152 45 -221.5 114t-69.5 198q0 147 101.5 239t297.5 92q162 0 287 -59v-176q-104 61 -270 61q-225 0 -226 -129q0 -76 47.5 -110.5t200.5 -83.5q162 -51 241 -125t79 -211q0 -176 -111.5 -268.5 t-320.5 -92.5q-245 1 -349 64z" />
<glyph unicode="t" horiz-adv-x="829" d="M20 979v149l193 9l53 331h156v-340h342v-151h-342v-643q0 -182 186 -182q70 0 164 22v-154q-82 -31 -213 -30q-178 0 -262 91t-84 308v590h-193z" />
<glyph unicode="u" d="M139 336v807h215v-787q0 -209 221 -209q78 0 157 41t130 119v836h215v-1143h-203l-6 156q-57 -80 -157.5 -128t-221.5 -48q-145 0 -247.5 92t-102.5 264z" />
<glyph unicode="v" horiz-adv-x="1136" d="M2 1143h217l356 -879l347 879h213l-476 -1143h-184z" />
<glyph unicode="w" horiz-adv-x="1736" d="M2 1143h217l260 -887l305 887h162l285 -887l301 887h203l-414 -1143h-184l-279 834l-299 -834h-184z" />
<glyph unicode="x" horiz-adv-x="1071" d="M2 0l416 600l-359 541h228l256 -385l256 385h221l-367 -539l416 -602h-248l-295 438l-303 -438h-221z" />
<glyph unicode="y" horiz-adv-x="1136" d="M2 1143h219l348 -871l359 871h207l-635 -1485h-209l160 373z" />
<glyph unicode="z" horiz-adv-x="999" d="M41 0v166l649 805h-639v159h881v-147l-664 -825h690v-158h-917z" />
<glyph unicode="{" horiz-adv-x="808" d="M82 578v161q106 0 142 18.5t36 76.5v417q0 109 78 183.5t194 74.5h205v-163h-155q-70 0 -90.5 -30t-20.5 -89v-396q0 -72 -48 -116.5t-132 -59.5q178 -18 178 -163l2 -412q0 -88 19.5 -121t91.5 -33h155v-151h-205q-125 0 -199.5 72.5t-74.5 185.5l-2 428q0 63 -37 90 t-137 27z" />
<glyph unicode="|" horiz-adv-x="851" d="M338 -410v1921h176v-1921h-176z" />
<glyph unicode="}" horiz-adv-x="808" d="M74 -74h155q72 0 91.5 33t19.5 121l2 412q0 145 178 163q-84 14 -132 59.5t-48 116.5v396q0 59 -20.5 89t-90.5 30h-155v163h205q117 0 194.5 -74.5t77.5 -183.5v-417q0 -57 36 -76t142 -19v-161q-100 0 -137 -27t-37 -90l-2 -428q0 -113 -75 -185.5t-199 -72.5h-205v151 z" />
<glyph unicode="~" horiz-adv-x="1302" d="M39 651q0 131 84 218t233 87q88 0 163 -37.5t177 -123.5l92 -75q33 -26 85.5 -53.5t89.5 -27.5q61 0 92.5 41t31.5 102q0 86 -67 172h170q43 -47 63.5 -94t20.5 -129q0 -121 -84 -203t-236 -82q-41 0 -78.5 10.5t-87.5 42.5l-66 43q-17 11 -79 58q-201 156 -287 156 q-133 0 -133 -135q0 -92 68 -172h-170q-82 81 -82 202z" />
<glyph unicode="&#xa1;" horiz-adv-x="688" d="M231 0l25 1059h184l25 -1059h-234zM231 1241v268h234v-268h-234z" />
<glyph unicode="&#xa2;" horiz-adv-x="1189" d="M152 616v50q0 246 144 392t357 171v160h148v-162q133 -10 203 -43v-158q-121 49 -252 49q-174 0 -282 -112.5t-108 -307.5v-28q0 -215 101.5 -338t273.5 -123q145 0 269 37v-160q-63 -37 -205 -41v-145h-148v145q-221 20 -361 179t-140 435z" />
<glyph unicode="&#xa3;" horiz-adv-x="1116" d="M27 666v149h151v205q0 219 145.5 364.5t358.5 145.5q164 0 301 -49v-168q-127 47 -270 47q-317 0 -318 -367v-178h287v-149h-287v-500h643v-166h-860v666h-151z" />
<glyph unicode="&#xa4;" horiz-adv-x="1110" d="M35 510v133h141q-4 27 -4 170h-137v131h147q25 283 163 434.5t368 151.5q184 0 288 -57v-187q-111 61 -256 62q-319 0 -354 -404h613v-131h-623q-2 -23 -1 -86t3 -84h621v-133h-607q16 -182 102.5 -277.5t227.5 -95.5q143 0 270 64v-162q-104 -63 -282 -64 q-227 0 -362.5 134.5t-164.5 400.5h-153z" />
<glyph unicode="&#xa5;" horiz-adv-x="1232" d="M-4 1509h244l391 -624l430 624h184l-547 -811v-75h324v-129h-324v-123h324v-129h-324v-242h-192v242h-322v129h322v123h-322v129h322v67z" />
<glyph unicode="&#xa6;" horiz-adv-x="849" d="M344 -406v879h168v-879h-168zM344 752v882h168v-882h-168z" />
<glyph unicode="&#xa7;" horiz-adv-x="880" d="M80 45v172q49 -27 138 -51.5t157 -24.5q106 0 168.5 38t62.5 104q0 57 -46 101t-179 110q-147 61 -214 127.5t-67 173.5q0 135 101 209q-113 68 -113 217q0 139 99.5 224t269.5 85q156 0 286 -72v-168q-121 80 -294 80q-86 0 -135.5 -33.5t-49.5 -95.5q0 -35 13.5 -62.5 t50.5 -52t63.5 -39t91.5 -45.5q162 -72 231.5 -141.5t69.5 -148.5q0 -156 -114 -234q131 -76 131 -235q0 -143 -116 -227.5t-288 -84.5q-147 0 -317 74zM270 819q0 -43 35 -75.5t103 -69.5l43 -21l45 -22l43 -21q57 35 57 107q0 39 -26.5 67.5t-96.5 67.5q-33 18 -147 68 q-56 -35 -56 -101z" />
<glyph unicode="&#xa8;" horiz-adv-x="1024" d="M190 1362q0 41 31 72.5t72 31.5t72.5 -31.5t31.5 -72.5q0 -43 -31.5 -74t-72.5 -31q-39 0 -71 31t-32 74zM633 1362q0 41 31.5 72.5t70.5 31.5q41 0 73 -31.5t32 -72.5q0 -43 -32 -74t-73 -31q-39 0 -70.5 31t-31.5 74z" />
<glyph unicode="&#xa9;" horiz-adv-x="1490" d="M82 690q0 297 183.5 482.5t479.5 185.5q299 0 481.5 -185.5t182.5 -482.5q0 -301 -182.5 -482t-481.5 -181q-305 0 -484 178t-179 485zM209 690q0 -268 138 -413.5t398.5 -145.5t399.5 152.5t139 406.5q0 242 -148.5 400.5t-390.5 158.5q-244 0 -390 -156.5t-146 -402.5z M432 653v43q0 158 95.5 248t242.5 90q117 0 201 -47v-96q-68 51 -180 51q-223 0 -224 -256v-22q0 -129 54.5 -187.5t162.5 -58.5q111 0 187 49v-102q-82 -47 -203 -48q-156 0 -246 84t-90 252z" />
<glyph unicode="&#xaa;" horiz-adv-x="890" d="M68 885v16q0 156 99 245t259 89q145 0 213 -94v119q0 141 -186 141q-137 0 -248 -62v136q127 55 287 55q319 0 319 -307v-643h-166l-2 127q-25 -61 -97.5 -100.5t-166.5 -39.5q-131 0 -221 84t-90 234zM86 317v125h723v-125h-723zM244 893q0 -106 52 -148.5t146 -42.5 q80 0 140.5 49.5t60.5 135.5v41q0 84 -57.5 135t-143.5 51q-90 0 -144 -53t-54 -148v-20z" />
<glyph unicode="&#xab;" horiz-adv-x="1243" d="M55 524v162l580 367v-203l-410 -244l410 -237v-203zM590 524v162l579 367v-203l-409 -244l409 -237v-203z" />
<glyph unicode="&#xac;" horiz-adv-x="1161" d="M106 635v143h912v-387h-144v244h-768z" />
<glyph unicode="&#xad;" horiz-adv-x="1189" d="M102 590v176h981v-176h-981z" />
<glyph unicode="&#xae;" horiz-adv-x="1490" d="M82 690q0 295 184.5 481.5t478.5 186.5q299 0 481.5 -185.5t182.5 -482.5q0 -301 -182.5 -482t-481.5 -181q-305 0 -484 178t-179 485zM209 690q0 -268 138 -413.5t398.5 -145.5t399.5 152.5t139 406.5q0 242 -148.5 400.5t-390.5 158.5q-240 0 -388 -157.5t-148 -401.5z M518 342v711h250q109 0 165 -43t56 -115v-61q0 -57 -37 -98.5t-96 -49.5q78 -31 118 -98.5t40 -147.5v-98h-121v102q0 92 -44 150.5t-116 58.5h-100v-311h-115zM633 725h129q121 0 121 111v26q0 102 -121 103h-129v-240z" />
<glyph unicode="&#xaf;" horiz-adv-x="1024" d="M162 1346v133h698v-133h-698z" />
<glyph unicode="&#x2c9;" horiz-adv-x="1024" d="M162 1346v133h698v-133h-698z" />
<glyph unicode="&#xb0;" horiz-adv-x="770" d="M45 1178q0 141 104.5 243.5t248 102.5t247 -102.5t103.5 -243.5q0 -139 -103.5 -241.5t-247 -102.5t-248 102.5t-104.5 241.5zM201 1178q0 -88 56 -147.5t140 -59.5t140.5 59.5t56.5 147.5t-56.5 148t-140.5 60t-140 -60t-56 -148z" />
<glyph unicode="&#xb1;" horiz-adv-x="892" d="M88 0v160h727v-160h-727zM88 680v151h274v295h166v-295h277v-151h-277v-295h-166v295h-274z" />
<glyph unicode="&#xb2;" horiz-adv-x="851" d="M119 1303q25 104 115 164.5t208 60.5q152 0 231 -67.5t79 -180.5q0 -125 -138.5 -274.5t-351.5 -288.5h514v-127h-655v139q287 236 384 341.5t97 191.5q0 135 -170 135q-137 0 -178 -94h-135z" />
<glyph unicode="&#xb3;" horiz-adv-x="847" d="M119 729l92 70q78 -113 195 -113q190 0 190 172q0 78 -59.5 116t-151.5 38h-80v106h88q197 0 197 150q0 63 -45 100t-117 37q-139 0 -174 -115h-129q25 113 111 175.5t196 62.5q131 0 210 -64.5t79 -173.5q0 -170 -166 -215q84 -25 134 -82t50 -145q0 -125 -89 -202 t-224 -77q-211 0 -307 160z" />
<glyph unicode="&#xb4;" horiz-adv-x="1024" d="M276 1221l267 354h205l-314 -354h-158z" />
<glyph unicode="&#xb5;" horiz-adv-x="1173" d="M121 -342v1493h203v-762q0 -227 227 -227q219 0 305 164v825h203v-1151h-193l-10 195q-49 -104 -140 -151.5t-192 -47.5q-166 0 -215 74v-412h-188z" />
<glyph unicode="&#x3bc;" horiz-adv-x="1173" d="M121 -342v1493h203v-762q0 -227 227 -227q219 0 305 164v825h203v-1151h-193l-10 195q-49 -104 -140 -151.5t-192 -47.5q-166 0 -215 74v-412h-188z" />
<glyph unicode="&#xb6;" horiz-adv-x="1085" d="M68 1094v49q0 162 123.5 264t347.5 102h411v-1509h-139v1343h-149v-1343h-140v729q-219 0 -336.5 94.5t-117.5 270.5zM231 1126q0 -225 287 -225v440q-131 0 -209 -57.5t-78 -157.5z" />
<glyph unicode="&#xb7;" horiz-adv-x="641" d="M207 545v282h237v-282h-237z" />
<glyph unicode="&#x2219;" horiz-adv-x="641" d="M207 545v282h237v-282h-237z" />
<glyph unicode="&#xb8;" horiz-adv-x="1024" d="M401 -340q47 -20 109 -20q59 0 97 30.5t38 81.5q0 113 -137 113h-68v160h109v-74q106 0 166.5 -50.5t60.5 -140.5q0 -98 -72.5 -157.5t-177.5 -59.5q-78 0 -125 17v100z" />
<glyph unicode="&#xb9;" horiz-adv-x="741" d="M164 1303v94q94 8 145 42t60 72h104v-921h-147v713h-162z" />
<glyph unicode="&#xba;" horiz-adv-x="970" d="M74 1014v61q0 213 112.5 335t305.5 122q201 0 309 -122t108 -335v-61q0 -217 -105.5 -337t-309.5 -120q-197 0 -308.5 122t-111.5 335zM104 317v125h764v-125h-764zM258 1036q0 -182 59.5 -261t176.5 -79q121 0 177 79t56 261v17q0 184 -58.5 262t-176.5 78 q-233 0 -234 -340v-17z" />
<glyph unicode="&#xbb;" horiz-adv-x="1243" d="M74 166v203l409 237l-409 244v203l579 -367v-162zM608 166v203l412 237l-412 244v203l580 -367v-162z" />
<glyph unicode="&#xbc;" horiz-adv-x="1497" d="M53 1303v94q94 8 145.5 42t59.5 72h104v-921h-147v713h-162zM160 0l952 1509h141l-952 -1509h-141zM735 276v138l516 534h97v-530h129v-142h-129v-276h-140v276h-473zM872 418h336v332z" />
<glyph unicode="&#xbd;" horiz-adv-x="1546" d="M53 1303v94q94 8 145.5 42t59.5 72h104v-921h-147v713h-162zM135 0l950 1509h142l-951 -1509h-141zM879 713q27 104 116.5 164.5t208.5 60.5q150 0 228.5 -67.5t78.5 -180.5q0 -127 -119.5 -257t-367.5 -306h512v-127h-655v137q289 240 385 344.5t96 190.5 q0 66 -44 100.5t-126 34.5q-70 0 -116 -27.5t-60 -66.5h-137z" />
<glyph unicode="&#xbe;" horiz-adv-x="1634" d="M29 729l92 70q78 -113 194 -113q193 0 193 172q0 80 -59.5 117t-151.5 37h-80v106h88q197 0 197 150q0 61 -46 99t-118 38q-137 0 -172 -115h-129q25 113 109.5 175.5t197.5 62.5q131 0 209 -64.5t78 -173.5q0 -168 -164 -215q182 -53 182 -227q0 -125 -89 -202t-224 -77 q-207 0 -307 160zM287 0l950 1509h141l-950 -1509h-141zM856 276v136l516 534h96v-530h129v-140h-129v-278h-139v278h-473zM993 416h336v332z" />
<glyph unicode="&#xbf;" horiz-adv-x="917" d="M35 289q0 211 211 325q106 59 159.5 132t53.5 186v147h174v-184q0 -223 -209 -342q-98 -57 -141 -107.5t-43 -132.5q0 -76 63.5 -125t200.5 -49q195 0 370 135v-182q-61 -49 -172.5 -82t-246.5 -33q-217 0 -318.5 89.5t-101.5 222.5zM430 1241v270h229v-270h-229z" />
<glyph unicode="&#xc0;" horiz-adv-x="1255" d="M226 2007h204l267 -354h-158zM2 0l487 1509h256l508 -1509h-213l-127 391h-569l-129 -391h-213zM387 555h2h2h2h2h2h2h2h2h3h2h2h2h2h2h2h2h2h2h2h2h2h2h2h2h2h2h2h2h2h3h2h2h2h2h2h2h2h2h2h2h2h2h2h2h2h2h2h2h4h3h2h2h2h2h2h4h2h2h2h2h4h2h2h2h4h2h2h5h2h2h2h4h2h2h4h2 h2h4h2h2h4h2h5h2h2h4h2h4h2h4h2h4h2h2h4h2h4h3h4h2h4h2h4h2h4h4h2h4h2h4h3h4h4h2h4h2h4h4h2h4h4h2h4h3h4h4h2h4h4h4h2h4h4h2h4h5h4h2h4h4h4h2h4h4h4h2h4h5h4h4h2h4h4h4h4h4h2h4h4h5h4h4h16l-242 752z" />
<glyph unicode="&#xc1;" horiz-adv-x="1255" d="M538 1653l267 354h205l-314 -354h-158zM2 0l487 1509h256l508 -1509h-213l-127 391h-569l-129 -391h-213zM387 555h2h2h2h2h2h2h2h2h3h2h2h2h2h2h2h2h2h2h2h2h2h2h2h2h2h2h2h2h2h3h2h2h2h2h2h2h2h2h2h2h2h2h2h2h2h2h2h2h4h3h2h2h2h2h2h4h2h2h2h2h4h2h2h2h4h2h2h5h2h2h2h4 h2h2h4h2h2h4h2h2h4h2h5h2h2h4h2h4h2h4h2h4h2h2h4h2h4h3h4h2h4h2h4h2h4h4h2h4h2h4h3h4h4h2h4h2h4h4h2h4h4h2h4h3h4h4h2h4h4h4h2h4h4h2h4h5h4h2h4h4h4h2h4h4h4h2h4h5h4h4h2h4h4h4h4h4h2h4h4h5h4h4h16l-242 752z" />
<glyph unicode="&#xc2;" horiz-adv-x="1255" d="M149 1653l383 354h172l383 -354h-143l-326 231l-326 -231h-143zM2 0l487 1509h256l508 -1509h-213l-127 391h-569l-129 -391h-213zM387 555h2h2h2h2h2h2h2h2h3h2h2h2h2h2h2h2h2h2h2h2h2h2h2h2h2h2h2h2h2h3h2h2h2h2h2h2h2h2h2h2h2h2h2h2h2h2h2h2h4h3h2h2h2h2h2h4h2h2h2h2 h4h2h2h2h4h2h2h5h2h2h2h4h2h2h4h2h2h4h2h2h4h2h5h2h2h4h2h4h2h4h2h4h2h2h4h2h4h3h4h2h4h2h4h2h4h4h2h4h2h4h3h4h4h2h4h2h4h4h2h4h4h2h4h3h4h4h2h4h4h4h2h4h4h2h4h5h4h2h4h4h4h2h4h4h4h2h4h5h4h4h2h4h4h4h4h4h2h4h4h5h4h4h16l-242 752z" />
<glyph unicode="&#xc3;" horiz-adv-x="1255" d="M215 1735q31 63 95 110t150 47q66 0 172 -55q94 -53 168 -53q94 0 142 96l77 -68q-88 -160 -237 -159q-76 0 -182 55q-102 51 -162 51q-98 0 -152 -86zM2 0l487 1509h256l508 -1509h-213l-127 391h-569l-129 -391h-213zM387 555h2h2h2h2h2h2h2h2h3h2h2h2h2h2h2h2h2h2h2h2 h2h2h2h2h2h2h2h2h2h3h2h2h2h2h2h2h2h2h2h2h2h2h2h2h2h2h2h2h4h3h2h2h2h2h2h4h2h2h2h2h4h2h2h2h4h2h2h5h2h2h2h4h2h2h4h2h2h4h2h2h4h2h5h2h2h4h2h4h2h4h2h4h2h2h4h2h4h3h4h2h4h2h4h2h4h4h2h4h2h4h3h4h4h2h4h2h4h4h2h4h4h2h4h3h4h4h2h4h4h4h2h4h4h2h4h5h4h2h4h4h4h2h4h4h4h2h4 h5h4h4h2h4h4h4h4h4h2h4h4h5h4h4h16l-242 752z" />
<glyph unicode="&#xc4;" horiz-adv-x="1255" d="M292 1757q0 41 31 72.5t72 31.5t72.5 -31.5t31.5 -72.5q0 -43 -31.5 -74t-72.5 -31q-39 0 -71 31t-32 74zM735 1757q0 41 31.5 72.5t70.5 31.5q41 0 73 -31.5t32 -72.5q0 -43 -32 -74t-73 -31q-39 0 -70.5 31t-31.5 74zM2 0l487 1509h256l508 -1509h-213l-127 391h-569 l-129 -391h-213zM387 555h2h2h2h2h2h2h2h2h3h2h2h2h2h2h2h2h2h2h2h2h2h2h2h2h2h2h2h2h2h3h2h2h2h2h2h2h2h2h2h2h2h2h2h2h2h2h2h2h4h3h2h2h2h2h2h4h2h2h2h2h4h2h2h2h4h2h2h5h2h2h2h4h2h2h4h2h2h4h2h2h4h2h5h2h2h4h2h4h2h4h2h4h2h2h4h2h4h3h4h2h4h2h4h2h4h4h2h4h2h4h3h4h4h2h4 h2h4h4h2h4h4h2h4h3h4h4h2h4h4h4h2h4h4h2h4h5h4h2h4h4h4h2h4h4h4h2h4h5h4h4h2h4h4h4h4h4h2h4h4h5h4h4h16l-242 752z" />
<glyph unicode="&#xc5;" horiz-adv-x="1255" d="M362 1773.5q0 112.5 76 187.5t178 75t179 -75t77 -187.5t-77 -187t-179 -74.5t-178 74.5t-76 187zM460 1774q0 -74 45 -121t111 -47t111 46t45 121.5t-45 122t-111 46.5t-111 -46t-45 -122zM2 0l487 1509h256l508 -1509h-213l-127 391h-569l-129 -391h-213zM387 555h2h2 h2h2h2h2h2h2h3h2h2h2h2h2h2h2h2h2h2h2h2h2h2h2h2h2h2h2h2h3h2h2h2h2h2h2h2h2h2h2h2h2h2h2h2h2h2h2h4h3h2h2h2h2h2h4h2h2h2h2h4h2h2h2h4h2h2h5h2h2h2h4h2h2h4h2h2h4h2h2h4h2h5h2h2h4h2h4h2h4h2h4h2h2h4h2h4h3h4h2h4h2h4h2h4h4h2h4h2h4h3h4h4h2h4h2h4h4h2h4h4h2h4h3h4h4h2h4h4 h4h2h4h4h2h4h5h4h2h4h4h4h2h4h4h4h2h4h5h4h4h2h4h4h4h4h4h2h4h4h5h4h4h16l-242 752z" />
<glyph unicode="&#xc7;" horiz-adv-x="1169" d="M643 -373q47 -20 109 -20q59 0 97 30.5t38 81.5q0 113 -137 113h-68v160h109v-74q106 0 166.5 -50.5t60.5 -140.5q0 -98 -72.5 -157.5t-177.5 -59.5q-78 0 -125 17v100zM88 717v61q0 352 177 552t499 200q197 0 323 -49v-193q-8 2 -36.5 12.5t-41.5 13.5l-44 10 q-31 7 -58.5 10t-70.5 6t-95 3q-428 0 -428 -585v-21q0 -317 116 -454.5t359 -137.5q158 0 299 66v-170q-102 -66 -352 -66q-133 0 -246.5 43t-204.5 129t-143.5 231.5t-52.5 338.5z" />
<glyph unicode="&#xc8;" horiz-adv-x="1136" d="M219 2007h204l267 -354h-158zM168 0v1509h887v-168h-676v-493h543v-166h-543v-516h706v-166h-917z" />
<glyph unicode="&#xc9;" horiz-adv-x="1136" d="M532 1653l267 354h205l-314 -354h-158zM168 0v1509h887v-168h-676v-493h543v-166h-543v-516h706v-166h-917z" />
<glyph unicode="&#xca;" horiz-adv-x="1136" d="M141 1653l383 354h172l383 -354h-143l-326 231l-326 -231h-143zM168 0v1509h887v-168h-676v-493h543v-166h-543v-516h706v-166h-917z" />
<glyph unicode="&#xcb;" horiz-adv-x="1136" d="M286 1757q0 41 31 72.5t72 31.5t72.5 -31.5t31.5 -72.5q0 -43 -31.5 -74t-72.5 -31q-39 0 -71 31t-32 74zM729 1757q0 41 31.5 72.5t70.5 31.5q41 0 73 -31.5t32 -72.5q0 -43 -32 -74t-73 -31q-39 0 -70.5 31t-31.5 74zM168 0v1509h887v-168h-676v-493h543v-166h-543 v-516h706v-166h-917z" />
<glyph unicode="&#xcc;" horiz-adv-x="569" d="M-108 2007h204l267 -354h-158zM176 0v1509h217v-1509h-217z" />
<glyph unicode="&#xcd;" horiz-adv-x="569" d="M206 1653l267 354h205l-314 -354h-158zM176 0v1509h217v-1509h-217z" />
<glyph unicode="&#xce;" horiz-adv-x="569" d="M-184 1653l383 354h172l383 -354h-143l-326 231l-326 -231h-143zM176 0v1509h217v-1509h-217z" />
<glyph unicode="&#xcf;" horiz-adv-x="569" d="M-39 1757q0 41 31 72.5t72 31.5t72.5 -31.5t31.5 -72.5q0 -43 -31.5 -74t-72.5 -31q-39 0 -71 31t-32 74zM404 1757q0 41 31.5 72.5t70.5 31.5q41 0 73 -31.5t32 -72.5q0 -43 -32 -74t-73 -31q-39 0 -70.5 31t-31.5 74zM176 0v1509h217v-1509h-217z" />
<glyph unicode="&#xd1;" horiz-adv-x="1437" d="M316 1735q31 63 95 110t150 47q66 0 172 -55q94 -53 168 -53q94 0 142 96l77 -68q-88 -160 -237 -159q-76 0 -182 55q-102 51 -162 51q-98 0 -152 -86zM168 0v1509h141l760 -1103v1103h201v-1509h-146l-755 1087v-1087h-201z" />
<glyph unicode="&#xd2;" horiz-adv-x="1366" d="M297 2007h204l267 -354h-158zM90 702v86q0 350 150.5 546t447.5 196q598 0 598 -742v-81q0 -731 -598 -732q-279 0 -438.5 180t-159.5 547zM313 731q0 -326 92.5 -463t282.5 -137q129 0 208 50t123 183.5t44 362.5v41q0 307 -86 450.5t-289 143.5q-201 0 -288 -136 t-87 -458v-37z" />
<glyph unicode="&#xd3;" horiz-adv-x="1366" d="M608 1653l267 354h205l-314 -354h-158zM90 702v86q0 350 150.5 546t447.5 196q598 0 598 -742v-81q0 -731 -598 -732q-279 0 -438.5 180t-159.5 547zM313 731q0 -326 92.5 -463t282.5 -137q129 0 208 50t123 183.5t44 362.5v41q0 307 -86 450.5t-289 143.5 q-201 0 -288 -136t-87 -458v-37z" />
<glyph unicode="&#xd4;" horiz-adv-x="1366" d="M219 1653l383 354h172l383 -354h-143l-326 231l-326 -231h-143zM90 702v86q0 350 150.5 546t447.5 196q598 0 598 -742v-81q0 -731 -598 -732q-279 0 -438.5 180t-159.5 547zM313 731q0 -326 92.5 -463t282.5 -137q129 0 208 50t123 183.5t44 362.5v41q0 307 -86 450.5 t-289 143.5q-201 0 -288 -136t-87 -458v-37z" />
<glyph unicode="&#xd5;" horiz-adv-x="1366" d="M287 1735q31 63 95 110t150 47q66 0 172 -55q94 -53 168 -53q94 0 142 96l77 -68q-88 -160 -237 -159q-76 0 -182 55q-102 51 -162 51q-98 0 -152 -86zM90 702v86q0 350 150.5 546t447.5 196q598 0 598 -742v-81q0 -731 -598 -732q-279 0 -438.5 180t-159.5 547zM313 731 q0 -326 92.5 -463t282.5 -137q129 0 208 50t123 183.5t44 362.5v41q0 307 -86 450.5t-289 143.5q-201 0 -288 -136t-87 -458v-37z" />
<glyph unicode="&#xd6;" horiz-adv-x="1366" d="M362 1757q0 41 31 72.5t72 31.5t72.5 -31.5t31.5 -72.5q0 -43 -31.5 -74t-72.5 -31q-39 0 -71 31t-32 74zM805 1757q0 41 31.5 72.5t70.5 31.5q41 0 73 -31.5t32 -72.5q0 -43 -32 -74t-73 -31q-39 0 -70.5 31t-31.5 74zM90 702v86q0 350 150.5 546t447.5 196 q598 0 598 -742v-81q0 -731 -598 -732q-279 0 -438.5 180t-159.5 547zM313 731q0 -326 92.5 -463t282.5 -137q129 0 208 50t123 183.5t44 362.5v41q0 307 -86 450.5t-289 143.5q-201 0 -288 -136t-87 -458v-37z" />
<glyph unicode="&#xd9;" horiz-adv-x="1302" d="M269 2007h204l267 -354h-158zM147 522v987h218v-1028q0 -139 68.5 -231t223.5 -92q152 0 228 70.5t76 258.5v1022h210v-1044q0 -223 -132 -353t-379.5 -130t-380 138t-132.5 402z" />
<glyph unicode="&#xda;" horiz-adv-x="1302" d="M579 1653l267 354h205l-314 -354h-158zM147 522v987h218v-1028q0 -139 68.5 -231t223.5 -92q152 0 228 70.5t76 258.5v1022h210v-1044q0 -223 -132 -353t-379.5 -130t-380 138t-132.5 402z" />
<glyph unicode="&#xdb;" horiz-adv-x="1302" d="M190 1653l383 354h172l383 -354h-143l-326 231l-326 -231h-143zM147 522v987h218v-1028q0 -139 68.5 -231t223.5 -92q152 0 228 70.5t76 258.5v1022h210v-1044q0 -223 -132 -353t-379.5 -130t-380 138t-132.5 402z" />
<glyph unicode="&#xdc;" horiz-adv-x="1302" d="M333 1757q0 41 31 72.5t72 31.5t72.5 -31.5t31.5 -72.5q0 -43 -31.5 -74t-72.5 -31q-39 0 -71 31t-32 74zM776 1757q0 41 31.5 72.5t70.5 31.5q41 0 73 -31.5t32 -72.5q0 -43 -32 -74t-73 -31q-39 0 -70.5 31t-31.5 74zM147 522v987h218v-1028q0 -139 68.5 -231 t223.5 -92q152 0 228 70.5t76 258.5v1022h210v-1044q0 -223 -132 -353t-379.5 -130t-380 138t-132.5 402z" />
<glyph unicode="&#xdd;" horiz-adv-x="1327" d="M587 1653l267 354h205l-314 -354h-158zM10 1509h223l441 -766l438 766h209l-543 -952v-557h-217v545z" />
<glyph unicode="&#xe0;" horiz-adv-x="1179" d="M219 1655h204l267 -354h-158zM78 369v28q0 190 123 294t319 104q207 0 318 -117v139q0 86 -61.5 138.5t-196.5 52.5q-205 0 -347 -82v170q129 78 377 78q211 0 320.5 -105.5t109.5 -259.5v-809h-184l-14 141q-49 -78 -151.5 -116.5t-213.5 -38.5q-178 0 -288.5 98.5 t-110.5 284.5zM285 387q0 -244 268 -244q129 0 207 70t78 172v31q0 102 -79 165.5t-206 63.5q-121 0 -194.5 -62.5t-73.5 -172.5v-23z" />
<glyph unicode="&#xe1;" horiz-adv-x="1179" d="M530 1301l267 354h205l-314 -354h-158zM78 369v28q0 190 123 294t319 104q207 0 318 -117v139q0 86 -61.5 138.5t-196.5 52.5q-205 0 -347 -82v170q129 78 377 78q211 0 320.5 -105.5t109.5 -259.5v-809h-184l-14 141q-49 -78 -151.5 -116.5t-213.5 -38.5 q-178 0 -288.5 98.5t-110.5 284.5zM285 387q0 -244 268 -244q129 0 207 70t78 172v31q0 102 -79 165.5t-206 63.5q-121 0 -194.5 -62.5t-73.5 -172.5v-23z" />
<glyph unicode="&#xe2;" horiz-adv-x="1179" d="M141 1301l383 354h172l383 -354h-143l-326 231l-326 -231h-143zM78 369v28q0 190 123 294t319 104q207 0 318 -117v139q0 86 -61.5 138.5t-196.5 52.5q-205 0 -347 -82v170q129 78 377 78q211 0 320.5 -105.5t109.5 -259.5v-809h-184l-14 141q-49 -78 -151.5 -116.5 t-213.5 -38.5q-178 0 -288.5 98.5t-110.5 284.5zM285 387q0 -244 268 -244q129 0 207 70t78 172v31q0 102 -79 165.5t-206 63.5q-121 0 -194.5 -62.5t-73.5 -172.5v-23z" />
<glyph unicode="&#xe3;" horiz-adv-x="1179" d="M209 1383q31 63 95 110t150 47q66 0 172 -55q94 -53 168 -53q94 0 142 96l77 -68q-88 -160 -237 -159q-76 0 -182 55q-102 51 -162 51q-98 0 -152 -86zM78 369v28q0 190 123 294t319 104q207 0 318 -117v139q0 86 -61.5 138.5t-196.5 52.5q-205 0 -347 -82v170 q129 78 377 78q211 0 320.5 -105.5t109.5 -259.5v-809h-184l-14 141q-49 -78 -151.5 -116.5t-213.5 -38.5q-178 0 -288.5 98.5t-110.5 284.5zM285 387q0 -244 268 -244q129 0 207 70t78 172v31q0 102 -79 165.5t-206 63.5q-121 0 -194.5 -62.5t-73.5 -172.5v-23z" />
<glyph unicode="&#xe4;" horiz-adv-x="1179" d="M284 1405q0 41 31 72.5t72 31.5t72.5 -31.5t31.5 -72.5q0 -43 -31.5 -74t-72.5 -31q-39 0 -71 31t-32 74zM727 1405q0 41 31.5 72.5t70.5 31.5q41 0 73 -31.5t32 -72.5q0 -43 -32 -74t-73 -31q-39 0 -70.5 31t-31.5 74zM78 369v28q0 190 123 294t319 104q207 0 318 -117 v139q0 86 -61.5 138.5t-196.5 52.5q-205 0 -347 -82v170q129 78 377 78q211 0 320.5 -105.5t109.5 -259.5v-809h-184l-14 141q-49 -78 -151.5 -116.5t-213.5 -38.5q-178 0 -288.5 98.5t-110.5 284.5zM285 387q0 -244 268 -244q129 0 207 70t78 172v31q0 102 -79 165.5 t-206 63.5q-121 0 -194.5 -62.5t-73.5 -172.5v-23z" />
<glyph unicode="&#xe5;" horiz-adv-x="1179" d="M356 1562.5q0 112.5 76 187.5t178 75t179 -75t77 -187.5t-77 -187t-179 -74.5t-178 74.5t-76 187zM454 1563q0 -74 45 -121t111 -47t111 46t45 121.5t-45 122t-111 46.5t-111 -46t-45 -122zM78 369v28q0 190 123 294t319 104q207 0 318 -117v139q0 86 -61.5 138.5 t-196.5 52.5q-205 0 -347 -82v170q129 78 377 78q211 0 320.5 -105.5t109.5 -259.5v-809h-184l-14 141q-49 -78 -151.5 -116.5t-213.5 -38.5q-178 0 -288.5 98.5t-110.5 284.5zM285 387q0 -244 268 -244q129 0 207 70t78 172v31q0 102 -79 165.5t-206 63.5 q-121 0 -194.5 -62.5t-73.5 -172.5v-23z" />
<glyph unicode="&#xe7;" horiz-adv-x="1124" d="M553 -373q47 -20 109 -20q59 0 97 30.5t38 81.5q0 113 -137 113h-68v160h109v-74q106 0 166.5 -50.5t60.5 -140.5q0 -98 -72.5 -157.5t-177.5 -59.5q-78 0 -125 17v100zM102 553v49q0 260 143.5 419t383.5 159q219 0 350 -78v-209q-158 98 -332 98q-147 0 -234 -98 t-87 -303v-21q0 -197 87 -302t234 -105q190 0 332 96v-197q-145 -86 -334 -86q-248 0 -395.5 152t-147.5 426z" />
<glyph unicode="&#xe8;" d="M215 1655h204l267 -354h-158zM102 530v80q0 270 138.5 419t367.5 149q246 0 383 -156t137 -422v-86h-806q0 -184 97 -273t247 -89q184 0 376 92v-178q-152 -90 -391 -91q-238 0 -393.5 144.5t-155.5 410.5zM324 678h587q-2 168 -80.5 245.5t-214.5 77.5 q-129 0 -207.5 -78.5t-84.5 -244.5z" />
<glyph unicode="&#xe9;" d="M530 1301l267 354h205l-314 -354h-158zM102 530v80q0 270 138.5 419t367.5 149q246 0 383 -156t137 -422v-86h-806q0 -184 97 -273t247 -89q184 0 376 92v-178q-152 -90 -391 -91q-238 0 -393.5 144.5t-155.5 410.5zM324 678h587q-2 168 -80.5 245.5t-214.5 77.5 q-129 0 -207.5 -78.5t-84.5 -244.5z" />
<glyph unicode="&#xea;" d="M139 1301l383 354h172l383 -354h-143l-326 231l-326 -231h-143zM102 530v80q0 270 138.5 419t367.5 149q246 0 383 -156t137 -422v-86h-806q0 -184 97 -273t247 -89q184 0 376 92v-178q-152 -90 -391 -91q-238 0 -393.5 144.5t-155.5 410.5zM324 678h587 q-2 168 -80.5 245.5t-214.5 77.5q-129 0 -207.5 -78.5t-84.5 -244.5z" />
<glyph unicode="&#xeb;" d="M284 1405q0 41 31 72.5t72 31.5t72.5 -31.5t31.5 -72.5q0 -43 -31.5 -74t-72.5 -31q-39 0 -71 31t-32 74zM727 1405q0 41 31.5 72.5t70.5 31.5q41 0 73 -31.5t32 -72.5q0 -43 -32 -74t-73 -31q-39 0 -70.5 31t-31.5 74zM102 530v80q0 270 138.5 419t367.5 149 q246 0 383 -156t137 -422v-86h-806q0 -184 97 -273t247 -89q184 0 376 92v-178q-152 -90 -391 -91q-238 0 -393.5 144.5t-155.5 410.5zM324 678h587q-2 168 -80.5 245.5t-214.5 77.5q-129 0 -207.5 -78.5t-84.5 -244.5z" />
<glyph unicode="&#xec;" horiz-adv-x="536" d="M-125 1989h204l267 -354h-158zM150 1268v243h237v-243h-237zM166 0v1149h211v-1149h-211z" />
<glyph unicode="&#xed;" horiz-adv-x="536" d="M190 1635l267 354h205l-314 -354h-158zM150 1268v243h237v-243h-237zM166 0v1149h211v-1149h-211z" />
<glyph unicode="&#xee;" horiz-adv-x="536" d="M-201 1635l383 354h172l383 -354h-143l-326 231l-326 -231h-143zM150 1268v243h237v-243h-237zM166 0v1149h211v-1149h-211z" />
<glyph unicode="&#xef;" horiz-adv-x="536" d="M-56 1739q0 41 31 72.5t72 31.5t72.5 -31.5t31.5 -72.5q0 -43 -31.5 -74t-72.5 -31q-39 0 -71 31t-32 74zM387 1739q0 41 31.5 72.5t70.5 31.5q41 0 73 -31.5t32 -72.5q0 -43 -32 -74t-73 -31q-39 0 -70.5 31t-31.5 74zM150 1268v243h237v-243h-237zM166 0v1149h211 v-1149h-211z" />
<glyph unicode="&#xf1;" d="M217 1383q31 63 95 110t150 47q66 0 172 -55q94 -53 168 -53q94 0 142 96l77 -68q-88 -160 -237 -159q-76 0 -182 55q-102 51 -162 51q-98 0 -152 -86zM150 0v1141h202l6 -148q43 70 145.5 125.5t229.5 55.5q156 0 255 -93.5t99 -273.5v-807h-215v840q0 76 -58 120 t-155 44q-76 0 -160.5 -42t-133.5 -122v-840h-215z" />
<glyph unicode="&#xf2;" horiz-adv-x="1298" d="M252 1655h204l267 -354h-158zM102 541v73q0 244 150.5 404t392.5 160q143 0 253 -45.5t173.5 -125t94 -178t30.5 -215.5v-73q0 -248 -151.5 -407t-399.5 -159q-246 0 -394.5 158t-148.5 408zM317 569q0 -203 85 -315.5t243 -112.5q340 0 340 428v17q0 418 -334 418 q-164 0 -249 -109t-85 -309v-17z" />
<glyph unicode="&#xf3;" horiz-adv-x="1298" d="M567 1301l267 354h205l-314 -354h-158zM102 541v73q0 244 150.5 404t392.5 160q143 0 253 -45.5t173.5 -125t94 -178t30.5 -215.5v-73q0 -248 -151.5 -407t-399.5 -159q-246 0 -394.5 158t-148.5 408zM317 569q0 -203 85 -315.5t243 -112.5q340 0 340 428v17 q0 418 -334 418q-164 0 -249 -109t-85 -309v-17z" />
<glyph unicode="&#xf4;" horiz-adv-x="1298" d="M176 1301l383 354h172l383 -354h-143l-326 231l-326 -231h-143zM102 541v73q0 244 150.5 404t392.5 160q143 0 253 -45.5t173.5 -125t94 -178t30.5 -215.5v-73q0 -248 -151.5 -407t-399.5 -159q-246 0 -394.5 158t-148.5 408zM317 569q0 -203 85 -315.5t243 -112.5 q340 0 340 428v17q0 418 -334 418q-164 0 -249 -109t-85 -309v-17z" />
<glyph unicode="&#xf5;" horiz-adv-x="1298" d="M242 1383q31 63 95 110t150 47q66 0 172 -55q94 -53 168 -53q94 0 142 96l77 -68q-88 -160 -237 -159q-76 0 -182 55q-102 51 -162 51q-98 0 -152 -86zM102 541v73q0 244 150.5 404t392.5 160q143 0 253 -45.5t173.5 -125t94 -178t30.5 -215.5v-73q0 -248 -151.5 -407 t-399.5 -159q-246 0 -394.5 158t-148.5 408zM317 569q0 -203 85 -315.5t243 -112.5q340 0 340 428v17q0 418 -334 418q-164 0 -249 -109t-85 -309v-17z" />
<glyph unicode="&#xf6;" horiz-adv-x="1298" d="M321 1405q0 41 31 72.5t72 31.5t72.5 -31.5t31.5 -72.5q0 -43 -31.5 -74t-72.5 -31q-39 0 -71 31t-32 74zM764 1405q0 41 31.5 72.5t70.5 31.5q41 0 73 -31.5t32 -72.5q0 -43 -32 -74t-73 -31q-39 0 -70.5 31t-31.5 74zM102 541v73q0 244 150.5 404t392.5 160 q143 0 253 -45.5t173.5 -125t94 -178t30.5 -215.5v-73q0 -248 -151.5 -407t-399.5 -159q-246 0 -394.5 158t-148.5 408zM317 569q0 -203 85 -315.5t243 -112.5q340 0 340 428v17q0 418 -334 418q-164 0 -249 -109t-85 -309v-17z" />
<glyph unicode="&#xf7;" horiz-adv-x="1081" d="M117 627v157h848v-157h-848zM424 385q0 51 34 87t83 36q47 0 80.5 -36t33.5 -87q0 -53 -33.5 -90t-80.5 -37q-49 0 -83 37t-34 90zM424 1009.5q0 51.5 34 88.5t83 37q47 0 80.5 -36t33.5 -89q0 -51 -33.5 -88t-80.5 -37q-49 0 -83 36.5t-34 88z" />
<glyph unicode="&#xf9;" d="M215 1655h204l267 -354h-158zM139 336v807h215v-787q0 -209 221 -209q78 0 157 41t130 119v836h215v-1143h-203l-6 156q-57 -80 -157.5 -128t-221.5 -48q-145 0 -247.5 92t-102.5 264z" />
<glyph unicode="&#xfa;" d="M530 1301l267 354h205l-314 -354h-158zM139 336v807h215v-787q0 -209 221 -209q78 0 157 41t130 119v836h215v-1143h-203l-6 156q-57 -80 -157.5 -128t-221.5 -48q-145 0 -247.5 92t-102.5 264z" />
<glyph unicode="&#xfb;" d="M139 1301l383 354h172l383 -354h-143l-326 231l-326 -231h-143zM139 336v807h215v-787q0 -209 221 -209q78 0 157 41t130 119v836h215v-1143h-203l-6 156q-57 -80 -157.5 -128t-221.5 -48q-145 0 -247.5 92t-102.5 264z" />
<glyph unicode="&#xfc;" d="M284 1405q0 41 31 72.5t72 31.5t72.5 -31.5t31.5 -72.5q0 -43 -31.5 -74t-72.5 -31q-39 0 -71 31t-32 74zM727 1405q0 41 31.5 72.5t70.5 31.5q41 0 73 -31.5t32 -72.5q0 -43 -32 -74t-73 -31q-39 0 -70.5 31t-31.5 74zM139 336v807h215v-787q0 -209 221 -209 q78 0 157 41t130 119v836h215v-1143h-203l-6 156q-57 -80 -157.5 -128t-221.5 -48q-145 0 -247.5 92t-102.5 264z" />
<glyph unicode="&#xfd;" horiz-adv-x="1136" d="M489 1301l267 354h205l-314 -354h-158zM2 1143h219l348 -871l359 871h207l-635 -1485h-209l160 373z" />
<glyph unicode="&#xff;" horiz-adv-x="1136" d="M243 1405q0 41 31 72.5t72 31.5t72.5 -31.5t31.5 -72.5q0 -43 -31.5 -74t-72.5 -31q-39 0 -71 31t-32 74zM686 1405q0 41 31.5 72.5t70.5 31.5q41 0 73 -31.5t32 -72.5q0 -43 -32 -74t-73 -31q-39 0 -70.5 31t-31.5 74zM2 1143h219l348 -871l359 871h207l-635 -1485h-209 l160 373z" />
<glyph unicode="&#x100;" horiz-adv-x="1255" d="M268 1653v133h698v-133h-698zM2 0l487 1509h256l508 -1509h-213l-127 391h-569l-129 -391h-213zM387 555h2h2h2h2h2h2h2h2h3h2h2h2h2h2h2h2h2h2h2h2h2h2h2h2h2h2h2h2h2h3h2h2h2h2h2h2h2h2h2h2h2h2h2h2h2h2h2h2h4h3h2h2h2h2h2h4h2h2h2h2h4h2h2h2h4h2h2h5h2h2h2h4h2h2h4h2 h2h4h2h2h4h2h5h2h2h4h2h4h2h4h2h4h2h2h4h2h4h3h4h2h4h2h4h2h4h4h2h4h2h4h3h4h4h2h4h2h4h4h2h4h4h2h4h3h4h4h2h4h4h4h2h4h4h2h4h5h4h2h4h4h4h2h4h4h4h2h4h5h4h4h2h4h4h4h4h4h2h4h4h5h4h4h16l-242 752z" />
<glyph unicode="&#x101;" horiz-adv-x="1179" d="M260 1301v133h698v-133h-698zM78 369v28q0 190 123 294t319 104q207 0 318 -117v139q0 86 -61.5 138.5t-196.5 52.5q-205 0 -347 -82v170q129 78 377 78q211 0 320.5 -105.5t109.5 -259.5v-809h-184l-14 141q-49 -78 -151.5 -116.5t-213.5 -38.5q-178 0 -288.5 98.5 t-110.5 284.5zM285 387q0 -244 268 -244q129 0 207 70t78 172v31q0 102 -79 165.5t-206 63.5q-121 0 -194.5 -62.5t-73.5 -172.5v-23z" />
<glyph unicode="&#x102;" horiz-adv-x="1255" d="M272 1979h147q6 -74 59.5 -123t137.5 -49q86 0 140.5 48t58.5 124h149q0 -139 -103.5 -232.5t-242.5 -93.5q-150 0 -248 93.5t-98 232.5zM2 0l487 1509h256l508 -1509h-213l-127 391h-569l-129 -391h-213zM387 555h2h2h2h2h2h2h2h2h3h2h2h2h2h2h2h2h2h2h2h2h2h2h2h2h2h2 h2h2h2h3h2h2h2h2h2h2h2h2h2h2h2h2h2h2h2h2h2h2h4h3h2h2h2h2h2h4h2h2h2h2h4h2h2h2h4h2h2h5h2h2h2h4h2h2h4h2h2h4h2h2h4h2h5h2h2h4h2h4h2h4h2h4h2h2h4h2h4h3h4h2h4h2h4h2h4h4h2h4h2h4h3h4h4h2h4h2h4h4h2h4h4h2h4h3h4h4h2h4h4h4h2h4h4h2h4h5h4h2h4h4h4h2h4h4h4h2h4h5h4h4h2h4h4 h4h4h4h2h4h4h5h4h4h16l-242 752z" />
<glyph unicode="&#x103;" horiz-adv-x="1179" d="M264 1626h147q6 -74 59.5 -123t137.5 -49q86 0 140.5 48t58.5 124h149q0 -139 -103.5 -232.5t-242.5 -93.5q-150 0 -248 93.5t-98 232.5zM78 369v28q0 190 123 294t319 104q207 0 318 -117v139q0 86 -61.5 138.5t-196.5 52.5q-205 0 -347 -82v170q129 78 377 78 q211 0 320.5 -105.5t109.5 -259.5v-809h-184l-14 141q-49 -78 -151.5 -116.5t-213.5 -38.5q-178 0 -288.5 98.5t-110.5 284.5zM285 387q0 -244 268 -244q129 0 207 70t78 172v31q0 102 -79 165.5t-206 63.5q-121 0 -194.5 -62.5t-73.5 -172.5v-23z" />
<glyph unicode="&#x104;" horiz-adv-x="1255" d="M331 -230q0 109 86 177.5t209 68.5h70v-113h-70q-72 0 -115.5 -33.5t-43.5 -99t43 -101.5t108 -36q25 0 72 14l31 -102q-63 -20 -111 -21q-127 0 -203 61.5t-76 184.5zM2 0l487 1509h256l508 -1509h-213l-127 391h-569l-129 -391h-213zM387 555h2h2h2h2h2h2h2h2h3h2h2h2 h2h2h2h2h2h2h2h2h2h2h2h2h2h2h2h2h2h3h2h2h2h2h2h2h2h2h2h2h2h2h2h2h2h2h2h2h4h3h2h2h2h2h2h4h2h2h2h2h4h2h2h2h4h2h2h5h2h2h2h4h2h2h4h2h2h4h2h2h4h2h5h2h2h4h2h4h2h4h2h4h2h2h4h2h4h3h4h2h4h2h4h2h4h4h2h4h2h4h3h4h4h2h4h2h4h4h2h4h4h2h4h3h4h4h2h4h4h4h2h4h4h2h4h5h4h2h4 h4h4h2h4h4h4h2h4h5h4h4h2h4h4h4h4h4h2h4h4h5h4h4h16l-242 752z" />
<glyph unicode="&#x105;" horiz-adv-x="1179" d="M618 -244q0 109 86 177.5t209 68.5h70v-113h-70q-72 0 -115.5 -33.5t-43.5 -99t43 -101.5t108 -36q25 0 72 14l31 -102q-63 -20 -111 -21q-127 0 -203 61.5t-76 184.5zM78 369v28q0 190 123 294t319 104q207 0 318 -117v139q0 86 -61.5 138.5t-196.5 52.5 q-205 0 -347 -82v170q129 78 377 78q211 0 320.5 -105.5t109.5 -259.5v-809h-184l-14 141q-49 -78 -151.5 -116.5t-213.5 -38.5q-178 0 -288.5 98.5t-110.5 284.5zM285 387q0 -244 268 -244q129 0 207 70t78 172v31q0 102 -79 165.5t-206 63.5q-121 0 -194.5 -62.5 t-73.5 -172.5v-23z" />
<glyph unicode="&#x106;" horiz-adv-x="1169" d="M686 1653l267 354h205l-314 -354h-158zM88 717v61q0 352 177 552t499 200q197 0 323 -49v-193q-8 2 -36.5 12.5t-41.5 13.5l-44 10q-31 7 -58.5 10t-70.5 6t-95 3q-428 0 -428 -585v-21q0 -317 116 -454.5t359 -137.5q158 0 299 66v-170q-102 -66 -352 -66 q-133 0 -246.5 43t-204.5 129t-143.5 231.5t-52.5 338.5z" />
<glyph unicode="&#x107;" horiz-adv-x="1124" d="M550 1303l267 354h205l-314 -354h-158zM102 553v49q0 260 143.5 419t383.5 159q219 0 350 -78v-209q-158 98 -332 98q-147 0 -234 -98t-87 -303v-21q0 -197 87 -302t234 -105q190 0 332 96v-197q-145 -86 -334 -86q-248 0 -395.5 152t-147.5 426z" />
<glyph unicode="&#x108;" horiz-adv-x="1169" d="M295 1653l383 354h172l383 -354h-143l-326 231l-326 -231h-143zM88 717v61q0 352 177 552t499 200q197 0 323 -49v-193q-8 2 -36.5 12.5t-41.5 13.5l-44 10q-31 7 -58.5 10t-70.5 6t-95 3q-428 0 -428 -585v-21q0 -317 116 -454.5t359 -137.5q158 0 299 66v-170 q-102 -66 -352 -66q-133 0 -246.5 43t-204.5 129t-143.5 231.5t-52.5 338.5z" />
<glyph unicode="&#x109;" horiz-adv-x="1124" d="M160 1303l383 354h172l383 -354h-143l-326 231l-326 -231h-143zM102 553v49q0 260 143.5 419t383.5 159q219 0 350 -78v-209q-158 98 -332 98q-147 0 -234 -98t-87 -303v-21q0 -197 87 -302t234 -105q190 0 332 96v-197q-145 -86 -334 -86q-248 0 -395.5 152t-147.5 426z " />
<glyph unicode="&#x10a;" horiz-adv-x="1169" d="M653 1773.5q0 51.5 32 86t79 34.5t79 -34.5t32 -86t-32 -86.5t-79 -35t-79 35t-32 86.5zM88 717v61q0 352 177 552t499 200q197 0 323 -49v-193q-8 2 -36.5 12.5t-41.5 13.5l-44 10q-31 7 -58.5 10t-70.5 6t-95 3q-428 0 -428 -585v-21q0 -317 116 -454.5t359 -137.5 q158 0 299 66v-170q-102 -66 -352 -66q-133 0 -246.5 43t-204.5 129t-143.5 231.5t-52.5 338.5z" />
<glyph unicode="&#x10b;" horiz-adv-x="1124" d="M518 1423.5q0 51.5 32 86t79 34.5t79 -34.5t32 -86t-32 -86.5t-79 -35t-79 35t-32 86.5zM102 553v49q0 260 143.5 419t383.5 159q219 0 350 -78v-209q-158 98 -332 98q-147 0 -234 -98t-87 -303v-21q0 -197 87 -302t234 -105q190 0 332 96v-197q-145 -86 -334 -86 q-248 0 -395.5 152t-147.5 426z" />
<glyph unicode="&#x10c;" horiz-adv-x="1169" d="M295 2007h143l326 -238l326 238h143l-391 -354h-156zM88 717v61q0 352 177 552t499 200q197 0 323 -49v-193q-8 2 -36.5 12.5t-41.5 13.5l-44 10q-31 7 -58.5 10t-70.5 6t-95 3q-428 0 -428 -585v-21q0 -317 116 -454.5t359 -137.5q158 0 299 66v-170q-102 -66 -352 -66 q-133 0 -246.5 43t-204.5 129t-143.5 231.5t-52.5 338.5z" />
<glyph unicode="&#x10d;" horiz-adv-x="1124" d="M160 1657h143l326 -238l326 238h143l-391 -354h-156zM102 553v49q0 260 143.5 419t383.5 159q219 0 350 -78v-209q-158 98 -332 98q-147 0 -234 -98t-87 -303v-21q0 -197 87 -302t234 -105q190 0 332 96v-197q-145 -86 -334 -86q-248 0 -395.5 152t-147.5 426z" />
<glyph unicode="&#x10e;" horiz-adv-x="1359" d="M244 2007h143l326 -238l326 238h143l-391 -354h-156zM168 0v1509h432q309 0 482 -176t173 -549v-61q0 -358 -162.5 -540.5t-455.5 -182.5h-469zM381 166h301q156 0 255 143.5t99 423.5v41q0 270 -112.5 418.5t-286.5 148.5h-256v-1175z" />
<glyph unicode="&#x10f;" horiz-adv-x="1241" d="M1276 1223v287h282v-287q0 -315 -282 -315v127q82 0 117.5 44t35.5 144h-153zM102 494v120q0 266 126 413t350 147q86 0 174 -38t129 -100v473h211v-1509h-199l-19 117q-98 -131 -319 -131q-209 0 -331 129t-122 379zM322 502q0 -360 284 -361q94 0 171 47.5t102 143.5 v502q-37 84 -114 123.5t-159 39.5q-285 0 -284 -407v-88z" />
<glyph unicode="&#x112;" horiz-adv-x="1136" d="M262 1653v133h698v-133h-698zM168 0v1509h887v-168h-676v-493h543v-166h-543v-516h706v-166h-917z" />
<glyph unicode="&#x113;" d="M260 1301v133h698v-133h-698zM102 530v80q0 270 138.5 419t367.5 149q246 0 383 -156t137 -422v-86h-806q0 -184 97 -273t247 -89q184 0 376 92v-178q-152 -90 -391 -91q-238 0 -393.5 144.5t-155.5 410.5zM324 678h587q-2 168 -80.5 245.5t-214.5 77.5 q-129 0 -207.5 -78.5t-84.5 -244.5z" />
<glyph unicode="&#x114;" horiz-adv-x="1136" d="M264 1979h147q6 -74 59.5 -123t137.5 -49q86 0 140.5 48t58.5 124h149q0 -139 -103.5 -232.5t-242.5 -93.5q-150 0 -248 93.5t-98 232.5zM168 0v1509h887v-168h-676v-493h543v-166h-543v-516h706v-166h-917z" />
<glyph unicode="&#x115;" d="M262 1626h147q6 -74 59.5 -123t137.5 -49q86 0 140.5 48t58.5 124h149q0 -139 -103.5 -232.5t-242.5 -93.5q-150 0 -248 93.5t-98 232.5zM102 530v80q0 270 138.5 419t367.5 149q246 0 383 -156t137 -422v-86h-806q0 -184 97 -273t247 -89q184 0 376 92v-178 q-152 -90 -391 -91q-238 0 -393.5 144.5t-155.5 410.5zM324 678h587q-2 168 -80.5 245.5t-214.5 77.5q-129 0 -207.5 -78.5t-84.5 -244.5z" />
<glyph unicode="&#x116;" horiz-adv-x="1136" d="M501 1773.5q0 51.5 32 86t79 34.5t79 -34.5t32 -86t-32 -86.5t-79 -35t-79 35t-32 86.5zM168 0v1509h887v-168h-676v-493h543v-166h-543v-516h706v-166h-917z" />
<glyph unicode="&#x117;" d="M497 1421.5q0 51.5 32 86t79 34.5t79 -34.5t32 -86t-32 -86.5t-79 -35t-79 35t-32 86.5zM102 530v80q0 270 138.5 419t367.5 149q246 0 383 -156t137 -422v-86h-806q0 -184 97 -273t247 -89q184 0 376 92v-178q-152 -90 -391 -91q-238 0 -393.5 144.5t-155.5 410.5z M324 678h587q-2 168 -80.5 245.5t-214.5 77.5q-129 0 -207.5 -78.5t-84.5 -244.5z" />
<glyph unicode="&#x118;" horiz-adv-x="1136" d="M331 -230q0 109 86 177.5t209 68.5h70v-113h-70q-72 0 -115.5 -33.5t-43.5 -99t43 -101.5t108 -36q25 0 72 14l31 -102q-63 -20 -111 -21q-127 0 -203 61.5t-76 184.5zM168 0v1509h887v-168h-676v-493h543v-166h-543v-516h706v-166h-917z" />
<glyph unicode="&#x119;" d="M321 -254q0 109 86 177.5t209 68.5h70v-113h-70q-72 0 -115.5 -33.5t-43.5 -99t43 -101.5t108 -36q25 0 72 14l31 -102q-63 -20 -111 -21q-127 0 -203 61.5t-76 184.5zM102 530v80q0 270 138.5 419t367.5 149q246 0 383 -156t137 -422v-86h-806q0 -184 97 -273t247 -89 q184 0 376 92v-178q-152 -90 -391 -91q-238 0 -393.5 144.5t-155.5 410.5zM324 678h587q-2 168 -80.5 245.5t-214.5 77.5q-129 0 -207.5 -78.5t-84.5 -244.5z" />
<glyph unicode="&#x11a;" horiz-adv-x="1136" d="M141 2007h143l326 -238l326 238h143l-391 -354h-156zM168 0v1509h887v-168h-676v-493h543v-166h-543v-516h706v-166h-917z" />
<glyph unicode="&#x11b;" d="M139 1655h143l326 -238l326 238h143l-391 -354h-156zM102 530v80q0 270 138.5 419t367.5 149q246 0 383 -156t137 -422v-86h-806q0 -184 97 -273t247 -89q184 0 376 92v-178q-152 -90 -391 -91q-238 0 -393.5 144.5t-155.5 410.5zM324 678h587q-2 168 -80.5 245.5 t-214.5 77.5q-129 0 -207.5 -78.5t-84.5 -244.5z" />
<glyph unicode="&#x11c;" horiz-adv-x="1359" d="M262 1655l383 354h172l383 -354h-143l-326 231l-326 -231h-143zM88 717v82q0 334 179 533.5t464 199.5q250 0 387 -59v-201q-168 78 -360 78q-442 0 -443 -570v-43q0 -315 116 -454.5t308 -139.5q172 0 279 78v377h-281v170h496v-618q-190 -174 -512 -175 q-295 0 -464 186.5t-169 555.5z" />
<glyph unicode="&#x11d;" horiz-adv-x="1236" d="M123 1301l383 354h172l383 -354h-143l-326 231l-326 -231h-143zM102 567v33q0 283 129 428.5t361 145.5q90 0 169 -33t122 -90v88h204v-981q0 -256 -130 -391.5t-371 -135.5q-254 0 -383 58v161q168 -61 346 -61q182 0 258 77t76 228v56q-98 -156 -330 -156 q-209 0 -330 145t-121 428zM322 532q0 -389 274 -389q133 0 207 106.5t74 307.5v72q0 188 -57.5 284.5t-217.5 96.5q-131 0 -205.5 -91.5t-74.5 -285.5v-101z" />
<glyph unicode="&#x11e;" horiz-adv-x="1359" d="M385 1981h147q6 -74 59.5 -123t137.5 -49q86 0 140.5 48t58.5 124h149q0 -139 -103.5 -232.5t-242.5 -93.5q-150 0 -248 93.5t-98 232.5zM88 717v82q0 334 179 533.5t464 199.5q250 0 387 -59v-201q-168 78 -360 78q-442 0 -443 -570v-43q0 -315 116 -454.5t308 -139.5 q172 0 279 78v377h-281v170h496v-618q-190 -174 -512 -175q-295 0 -464 186.5t-169 555.5z" />
<glyph unicode="&#x11f;" horiz-adv-x="1236" d="M246 1626h147q6 -74 59.5 -123t137.5 -49q86 0 140.5 48t58.5 124h149q0 -139 -103.5 -232.5t-242.5 -93.5q-150 0 -248 93.5t-98 232.5zM102 567v33q0 283 129 428.5t361 145.5q90 0 169 -33t122 -90v88h204v-981q0 -256 -130 -391.5t-371 -135.5q-254 0 -383 58v161 q168 -61 346 -61q182 0 258 77t76 228v56q-98 -156 -330 -156q-209 0 -330 145t-121 428zM322 532q0 -389 274 -389q133 0 207 106.5t74 307.5v72q0 188 -57.5 284.5t-217.5 96.5q-131 0 -205.5 -91.5t-74.5 -285.5v-101z" />
<glyph unicode="&#x120;" horiz-adv-x="1359" d="M620 1775.5q0 51.5 32 86t79 34.5t79 -34.5t32 -86t-32 -86.5t-79 -35t-79 35t-32 86.5zM88 717v82q0 334 179 533.5t464 199.5q250 0 387 -59v-201q-168 78 -360 78q-442 0 -443 -570v-43q0 -315 116 -454.5t308 -139.5q172 0 279 78v377h-281v170h496v-618 q-190 -174 -512 -175q-295 0 -464 186.5t-169 555.5z" />
<glyph unicode="&#x121;" horiz-adv-x="1236" d="M481 1421.5q0 51.5 32 86t79 34.5t79 -34.5t32 -86t-32 -86.5t-79 -35t-79 35t-32 86.5zM102 567v33q0 283 129 428.5t361 145.5q90 0 169 -33t122 -90v88h204v-981q0 -256 -130 -391.5t-371 -135.5q-254 0 -383 58v161q168 -61 346 -61q182 0 258 77t76 228v56 q-98 -156 -330 -156q-209 0 -330 145t-121 428zM322 532q0 -389 274 -389q133 0 207 106.5t74 307.5v72q0 188 -57.5 284.5t-217.5 96.5q-131 0 -205.5 -91.5t-74.5 -285.5v-101z" />
<glyph unicode="&#x122;" horiz-adv-x="1359" d="M580 -434v287h282v-287q0 -315 -282 -315v127q82 0 117.5 44t35.5 144h-153zM88 717v82q0 334 179 533.5t464 199.5q250 0 387 -59v-201q-168 78 -360 78q-442 0 -443 -570v-43q0 -315 116 -454.5t308 -139.5q172 0 279 78v377h-281v170h496v-618q-190 -174 -512 -175 q-295 0 -464 186.5t-169 555.5z" />
<glyph unicode="&#x124;" horiz-adv-x="1380" d="M221 1653l383 354h172l383 -354h-143l-326 231l-326 -231h-143zM168 0v1509h217v-659h610v659h217v-1509h-217v680h-610v-680h-217z" />
<glyph unicode="&#x125;" d="M149 1633l383 354h172l383 -354h-143l-326 231l-326 -231h-143zM150 0v1509h210v-503q55 70 152.5 119t220.5 49q168 0 261 -94.5t93 -272.5v-807h-215v834q0 70 -56 115.5t-152 45.5q-78 0 -168 -46t-131 -122v-827h-215z" />
<glyph unicode="&#x128;" horiz-adv-x="569" d="M-118 1735q31 63 95 110t150 47q66 0 172 -55q94 -53 168 -53q94 0 142 96l77 -68q-88 -160 -237 -159q-76 0 -182 55q-102 51 -162 51q-98 0 -152 -86zM176 0v1509h217v-1509h-217z" />
<glyph unicode="&#x129;" horiz-adv-x="536" d="M-135 1717q31 63 95 110t150 47q66 0 172 -55q94 -53 168 -53q94 0 142 96l77 -68q-88 -160 -237 -159q-76 0 -182 55q-102 51 -162 51q-98 0 -152 -86zM150 1268v243h237v-243h-237zM166 0v1149h211v-1149h-211z" />
<glyph unicode="&#x12a;" horiz-adv-x="569" d="M-63 1653v133h698v-133h-698zM176 0v1509h217v-1509h-217z" />
<glyph unicode="&#x12b;" horiz-adv-x="536" d="M-80 1635v133h698v-133h-698zM150 1268v243h237v-243h-237zM166 0v1149h211v-1149h-211z" />
<glyph unicode="&#x12c;" horiz-adv-x="569" d="M-61 1979h147q6 -74 59.5 -123t137.5 -49q86 0 140.5 48t58.5 124h149q0 -139 -103.5 -232.5t-242.5 -93.5q-150 0 -248 93.5t-98 232.5zM176 0v1509h217v-1509h-217z" />
<glyph unicode="&#x12d;" horiz-adv-x="536" d="M-78 1960h147q6 -74 59.5 -123t137.5 -49q86 0 140.5 48t58.5 124h149q0 -139 -103.5 -232.5t-242.5 -93.5q-150 0 -248 93.5t-98 232.5zM150 1268v243h237v-243h-237zM166 0v1149h211v-1149h-211z" />
<glyph unicode="&#x12e;" horiz-adv-x="569" d="M-45 -230q0 109 86 177.5t209 68.5h70v-113h-70q-72 0 -115.5 -33.5t-43.5 -99t43 -101.5t108 -36q25 0 72 14l31 -102q-63 -20 -111 -21q-127 0 -203 61.5t-76 184.5zM176 0v1509h217v-1509h-217z" />
<glyph unicode="&#x12f;" horiz-adv-x="536" d="M-58 -230q0 109 86 177.5t209 68.5h70v-113h-70q-72 0 -115.5 -33.5t-43.5 -99t43 -101.5t108 -36q25 0 72 14l31 -102q-63 -20 -111 -21q-127 0 -203 61.5t-76 184.5zM150 1268v243h237v-243h-237zM166 0v1149h211v-1149h-211z" />
<glyph unicode="&#x130;" horiz-adv-x="569" d="M174 1773.5q0 51.5 32 86t79 34.5t79 -34.5t32 -86t-32 -86.5t-79 -35t-79 35t-32 86.5zM176 0v1509h217v-1509h-217z" />
<glyph unicode="&#x131;" horiz-adv-x="536" d="M166 0v1149h211v-1149h-211z" />
<glyph unicode="&#x132;" horiz-adv-x="1523" d="M659 37v186q117 -55 277 -55q92 0 141 60.5t49 170.5v1110h217v-1118q0 -190 -94 -297.5t-254 -107.5q-250 0 -336 51zM176 0v1509h217v-1509h-217z" />
<glyph unicode="&#x133;" horiz-adv-x="1062" d="M367 -164q90 -25 203 -24q76 0 107.5 42t31.5 146v1149h209v-1167q0 -166 -93 -252t-220 -86t-238 32v160zM693 1268v243h239v-243h-239zM150 1268v243h237v-243h-237zM166 0v1149h211v-1149h-211z" />
<glyph unicode="&#x134;" horiz-adv-x="954" d="M197 1653l383 354h172l383 -354h-143l-326 231l-326 -231h-143zM90 37v186q117 -55 277 -55q92 0 141 60.5t49 170.5v1110h217v-1118q0 -190 -94 -297.5t-254 -107.5q-250 0 -336 51z" />
<glyph unicode="&#x135;" horiz-adv-x="526" d="M-195 1635l383 354h172l383 -354h-143l-326 231l-326 -231h-143zM-170 -164q90 -25 203 -24q76 0 107.5 42t31.5 146v1149h209v-1167q0 -166 -93 -252t-220 -86t-238 32v160zM156 1268v243h239v-243h-239z" />
<glyph unicode="&#x136;" horiz-adv-x="1339" d="M611 -410v287h282v-287q0 -315 -282 -315v127q82 0 117.5 44t35.5 144h-153zM168 0v1509h217v-764l608 764h234l-510 -645l620 -864h-256l-499 698l-197 -229v-469h-217z" />
<glyph unicode="&#x137;" horiz-adv-x="1128" d="M488 -410v287h282v-287q0 -315 -282 -315v127q82 0 117.5 44t35.5 144h-153zM150 0v1509h210v-802l445 444h242l-490 -489l553 -662h-258l-453 543l-32 -27v-516h-217z" />
<glyph unicode="&#x139;" horiz-adv-x="1044" d="M198 1653l267 354h205l-314 -354h-158zM168 0v1509h217v-1341h621v-168h-838z" />
<glyph unicode="&#x13a;" horiz-adv-x="522" d="M182 1633l267 354h205l-314 -354h-158zM156 0v1509h211v-1509h-211z" />
<glyph unicode="&#x13b;" horiz-adv-x="1044" d="M447 -410v287h282v-287q0 -315 -282 -315v127q82 0 117.5 44t35.5 144h-153zM168 0v1509h217v-1341h621v-168h-838z" />
<glyph unicode="&#x13c;" horiz-adv-x="522" d="M119 -410v287h282v-287q0 -315 -282 -315v127q82 0 117.5 44t35.5 144h-153zM156 0v1509h211v-1509h-211z" />
<glyph unicode="&#x13d;" horiz-adv-x="1044" d="M1190 1243v287h282v-287q0 -315 -282 -315v127q82 0 117.5 44t35.5 144h-153zM168 0v1509h217v-1341h621v-168h-838z" />
<glyph unicode="&#x13e;" horiz-adv-x="522" d="M445 1223v287h282v-287q0 -315 -282 -315v127q82 0 117.5 44t35.5 144h-153zM156 0v1509h211v-1509h-211z" />
<glyph unicode="&#x143;" horiz-adv-x="1437" d="M641 1653l267 354h205l-314 -354h-158zM168 0v1509h141l760 -1103v1103h201v-1509h-146l-755 1087v-1087h-201z" />
<glyph unicode="&#x144;" d="M538 1301l267 354h205l-314 -354h-158zM150 0v1141h202l6 -148q43 70 145.5 125.5t229.5 55.5q156 0 255 -93.5t99 -273.5v-807h-215v840q0 76 -58 120t-155 44q-76 0 -160.5 -42t-133.5 -122v-840h-215z" />
<glyph unicode="&#x145;" horiz-adv-x="1437" d="M578 -410v287h282v-287q0 -315 -282 -315v127q82 0 117.5 44t35.5 144h-153zM168 0v1509h141l760 -1103v1103h201v-1509h-146l-755 1087v-1087h-201z" />
<glyph unicode="&#x146;" d="M478 -410v287h282v-287q0 -315 -282 -315v127q82 0 117.5 44t35.5 144h-153zM150 0v1141h202l6 -148q43 70 145.5 125.5t229.5 55.5q156 0 255 -93.5t99 -273.5v-807h-215v840q0 76 -58 120t-155 44q-76 0 -160.5 -42t-133.5 -122v-840h-215z" />
<glyph unicode="&#x147;" horiz-adv-x="1437" d="M250 2007h143l326 -238l326 238h143l-391 -354h-156zM168 0v1509h141l760 -1103v1103h201v-1509h-146l-755 1087v-1087h-201z" />
<glyph unicode="&#x148;" d="M149 1655h143l326 -238l326 238h143l-391 -354h-156zM150 0v1141h202l6 -148q43 70 145.5 125.5t229.5 55.5q156 0 255 -93.5t99 -273.5v-807h-215v840q0 76 -58 120t-155 44q-76 0 -160.5 -42t-133.5 -122v-840h-215z" />
<glyph unicode="&#x14c;" horiz-adv-x="1366" d="M338 1653v133h698v-133h-698zM90 702v86q0 350 150.5 546t447.5 196q598 0 598 -742v-81q0 -731 -598 -732q-279 0 -438.5 180t-159.5 547zM313 731q0 -326 92.5 -463t282.5 -137q129 0 208 50t123 183.5t44 362.5v41q0 307 -86 450.5t-289 143.5q-201 0 -288 -136 t-87 -458v-37z" />
<glyph unicode="&#x14d;" horiz-adv-x="1298" d="M297 1301v133h698v-133h-698zM102 541v73q0 244 150.5 404t392.5 160q143 0 253 -45.5t173.5 -125t94 -178t30.5 -215.5v-73q0 -248 -151.5 -407t-399.5 -159q-246 0 -394.5 158t-148.5 408zM317 569q0 -203 85 -315.5t243 -112.5q340 0 340 428v17q0 418 -334 418 q-164 0 -249 -109t-85 -309v-17z" />
<glyph unicode="&#x14e;" horiz-adv-x="1366" d="M342 1979h147q6 -74 59.5 -123t137.5 -49q86 0 140.5 48t58.5 124h149q0 -139 -103.5 -232.5t-242.5 -93.5q-150 0 -248 93.5t-98 232.5zM90 702v86q0 350 150.5 546t447.5 196q598 0 598 -742v-81q0 -731 -598 -732q-279 0 -438.5 180t-159.5 547zM313 731 q0 -326 92.5 -463t282.5 -137q129 0 208 50t123 183.5t44 362.5v41q0 307 -86 450.5t-289 143.5q-201 0 -288 -136t-87 -458v-37z" />
<glyph unicode="&#x14f;" horiz-adv-x="1298" d="M299 1626h147q6 -74 59.5 -123t137.5 -49q86 0 140.5 48t58.5 124h149q0 -139 -103.5 -232.5t-242.5 -93.5q-150 0 -248 93.5t-98 232.5zM102 541v73q0 244 150.5 404t392.5 160q143 0 253 -45.5t173.5 -125t94 -178t30.5 -215.5v-73q0 -248 -151.5 -407t-399.5 -159 q-246 0 -394.5 158t-148.5 408zM317 569q0 -203 85 -315.5t243 -112.5q340 0 340 428v17q0 418 -334 418q-164 0 -249 -109t-85 -309v-17z" />
<glyph unicode="&#x150;" horiz-adv-x="1366" d="M420 1653l240 354h163l-274 -354h-129zM830 1653l239 354h162l-274 -354h-127zM90 702v86q0 350 150.5 546t447.5 196q598 0 598 -742v-81q0 -731 -598 -732q-279 0 -438.5 180t-159.5 547zM313 731q0 -326 92.5 -463t282.5 -137q129 0 208 50t123 183.5t44 362.5v41 q0 307 -86 450.5t-289 143.5q-201 0 -288 -136t-87 -458v-37z" />
<glyph unicode="&#x151;" horiz-adv-x="1298" d="M377 1301l240 354h163l-274 -354h-129zM787 1301l239 354h162l-274 -354h-127zM102 541v73q0 244 150.5 404t392.5 160q143 0 253 -45.5t173.5 -125t94 -178t30.5 -215.5v-73q0 -248 -151.5 -407t-399.5 -159q-246 0 -394.5 158t-148.5 408zM317 569q0 -203 85 -315.5 t243 -112.5q340 0 340 428v17q0 418 -334 418q-164 0 -249 -109t-85 -309v-17z" />
<glyph unicode="&#x152;" horiz-adv-x="2502" d="M1534 0v1509h887v-168h-676v-493h543v-166h-543v-516h706v-166h-917zM90 702v86q0 350 150.5 546t447.5 196q598 0 598 -742v-81q0 -731 -598 -732q-279 0 -438.5 180t-159.5 547zM313 731q0 -326 92.5 -463t282.5 -137q129 0 208 50t123 183.5t44 362.5v41 q0 307 -86 450.5t-289 143.5q-201 0 -288 -136t-87 -458v-37z" />
<glyph unicode="&#x153;" horiz-adv-x="2525" d="M1400 530v80q0 270 138.5 419t367.5 149q246 0 383 -156t137 -422v-86h-806q0 -184 97 -273t247 -89q184 0 376 92v-178q-152 -90 -391 -91q-238 0 -393.5 144.5t-155.5 410.5zM1622 678h587q-2 168 -80.5 245.5t-214.5 77.5q-129 0 -207.5 -78.5t-84.5 -244.5zM102 541 v73q0 244 150.5 404t392.5 160q143 0 253 -45.5t173.5 -125t94 -178t30.5 -215.5v-73q0 -248 -151.5 -407t-399.5 -159q-246 0 -394.5 158t-148.5 408zM317 569q0 -203 85 -315.5t243 -112.5q340 0 340 428v17q0 418 -334 418q-164 0 -249 -109t-85 -309v-17z" />
<glyph unicode="&#x154;" horiz-adv-x="1251" d="M374 1653l267 354h205l-314 -354h-158zM168 0v1509h573q172 0 272.5 -97t100.5 -228v-82q0 -135 -72.5 -220t-218.5 -106q115 -27 185.5 -103.5t108.5 -241.5t38 -431h-221q-2 360 -71.5 521t-213.5 161h-264v-682h-217zM385 850h289q115 0 170 62.5t55 158.5v41 q0 100 -54 158.5t-153 58.5h-307v-479z" />
<glyph unicode="&#x155;" horiz-adv-x="987" d="M473 1301l267 354h205l-314 -354h-158zM150 0v1141h202l6 -125q33 68 114 113t190 45q147 0 227 -98q65 -79 65 -186q0 -25 -4 -50h-184v13q0 74 -41 113q-45 42 -129 42q-78 0 -141.5 -40t-89.5 -102v-866h-215z" />
<glyph unicode="&#x156;" horiz-adv-x="1251" d="M521 -410v287h282v-287q0 -315 -282 -315v127q82 0 117.5 44t35.5 144h-153zM168 0v1509h573q172 0 272.5 -97t100.5 -228v-82q0 -135 -72.5 -220t-218.5 -106q115 -27 185.5 -103.5t108.5 -241.5t38 -431h-221q-2 360 -71.5 521t-213.5 161h-264v-682h-217zM385 850h289 q115 0 170 62.5t55 158.5v41q0 100 -54 158.5t-153 58.5h-307v-479z" />
<glyph unicode="&#x157;" horiz-adv-x="987" d="M115 -410v287h282v-287q0 -315 -282 -315v127q82 0 117.5 44t35.5 144h-153zM150 0v1141h202l6 -125q33 68 114 113t190 45q147 0 227 -98q65 -79 65 -186q0 -25 -4 -50h-184v13q0 74 -41 113q-45 42 -129 42q-78 0 -141.5 -40t-89.5 -102v-866h-215z" />
<glyph unicode="&#x158;" horiz-adv-x="1251" d="M-14 2007h143l326 -238l326 238h143l-391 -354h-156zM168 0v1509h573q172 0 272.5 -97t100.5 -228v-82q0 -135 -72.5 -220t-218.5 -106q115 -27 185.5 -103.5t108.5 -241.5t38 -431h-221q-2 360 -71.5 521t-213.5 161h-264v-682h-217zM385 850h289q115 0 170 62.5 t55 158.5v41q0 100 -54 158.5t-153 58.5h-307v-479z" />
<glyph unicode="&#x159;" horiz-adv-x="987" d="M82 1655h143l326 -238l326 238h143l-391 -354h-156zM150 0v1141h202l6 -125q33 68 114 113t190 45q147 0 227 -98q65 -79 65 -186q0 -25 -4 -50h-184v13q0 74 -41 113q-45 42 -129 42q-78 0 -141.5 -40t-89.5 -102v-866h-215z" />
<glyph unicode="&#x15a;" horiz-adv-x="1155" d="M579 1653l267 354h205l-314 -354h-158zM61 47v201q158 -94 449 -94q188 0 275 63.5t87 157.5q0 90 -68.5 155.5t-254.5 137.5q-233 90 -331.5 191.5t-98.5 256.5q0 182 142 298t396 116q201 0 351 -57v-179q-217 53 -365 54q-160 0 -235.5 -57.5t-75.5 -133.5 q0 -106 57 -164.5t262 -138.5q225 -88 329.5 -189.5t104.5 -265.5q0 -203 -149.5 -311t-433.5 -108q-265 -1 -441 67z" />
<glyph unicode="&#x15b;" horiz-adv-x="897" d="M407 1301l267 354h205l-314 -354h-158zM63 39v170q133 -78 345 -78q250 0 249 180q0 78 -63.5 123t-216.5 92q-152 45 -221.5 114t-69.5 198q0 147 101.5 239t297.5 92q162 0 287 -59v-176q-104 61 -270 61q-225 0 -226 -129q0 -76 47.5 -110.5t200.5 -83.5 q162 -51 241 -125t79 -211q0 -176 -111.5 -268.5t-320.5 -92.5q-245 1 -349 64z" />
<glyph unicode="&#x15c;" horiz-adv-x="1155" d="M188 1653l383 354h172l383 -354h-143l-326 231l-326 -231h-143zM61 47v201q158 -94 449 -94q188 0 275 63.5t87 157.5q0 90 -68.5 155.5t-254.5 137.5q-233 90 -331.5 191.5t-98.5 256.5q0 182 142 298t396 116q201 0 351 -57v-179q-217 53 -365 54q-160 0 -235.5 -57.5 t-75.5 -133.5q0 -106 57 -164.5t262 -138.5q225 -88 329.5 -189.5t104.5 -265.5q0 -203 -149.5 -311t-433.5 -108q-265 -1 -441 67z" />
<glyph unicode="&#x15d;" horiz-adv-x="897" d="M16 1301l383 354h172l383 -354h-143l-326 231l-326 -231h-143zM63 39v170q133 -78 345 -78q250 0 249 180q0 78 -63.5 123t-216.5 92q-152 45 -221.5 114t-69.5 198q0 147 101.5 239t297.5 92q162 0 287 -59v-176q-104 61 -270 61q-225 0 -226 -129q0 -76 47.5 -110.5 t200.5 -83.5q162 -51 241 -125t79 -211q0 -176 -111.5 -268.5t-320.5 -92.5q-245 1 -349 64z" />
<glyph unicode="&#x15e;" horiz-adv-x="1155" d="M409 -369q47 -20 109 -20q59 0 97 30.5t38 81.5q0 113 -137 113h-68v160h109v-74q106 0 166.5 -50.5t60.5 -140.5q0 -98 -72.5 -157.5t-177.5 -59.5q-78 0 -125 17v100zM61 47v201q158 -94 449 -94q188 0 275 63.5t87 157.5q0 90 -68.5 155.5t-254.5 137.5 q-233 90 -331.5 191.5t-98.5 256.5q0 182 142 298t396 116q201 0 351 -57v-179q-217 53 -365 54q-160 0 -235.5 -57.5t-75.5 -133.5q0 -106 57 -164.5t262 -138.5q225 -88 329.5 -189.5t104.5 -265.5q0 -203 -149.5 -311t-433.5 -108q-265 -1 -441 67z" />
<glyph unicode="&#x15f;" horiz-adv-x="897" d="M319 -373q47 -20 109 -20q59 0 97 30.5t38 81.5q0 113 -137 113h-68v160h109v-74q106 0 166.5 -50.5t60.5 -140.5q0 -98 -72.5 -157.5t-177.5 -59.5q-78 0 -125 17v100zM63 39v170q133 -78 345 -78q250 0 249 180q0 78 -63.5 123t-216.5 92q-152 45 -221.5 114t-69.5 198 q0 147 101.5 239t297.5 92q162 0 287 -59v-176q-104 61 -270 61q-225 0 -226 -129q0 -76 47.5 -110.5t200.5 -83.5q162 -51 241 -125t79 -211q0 -176 -111.5 -268.5t-320.5 -92.5q-245 1 -349 64z" />
<glyph unicode="&#x160;" horiz-adv-x="1155" d="M188 2007h143l326 -238l326 238h143l-391 -354h-156zM61 47v201q158 -94 449 -94q188 0 275 63.5t87 157.5q0 90 -68.5 155.5t-254.5 137.5q-233 90 -331.5 191.5t-98.5 256.5q0 182 142 298t396 116q201 0 351 -57v-179q-217 53 -365 54q-160 0 -235.5 -57.5 t-75.5 -133.5q0 -106 57 -164.5t262 -138.5q225 -88 329.5 -189.5t104.5 -265.5q0 -203 -149.5 -311t-433.5 -108q-265 -1 -441 67z" />
<glyph unicode="&#x161;" horiz-adv-x="897" d="M16 1655h143l326 -238l326 238h143l-391 -354h-156zM63 39v170q133 -78 345 -78q250 0 249 180q0 78 -63.5 123t-216.5 92q-152 45 -221.5 114t-69.5 198q0 147 101.5 239t297.5 92q162 0 287 -59v-176q-104 61 -270 61q-225 0 -226 -129q0 -76 47.5 -110.5t200.5 -83.5 q162 -51 241 -125t79 -211q0 -176 -111.5 -268.5t-320.5 -92.5q-245 1 -349 64z" />
<glyph unicode="&#x162;" horiz-adv-x="983" d="M397 -348q47 -20 109 -20q59 0 97 30.5t38 81.5q0 113 -137 113h-68v160h109v-74q106 0 166.5 -50.5t60.5 -140.5q0 -98 -72.5 -157.5t-177.5 -59.5q-78 0 -125 17v100zM10 1331v178h963v-178h-373v-1331h-217v1331h-373z" />
<glyph unicode="&#x163;" horiz-adv-x="829" d="M467 -358q47 -20 109 -20q59 0 97 30.5t38 81.5q0 113 -137 113h-68v160h109v-74q106 0 166.5 -50.5t60.5 -140.5q0 -98 -72.5 -157.5t-177.5 -59.5q-78 0 -125 17v100zM20 979v149l193 9l53 331h156v-340h342v-151h-342v-643q0 -182 186 -182q70 0 164 22v-154 q-82 -31 -213 -30q-178 0 -262 91t-84 308v590h-193z" />
<glyph unicode="&#x164;" horiz-adv-x="983" d="M23 2007h143l326 -238l326 238h143l-391 -354h-156zM10 1331v178h963v-178h-373v-1331h-217v1331h-373z" />
<glyph unicode="&#x165;" horiz-adv-x="829" d="M502 1182v287h282v-287q0 -315 -282 -315v127q82 0 117.5 44t35.5 144h-153zM20 979v149l193 9l53 331h156v-340h342v-151h-342v-643q0 -182 186 -182q70 0 164 22v-154q-82 -31 -213 -30q-178 0 -262 91t-84 308v590h-193z" />
<glyph unicode="&#x168;" horiz-adv-x="1302" d="M258 1735q31 63 95 110t150 47q66 0 172 -55q94 -53 168 -53q94 0 142 96l77 -68q-88 -160 -237 -159q-76 0 -182 55q-102 51 -162 51q-98 0 -152 -86zM147 522v987h218v-1028q0 -139 68.5 -231t223.5 -92q152 0 228 70.5t76 258.5v1022h210v-1044q0 -223 -132 -353 t-379.5 -130t-380 138t-132.5 402z" />
<glyph unicode="&#x169;" d="M205 1383q31 63 95 110t150 47q66 0 172 -55q94 -53 168 -53q94 0 142 96l77 -68q-88 -160 -237 -159q-76 0 -182 55q-102 51 -162 51q-98 0 -152 -86zM139 336v807h215v-787q0 -209 221 -209q78 0 157 41t130 119v836h215v-1143h-203l-6 156q-57 -80 -157.5 -128 t-221.5 -48q-145 0 -247.5 92t-102.5 264z" />
<glyph unicode="&#x16a;" horiz-adv-x="1302" d="M309 1653v133h698v-133h-698zM147 522v987h218v-1028q0 -139 68.5 -231t223.5 -92q152 0 228 70.5t76 258.5v1022h210v-1044q0 -223 -132 -353t-379.5 -130t-380 138t-132.5 402z" />
<glyph unicode="&#x16b;" d="M260 1301v133h698v-133h-698zM139 336v807h215v-787q0 -209 221 -209q78 0 157 41t130 119v836h215v-1143h-203l-6 156q-57 -80 -157.5 -128t-221.5 -48q-145 0 -247.5 92t-102.5 264z" />
<glyph unicode="&#x16c;" horiz-adv-x="1302" d="M313 1979h147q6 -74 59.5 -123t137.5 -49q86 0 140.5 48t58.5 124h149q0 -139 -103.5 -232.5t-242.5 -93.5q-150 0 -248 93.5t-98 232.5zM147 522v987h218v-1028q0 -139 68.5 -231t223.5 -92q152 0 228 70.5t76 258.5v1022h210v-1044q0 -223 -132 -353t-379.5 -130 t-380 138t-132.5 402z" />
<glyph unicode="&#x16d;" d="M262 1626h147q6 -74 59.5 -123t137.5 -49q86 0 140.5 48t58.5 124h149q0 -139 -103.5 -232.5t-242.5 -93.5q-150 0 -248 93.5t-98 232.5zM139 336v807h215v-787q0 -209 221 -209q78 0 157 41t130 119v836h215v-1143h-203l-6 156q-57 -80 -157.5 -128t-221.5 -48 q-145 0 -247.5 92t-102.5 264z" />
<glyph unicode="&#x16e;" horiz-adv-x="1302" d="M405 1914.5q0 112.5 76 187.5t178 75t179 -75t77 -187.5t-77 -187t-179 -74.5t-178 74.5t-76 187zM503 1915q0 -74 45 -121t111 -47t111 46t45 121.5t-45 122t-111 46.5t-111 -46t-45 -122zM147 522v987h218v-1028q0 -139 68.5 -231t223.5 -92q152 0 228 70.5t76 258.5 v1022h210v-1044q0 -223 -132 -353t-379.5 -130t-380 138t-132.5 402z" />
<glyph unicode="&#x16f;" d="M352 1562.5q0 112.5 76 187.5t178 75t179 -75t77 -187.5t-77 -187t-179 -74.5t-178 74.5t-76 187zM450 1563q0 -74 45 -121t111 -47t111 46t45 121.5t-45 122t-111 46.5t-111 -46t-45 -122zM139 336v807h215v-787q0 -209 221 -209q78 0 157 41t130 119v836h215v-1143 h-203l-6 156q-57 -80 -157.5 -128t-221.5 -48q-145 0 -247.5 92t-102.5 264z" />
<glyph unicode="&#x170;" horiz-adv-x="1302" d="M391 1653l240 354h163l-274 -354h-129zM801 1653l239 354h162l-274 -354h-127zM147 522v987h218v-1028q0 -139 68.5 -231t223.5 -92q152 0 228 70.5t76 258.5v1022h210v-1044q0 -223 -132 -353t-379.5 -130t-380 138t-132.5 402z" />
<glyph unicode="&#x171;" d="M340 1301l240 354h163l-274 -354h-129zM750 1301l239 354h162l-274 -354h-127zM139 336v807h215v-787q0 -209 221 -209q78 0 157 41t130 119v836h215v-1143h-203l-6 156q-57 -80 -157.5 -128t-221.5 -48q-145 0 -247.5 92t-102.5 264z" />
<glyph unicode="&#x172;" horiz-adv-x="1302" d="M329 -248q0 109 86 177.5t209 68.5h70v-113h-70q-72 0 -115.5 -33.5t-43.5 -99t43 -101.5t108 -36q25 0 72 14l31 -102q-63 -20 -111 -21q-127 0 -203 61.5t-76 184.5zM147 522v987h218v-1028q0 -139 68.5 -231t223.5 -92q152 0 228 70.5t76 258.5v1022h210v-1044 q0 -223 -132 -353t-379.5 -130t-380 138t-132.5 402z" />
<glyph unicode="&#x173;" d="M639 -250q0 109 86 177.5t209 68.5h70v-113h-70q-72 0 -115.5 -33.5t-43.5 -99t43 -101.5t108 -36q25 0 72 14l31 -102q-63 -20 -111 -21q-127 0 -203 61.5t-76 184.5zM139 336v807h215v-787q0 -209 221 -209q78 0 157 41t130 119v836h215v-1143h-203l-6 156 q-57 -80 -157.5 -128t-221.5 -48q-145 0 -247.5 92t-102.5 264z" />
<glyph unicode="&#x174;" horiz-adv-x="1875" d="M465 1653l383 354h172l383 -354h-143l-326 231l-326 -231h-143zM4 1509h229l293 -1276l310 1276h202l303 -1276l304 1276h221l-418 -1509h-242l-280 1184l-297 -1184h-242z" />
<glyph unicode="&#x175;" horiz-adv-x="1736" d="M399 1301l383 354h172l383 -354h-143l-326 231l-326 -231h-143zM2 1143h217l260 -887l305 887h162l285 -887l301 887h203l-414 -1143h-184l-279 834l-299 -834h-184z" />
<glyph unicode="&#x176;" horiz-adv-x="1327" d="M197 1653l383 354h172l383 -354h-143l-326 231l-326 -231h-143zM10 1509h223l441 -766l438 766h209l-543 -952v-557h-217v545z" />
<glyph unicode="&#x177;" horiz-adv-x="1136" d="M100 1301l383 354h172l383 -354h-143l-326 231l-326 -231h-143zM2 1143h219l348 -871l359 871h207l-635 -1485h-209l160 373z" />
<glyph unicode="&#x178;" horiz-adv-x="1327" d="M342 1757q0 41 31 72.5t72 31.5t72.5 -31.5t31.5 -72.5q0 -43 -31.5 -74t-72.5 -31q-39 0 -71 31t-32 74zM785 1757q0 41 31.5 72.5t70.5 31.5q41 0 73 -31.5t32 -72.5q0 -43 -32 -74t-73 -31q-39 0 -70.5 31t-31.5 74zM10 1509h223l441 -766l438 766h209l-543 -952v-557 h-217v545z" />
<glyph unicode="&#x179;" horiz-adv-x="1107" d="M493 1653l267 354h205l-314 -354h-158zM57 0v190l783 1143h-754v176h971v-194l-789 -1137h811v-178h-1022z" />
<glyph unicode="&#x17a;" horiz-adv-x="999" d="M411 1301l267 354h205l-314 -354h-158zM41 0v166l649 805h-639v159h881v-147l-664 -825h690v-158h-917z" />
<glyph unicode="&#x17b;" horiz-adv-x="1107" d="M460 1773.5q0 51.5 32 86t79 34.5t79 -34.5t32 -86t-32 -86.5t-79 -35t-79 35t-32 86.5zM57 0v190l783 1143h-754v176h971v-194l-789 -1137h811v-178h-1022z" />
<glyph unicode="&#x17c;" horiz-adv-x="999" d="M380 1421.5q0 51.5 32 86t79 34.5t79 -34.5t32 -86t-32 -86.5t-79 -35t-79 35t-32 86.5zM41 0v166l649 805h-639v159h881v-147l-664 -825h690v-158h-917z" />
<glyph unicode="&#x17d;" horiz-adv-x="1107" d="M102 2007h143l326 -238l326 238h143l-391 -354h-156zM57 0v190l783 1143h-754v176h971v-194l-789 -1137h811v-178h-1022z" />
<glyph unicode="&#x17e;" horiz-adv-x="999" d="M23 1655h143l326 -238l326 238h143l-391 -354h-156zM41 0v166l649 805h-639v159h881v-147l-664 -825h690v-158h-917z" />
<glyph unicode="&#x17f;" horiz-adv-x="897" d="M63 39v170q133 -78 345 -78q250 0 249 180q0 78 -63.5 123t-216.5 92q-152 45 -221.5 114t-69.5 198q0 147 101.5 239t297.5 92q162 0 287 -59v-176q-104 61 -270 61q-225 0 -226 -129q0 -76 47.5 -110.5t200.5 -83.5q162 -51 241 -125t79 -211q0 -176 -111.5 -268.5 t-320.5 -92.5q-245 1 -349 64z" />
<glyph unicode="&#x182;" horiz-adv-x="1398" d="M932 0v176q92 0 142 58.5t50 150.5v104q0 100 -67.5 165t-161.5 65h-295v-719h-217v1331h-373v178h1100v-178h-510v-434h309q203 0 314.5 -113.5t111.5 -298.5v-94q0 -168 -107.5 -279.5t-295.5 -111.5z" />
<glyph unicode="&#x192;" horiz-adv-x="837" d="M-43 -295l61 148q57 -49 146 -50q145 0 145 185v786h-149v129h149v268q0 156 96.5 257.5t231.5 101.5q150 0 240 -60l-64 -155q-66 51 -143 51q-158 0 -158 -178v-285h281v-129h-281v-772q0 -162 -88 -259t-227 -97q-156 0 -240 59z" />
<glyph unicode="&#x1a0;" horiz-adv-x="1366" d="M750 1243v287h282v-287q0 -315 -282 -315v127q82 0 117.5 44t35.5 144h-153zM90 702v86q0 350 150.5 546t447.5 196q598 0 598 -742v-81q0 -731 -598 -732q-279 0 -438.5 180t-159.5 547zM313 731q0 -326 92.5 -463t282.5 -137q129 0 208 50t123 183.5t44 362.5v41 q0 307 -86 450.5t-289 143.5q-201 0 -288 -136t-87 -458v-37z" />
<glyph unicode="&#x1a1;" horiz-adv-x="1298" d="M707 891v287h282v-287q0 -315 -282 -315v127q82 0 117.5 44t35.5 144h-153zM102 541v73q0 244 150.5 404t392.5 160q143 0 253 -45.5t173.5 -125t94 -178t30.5 -215.5v-73q0 -248 -151.5 -407t-399.5 -159q-246 0 -394.5 158t-148.5 408zM317 569q0 -203 85 -315.5 t243 -112.5q340 0 340 428v17q0 418 -334 418q-164 0 -249 -109t-85 -309v-17z" />
<glyph unicode="&#x1af;" horiz-adv-x="1302" d="M1233 1243v287h282v-287q0 -315 -282 -315v127q82 0 117.5 44t35.5 144h-153zM147 522v987h218v-1028q0 -139 68.5 -231t223.5 -92q152 0 228 70.5t76 258.5v1022h210v-1044q0 -223 -132 -353t-379.5 -130t-380 138t-132.5 402z" />
<glyph unicode="&#x1b0;" d="M1139 891v287h282v-287q0 -315 -282 -315v127q82 0 117.5 44t35.5 144h-153zM139 336v807h215v-787q0 -209 221 -209q78 0 157 41t130 119v836h215v-1143h-203l-6 156q-57 -80 -157.5 -128t-221.5 -48q-145 0 -247.5 92t-102.5 264z" />
<glyph unicode="&#x1c0;" horiz-adv-x="851" d="M338 -410v1921h176v-1921h-176z" />
<glyph unicode="&#x1c1;" horiz-adv-x="1703" d="M1190 -410v1921h176v-1921h-176zM338 -410v1921h176v-1921h-176z" />
<glyph unicode="&#x1c4;" horiz-adv-x="2467" d="M1462 2007h143l326 -238l326 238h143l-391 -354h-156zM1417 0v190l783 1143h-754v176h971v-194l-789 -1137h811v-178h-1022zM168 0v1509h432q309 0 482 -176t173 -549v-61q0 -358 -162.5 -540.5t-455.5 -182.5h-469zM381 166h301q156 0 255 143.5t99 423.5v41 q0 270 -112.5 418.5t-286.5 148.5h-256v-1175z" />
<glyph unicode="&#x1c5;" horiz-adv-x="2359" d="M1383 1655h143l326 -238l326 238h143l-391 -354h-156zM1401 0v166l649 805h-639v159h881v-147l-664 -825h690v-158h-917zM168 0v1509h432q309 0 482 -176t173 -549v-61q0 -358 -162.5 -540.5t-455.5 -182.5h-469zM381 166h301q156 0 255 143.5t99 423.5v41 q0 270 -112.5 418.5t-286.5 148.5h-256v-1175z" />
<glyph unicode="&#x1c6;" horiz-adv-x="2240" d="M1264 1655h143l326 -238l326 238h143l-391 -354h-156zM1282 0v166l649 805h-639v159h881v-147l-664 -825h690v-158h-917zM102 494v120q0 266 126 413t350 147q86 0 174 -38t129 -100v473h211v-1509h-199l-19 117q-98 -131 -319 -131q-209 0 -331 129t-122 379zM322 502 q0 -360 284 -361q94 0 171 47.5t102 143.5v502q-37 84 -114 123.5t-159 39.5q-285 0 -284 -407v-88z" />
<glyph unicode="&#x1c7;" horiz-adv-x="1998" d="M1134 37v186q117 -55 277 -55q92 0 141 60.5t49 170.5v1110h217v-1118q0 -190 -94 -297.5t-254 -107.5q-250 0 -336 51zM168 0v1509h217v-1341h621v-168h-838z" />
<glyph unicode="&#x1c8;" horiz-adv-x="1570" d="M874 -164q90 -25 203 -24q76 0 107.5 42t31.5 146v1149h209v-1167q0 -166 -93 -252t-220 -86t-238 32v160zM1200 1268v243h239v-243h-239zM168 0v1509h217v-1341h621v-168h-838z" />
<glyph unicode="&#x1c9;" horiz-adv-x="1048" d="M352 -164q90 -25 203 -24q76 0 107.5 42t31.5 146v1149h209v-1167q0 -166 -93 -252t-220 -86t-238 32v160zM678 1268v243h239v-243h-239zM156 0v1509h211v-1509h-211z" />
<glyph unicode="&#x1ca;" horiz-adv-x="2392" d="M1528 37v186q117 -55 277 -55q92 0 141 60.5t49 170.5v1110h217v-1118q0 -190 -94 -297.5t-254 -107.5q-250 0 -336 51zM168 0v1509h141l760 -1103v1103h201v-1509h-146l-755 1087v-1087h-201z" />
<glyph unicode="&#x1cb;" horiz-adv-x="1964" d="M1268 -164q90 -25 203 -24q76 0 107.5 42t31.5 146v1149h209v-1167q0 -166 -93 -252t-220 -86t-238 32v160zM1594 1268v243h239v-243h-239zM168 0v1509h141l760 -1103v1103h201v-1509h-146l-755 1087v-1087h-201z" />
<glyph unicode="&#x1cc;" horiz-adv-x="1753" d="M1057 -164q90 -25 203 -24q76 0 107.5 42t31.5 146v1149h209v-1167q0 -166 -93 -252t-220 -86t-238 32v160zM1383 1268v243h239v-243h-239zM150 0v1141h202l6 -148q43 70 145.5 125.5t229.5 55.5q156 0 255 -93.5t99 -273.5v-807h-215v840q0 76 -58 120t-155 44 q-76 0 -160.5 -42t-133.5 -122v-840h-215z" />
<glyph unicode="&#x1cd;" horiz-adv-x="1255" d="M149 2007h143l326 -238l326 238h143l-391 -354h-156zM2 0l487 1509h256l508 -1509h-213l-127 391h-569l-129 -391h-213zM387 555h2h2h2h2h2h2h2h2h3h2h2h2h2h2h2h2h2h2h2h2h2h2h2h2h2h2h2h2h2h3h2h2h2h2h2h2h2h2h2h2h2h2h2h2h2h2h2h2h4h3h2h2h2h2h2h4h2h2h2h2h4h2h2h2h4 h2h2h5h2h2h2h4h2h2h4h2h2h4h2h2h4h2h5h2h2h4h2h4h2h4h2h4h2h2h4h2h4h3h4h2h4h2h4h2h4h4h2h4h2h4h3h4h4h2h4h2h4h4h2h4h4h2h4h3h4h4h2h4h4h4h2h4h4h2h4h5h4h2h4h4h4h2h4h4h4h2h4h5h4h4h2h4h4h4h4h4h2h4h4h5h4h4h16l-242 752z" />
<glyph unicode="&#x1ce;" horiz-adv-x="1179" d="M141 1655h143l326 -238l326 238h143l-391 -354h-156zM78 369v28q0 190 123 294t319 104q207 0 318 -117v139q0 86 -61.5 138.5t-196.5 52.5q-205 0 -347 -82v170q129 78 377 78q211 0 320.5 -105.5t109.5 -259.5v-809h-184l-14 141q-49 -78 -151.5 -116.5t-213.5 -38.5 q-178 0 -288.5 98.5t-110.5 284.5zM285 387q0 -244 268 -244q129 0 207 70t78 172v31q0 102 -79 165.5t-206 63.5q-121 0 -194.5 -62.5t-73.5 -172.5v-23z" />
<glyph unicode="&#x1cf;" horiz-adv-x="569" d="M-184 2007h143l326 -238l326 238h143l-391 -354h-156zM176 0v1509h217v-1509h-217z" />
<glyph unicode="&#x1d0;" horiz-adv-x="536" d="M-199 1655h143l326 -238l326 238h143l-391 -354h-156zM166 0v1149h211v-1149h-211z" />
<glyph unicode="&#x1d1;" horiz-adv-x="1366" d="M219 2007h143l326 -238l326 238h143l-391 -354h-156zM90 702v86q0 350 150.5 546t447.5 196q598 0 598 -742v-81q0 -731 -598 -732q-279 0 -438.5 180t-159.5 547zM313 731q0 -326 92.5 -463t282.5 -137q129 0 208 50t123 183.5t44 362.5v41q0 307 -86 450.5t-289 143.5 q-201 0 -288 -136t-87 -458v-37z" />
<glyph unicode="&#x1d2;" horiz-adv-x="1298" d="M176 1655h143l326 -238l326 238h143l-391 -354h-156zM102 541v73q0 244 150.5 404t392.5 160q143 0 253 -45.5t173.5 -125t94 -178t30.5 -215.5v-73q0 -248 -151.5 -407t-399.5 -159q-246 0 -394.5 158t-148.5 408zM317 569q0 -203 85 -315.5t243 -112.5q340 0 340 428 v17q0 418 -334 418q-164 0 -249 -109t-85 -309v-17z" />
<glyph unicode="&#x1d3;" horiz-adv-x="1302" d="M190 2007h143l326 -238l326 238h143l-391 -354h-156zM147 522v987h218v-1028q0 -139 68.5 -231t223.5 -92q152 0 228 70.5t76 258.5v1022h210v-1044q0 -223 -132 -353t-379.5 -130t-380 138t-132.5 402z" />
<glyph unicode="&#x1d4;" d="M139 1655h143l326 -238l326 238h143l-391 -354h-156zM139 336v807h215v-787q0 -209 221 -209q78 0 157 41t130 119v836h215v-1143h-203l-6 156q-57 -80 -157.5 -128t-221.5 -48q-145 0 -247.5 92t-102.5 264z" />
<glyph unicode="&#x1d5;" horiz-adv-x="1302" d="M309 1985v133h698v-133h-698zM333 1757q0 41 31 72.5t72 31.5t72.5 -31.5t31.5 -72.5q0 -43 -31.5 -74t-72.5 -31q-39 0 -71 31t-32 74zM776 1757q0 41 31.5 72.5t70.5 31.5q41 0 73 -31.5t32 -72.5q0 -43 -32 -74t-73 -31q-39 0 -70.5 31t-31.5 74zM147 522v987h218 v-1028q0 -139 68.5 -231t223.5 -92q152 0 228 70.5t76 258.5v1022h210v-1044q0 -223 -132 -353t-379.5 -130t-380 138t-132.5 402z" />
<glyph unicode="&#x1d6;" d="M258 1633v133h698v-133h-698zM284 1405q0 41 31 72.5t72 31.5t72.5 -31.5t31.5 -72.5q0 -43 -31.5 -74t-72.5 -31q-39 0 -71 31t-32 74zM727 1405q0 41 31.5 72.5t70.5 31.5q41 0 73 -31.5t32 -72.5q0 -43 -32 -74t-73 -31q-39 0 -70.5 31t-31.5 74zM139 336v807h215 v-787q0 -209 221 -209q78 0 157 41t130 119v836h215v-1143h-203l-6 156q-57 -80 -157.5 -128t-221.5 -48q-145 0 -247.5 92t-102.5 264z" />
<glyph unicode="&#x1d7;" horiz-adv-x="1302" d="M579 1985l267 354h205l-314 -354h-158zM333 1757q0 41 31 72.5t72 31.5t72.5 -31.5t31.5 -72.5q0 -43 -31.5 -74t-72.5 -31q-39 0 -71 31t-32 74zM776 1757q0 41 31.5 72.5t70.5 31.5q41 0 73 -31.5t32 -72.5q0 -43 -32 -74t-73 -31q-39 0 -70.5 31t-31.5 74zM147 522 v987h218v-1028q0 -139 68.5 -231t223.5 -92q152 0 228 70.5t76 258.5v1022h210v-1044q0 -223 -132 -353t-379.5 -130t-380 138t-132.5 402z" />
<glyph unicode="&#x1d8;" d="M528 1633l267 354h205l-314 -354h-158zM284 1405q0 41 31 72.5t72 31.5t72.5 -31.5t31.5 -72.5q0 -43 -31.5 -74t-72.5 -31q-39 0 -71 31t-32 74zM727 1405q0 41 31.5 72.5t70.5 31.5q41 0 73 -31.5t32 -72.5q0 -43 -32 -74t-73 -31q-39 0 -70.5 31t-31.5 74zM139 336 v807h215v-787q0 -209 221 -209q78 0 157 41t130 119v836h215v-1143h-203l-6 156q-57 -80 -157.5 -128t-221.5 -48q-145 0 -247.5 92t-102.5 264z" />
<glyph unicode="&#x1d9;" horiz-adv-x="1302" d="M190 2339h143l326 -238l326 238h143l-391 -354h-156zM333 1757q0 41 31 72.5t72 31.5t72.5 -31.5t31.5 -72.5q0 -43 -31.5 -74t-72.5 -31q-39 0 -71 31t-32 74zM776 1757q0 41 31.5 72.5t70.5 31.5q41 0 73 -31.5t32 -72.5q0 -43 -32 -74t-73 -31q-39 0 -70.5 31 t-31.5 74zM147 522v987h218v-1028q0 -139 68.5 -231t223.5 -92q152 0 228 70.5t76 258.5v1022h210v-1044q0 -223 -132 -353t-379.5 -130t-380 138t-132.5 402z" />
<glyph unicode="&#x1da;" d="M137 1987h143l326 -238l326 238h143l-391 -354h-156zM284 1405q0 41 31 72.5t72 31.5t72.5 -31.5t31.5 -72.5q0 -43 -31.5 -74t-72.5 -31q-39 0 -71 31t-32 74zM727 1405q0 41 31.5 72.5t70.5 31.5q41 0 73 -31.5t32 -72.5q0 -43 -32 -74t-73 -31q-39 0 -70.5 31 t-31.5 74zM139 336v807h215v-787q0 -209 221 -209q78 0 157 41t130 119v836h215v-1143h-203l-6 156q-57 -80 -157.5 -128t-221.5 -48q-145 0 -247.5 92t-102.5 264z" />
<glyph unicode="&#x1db;" horiz-adv-x="1302" d="M267 2339h204l267 -354h-158zM333 1757q0 41 31 72.5t72 31.5t72.5 -31.5t31.5 -72.5q0 -43 -31.5 -74t-72.5 -31q-39 0 -71 31t-32 74zM776 1757q0 41 31.5 72.5t70.5 31.5q41 0 73 -31.5t32 -72.5q0 -43 -32 -74t-73 -31q-39 0 -70.5 31t-31.5 74zM147 522v987h218 v-1028q0 -139 68.5 -231t223.5 -92q152 0 228 70.5t76 258.5v1022h210v-1044q0 -223 -132 -353t-379.5 -130t-380 138t-132.5 402z" />
<glyph unicode="&#x1dc;" d="M215 1987h204l267 -354h-158zM284 1405q0 41 31 72.5t72 31.5t72.5 -31.5t31.5 -72.5q0 -43 -31.5 -74t-72.5 -31q-39 0 -71 31t-32 74zM727 1405q0 41 31.5 72.5t70.5 31.5q41 0 73 -31.5t32 -72.5q0 -43 -32 -74t-73 -31q-39 0 -70.5 31t-31.5 74zM139 336v807h215 v-787q0 -209 221 -209q78 0 157 41t130 119v836h215v-1143h-203l-6 156q-57 -80 -157.5 -128t-221.5 -48q-145 0 -247.5 92t-102.5 264z" />
<glyph unicode="&#x1de;" horiz-adv-x="1255" d="M268 1985v133h698v-133h-698zM292 1757q0 41 31 72.5t72 31.5t72.5 -31.5t31.5 -72.5q0 -43 -31.5 -74t-72.5 -31q-39 0 -71 31t-32 74zM735 1757q0 41 31.5 72.5t70.5 31.5q41 0 73 -31.5t32 -72.5q0 -43 -32 -74t-73 -31q-39 0 -70.5 31t-31.5 74zM2 0l487 1509h256 l508 -1509h-213l-127 391h-569l-129 -391h-213zM387 555h2h2h2h2h2h2h2h2h3h2h2h2h2h2h2h2h2h2h2h2h2h2h2h2h2h2h2h2h2h3h2h2h2h2h2h2h2h2h2h2h2h2h2h2h2h2h2h2h4h3h2h2h2h2h2h4h2h2h2h2h4h2h2h2h4h2h2h5h2h2h2h4h2h2h4h2h2h4h2h2h4h2h5h2h2h4h2h4h2h4h2h4h2h2h4h2h4h3h4h2 h4h2h4h2h4h4h2h4h2h4h3h4h4h2h4h2h4h4h2h4h4h2h4h3h4h4h2h4h4h4h2h4h4h2h4h5h4h2h4h4h4h2h4h4h4h2h4h5h4h4h2h4h4h4h4h4h2h4h4h5h4h4h16l-242 752z" />
<glyph unicode="&#x1df;" horiz-adv-x="1179" d="M260 1633v133h698v-133h-698zM284 1405q0 41 31 72.5t72 31.5t72.5 -31.5t31.5 -72.5q0 -43 -31.5 -74t-72.5 -31q-39 0 -71 31t-32 74zM727 1405q0 41 31.5 72.5t70.5 31.5q41 0 73 -31.5t32 -72.5q0 -43 -32 -74t-73 -31q-39 0 -70.5 31t-31.5 74zM78 369v28 q0 190 123 294t319 104q207 0 318 -117v139q0 86 -61.5 138.5t-196.5 52.5q-205 0 -347 -82v170q129 78 377 78q211 0 320.5 -105.5t109.5 -259.5v-809h-184l-14 141q-49 -78 -151.5 -116.5t-213.5 -38.5q-178 0 -288.5 98.5t-110.5 284.5zM285 387q0 -244 268 -244 q129 0 207 70t78 172v31q0 102 -79 165.5t-206 63.5q-121 0 -194.5 -62.5t-73.5 -172.5v-23z" />
<glyph unicode="&#x1e6;" horiz-adv-x="1359" d="M262 2009h143l326 -238l326 238h143l-391 -354h-156zM88 717v82q0 334 179 533.5t464 199.5q250 0 387 -59v-201q-168 78 -360 78q-442 0 -443 -570v-43q0 -315 116 -454.5t308 -139.5q172 0 279 78v377h-281v170h496v-618q-190 -174 -512 -175q-295 0 -464 186.5 t-169 555.5z" />
<glyph unicode="&#x1e7;" horiz-adv-x="1236" d="M123 1655h143l326 -238l326 238h143l-391 -354h-156zM102 567v33q0 283 129 428.5t361 145.5q90 0 169 -33t122 -90v88h204v-981q0 -256 -130 -391.5t-371 -135.5q-254 0 -383 58v161q168 -61 346 -61q182 0 258 77t76 228v56q-98 -156 -330 -156q-209 0 -330 145 t-121 428zM322 532q0 -389 274 -389q133 0 207 106.5t74 307.5v72q0 188 -57.5 284.5t-217.5 96.5q-131 0 -205.5 -91.5t-74.5 -285.5v-101z" />
<glyph unicode="&#x1e8;" horiz-adv-x="1339" d="M227 2007h143l326 -238l326 238h143l-391 -354h-156zM168 0v1509h217v-764l608 764h234l-510 -645l620 -864h-256l-499 698l-197 -229v-469h-217z" />
<glyph unicode="&#x1e9;" horiz-adv-x="1128" d="M-215 1987h143l326 -238l326 238h143l-391 -354h-156zM150 0v1509h210v-802l445 444h242l-490 -489l553 -662h-258l-453 543l-32 -27v-516h-217z" />
<glyph unicode="&#x1ea;" horiz-adv-x="1366" d="M358 -254q0 109 86 177.5t209 68.5h70v-113h-70q-72 0 -115.5 -33.5t-43.5 -99t43 -101.5t108 -36q25 0 72 14l31 -102q-63 -20 -111 -21q-127 0 -203 61.5t-76 184.5zM90 702v86q0 350 150.5 546t447.5 196q598 0 598 -742v-81q0 -731 -598 -732q-279 0 -438.5 180 t-159.5 547zM313 731q0 -326 92.5 -463t282.5 -137q129 0 208 50t123 183.5t44 362.5v41q0 307 -86 450.5t-289 143.5q-201 0 -288 -136t-87 -458v-37z" />
<glyph unicode="&#x1eb;" horiz-adv-x="1298" d="M315 -254q0 109 86 177.5t209 68.5h70v-113h-70q-72 0 -115.5 -33.5t-43.5 -99t43 -101.5t108 -36q25 0 72 14l31 -102q-63 -20 -111 -21q-127 0 -203 61.5t-76 184.5zM102 541v73q0 244 150.5 404t392.5 160q143 0 253 -45.5t173.5 -125t94 -178t30.5 -215.5v-73 q0 -248 -151.5 -407t-399.5 -159q-246 0 -394.5 158t-148.5 408zM317 569q0 -203 85 -315.5t243 -112.5q340 0 340 428v17q0 418 -334 418q-164 0 -249 -109t-85 -309v-17z" />
<glyph unicode="&#x1ec;" horiz-adv-x="1366" d="M338 1653v133h698v-133h-698zM358 -254q0 109 86 177.5t209 68.5h70v-113h-70q-72 0 -115.5 -33.5t-43.5 -99t43 -101.5t108 -36q25 0 72 14l31 -102q-63 -20 -111 -21q-127 0 -203 61.5t-76 184.5zM90 702v86q0 350 150.5 546t447.5 196q598 0 598 -742v-81 q0 -731 -598 -732q-279 0 -438.5 180t-159.5 547zM313 731q0 -326 92.5 -463t282.5 -137q129 0 208 50t123 183.5t44 362.5v41q0 307 -86 450.5t-289 143.5q-201 0 -288 -136t-87 -458v-37z" />
<glyph unicode="&#x1ed;" horiz-adv-x="1298" d="M297 1301v133h698v-133h-698zM315 -254q0 109 86 177.5t209 68.5h70v-113h-70q-72 0 -115.5 -33.5t-43.5 -99t43 -101.5t108 -36q25 0 72 14l31 -102q-63 -20 -111 -21q-127 0 -203 61.5t-76 184.5zM102 541v73q0 244 150.5 404t392.5 160q143 0 253 -45.5t173.5 -125 t94 -178t30.5 -215.5v-73q0 -248 -151.5 -407t-399.5 -159q-246 0 -394.5 158t-148.5 408zM317 569q0 -203 85 -315.5t243 -112.5q340 0 340 428v17q0 418 -334 418q-164 0 -249 -109t-85 -309v-17z" />
<glyph unicode="&#x1f0;" horiz-adv-x="526" d="M-195 1989h143l326 -238l326 238h143l-391 -354h-156zM-170 -164q90 -25 203 -24q76 0 107.5 42t31.5 146v1149h209v-1167q0 -166 -93 -252t-220 -86t-238 32v160zM156 1268v243h239v-243h-239z" />
<glyph unicode="&#x1f1;" horiz-adv-x="2467" d="M1417 0v190l783 1143h-754v176h971v-194l-789 -1137h811v-178h-1022zM168 0v1509h432q309 0 482 -176t173 -549v-61q0 -358 -162.5 -540.5t-455.5 -182.5h-469zM381 166h301q156 0 255 143.5t99 423.5v41q0 270 -112.5 418.5t-286.5 148.5h-256v-1175z" />
<glyph unicode="&#x1f2;" horiz-adv-x="2359" d="M1401 0v166l649 805h-639v159h881v-147l-664 -825h690v-158h-917zM168 0v1509h432q309 0 482 -176t173 -549v-61q0 -358 -162.5 -540.5t-455.5 -182.5h-469zM381 166h301q156 0 255 143.5t99 423.5v41q0 270 -112.5 418.5t-286.5 148.5h-256v-1175z" />
<glyph unicode="&#x1f3;" horiz-adv-x="2240" d="M1282 0v166l649 805h-639v159h881v-147l-664 -825h690v-158h-917zM102 494v120q0 266 126 413t350 147q86 0 174 -38t129 -100v473h211v-1509h-199l-19 117q-98 -131 -319 -131q-209 0 -331 129t-122 379zM322 502q0 -360 284 -361q94 0 171 47.5t102 143.5v502 q-37 84 -114 123.5t-159 39.5q-285 0 -284 -407v-88z" />
<glyph unicode="&#x1f4;" horiz-adv-x="1359" d="M653 1655l267 354h205l-314 -354h-158zM88 717v82q0 334 179 533.5t464 199.5q250 0 387 -59v-201q-168 78 -360 78q-442 0 -443 -570v-43q0 -315 116 -454.5t308 -139.5q172 0 279 78v377h-281v170h496v-618q-190 -174 -512 -175q-295 0 -464 186.5t-169 555.5z" />
<glyph unicode="&#x1f5;" horiz-adv-x="1236" d="M514 1301l267 354h205l-314 -354h-158zM102 567v33q0 283 129 428.5t361 145.5q90 0 169 -33t122 -90v88h204v-981q0 -256 -130 -391.5t-371 -135.5q-254 0 -383 58v161q168 -61 346 -61q182 0 258 77t76 228v56q-98 -156 -330 -156q-209 0 -330 145t-121 428zM322 532 q0 -389 274 -389q133 0 207 106.5t74 307.5v72q0 188 -57.5 284.5t-217.5 96.5q-131 0 -205.5 -91.5t-74.5 -285.5v-101z" />
<glyph unicode="&#x1f8;" horiz-adv-x="1437" d="M326 2007h204l267 -354h-158zM168 0v1509h141l760 -1103v1103h201v-1509h-146l-755 1087v-1087h-201z" />
<glyph unicode="&#x1f9;" d="M228 1655h204l267 -354h-158zM150 0v1141h202l6 -148q43 70 145.5 125.5t229.5 55.5q156 0 255 -93.5t99 -273.5v-807h-215v840q0 76 -58 120t-155 44q-76 0 -160.5 -42t-133.5 -122v-840h-215z" />
<glyph unicode="&#x1fa;" horiz-adv-x="1255" d="M538 2159l267 354h205l-314 -354h-158zM362 1773.5q0 112.5 76 187.5t178 75t179 -75t77 -187.5t-77 -187t-179 -74.5t-178 74.5t-76 187zM460 1774q0 -74 45 -121t111 -47t111 46t45 121.5t-45 122t-111 46.5t-111 -46t-45 -122zM2 0l487 1509h256l508 -1509h-213 l-127 391h-569l-129 -391h-213zM387 555h2h2h2h2h2h2h2h2h3h2h2h2h2h2h2h2h2h2h2h2h2h2h2h2h2h2h2h2h2h3h2h2h2h2h2h2h2h2h2h2h2h2h2h2h2h2h2h2h4h3h2h2h2h2h2h4h2h2h2h2h4h2h2h2h4h2h2h5h2h2h2h4h2h2h4h2h2h4h2h2h4h2h5h2h2h4h2h4h2h4h2h4h2h2h4h2h4h3h4h2h4h2h4h2h4h4h2h4 h2h4h3h4h4h2h4h2h4h4h2h4h4h2h4h3h4h4h2h4h4h4h2h4h4h2h4h5h4h2h4h4h4h2h4h4h4h2h4h5h4h4h2h4h4h4h4h4h2h4h4h5h4h4h16l-242 752z" />
<glyph unicode="&#x1fb;" horiz-adv-x="1179" d="M530 1948l267 354h205l-314 -354h-158zM356 1562.5q0 112.5 76 187.5t178 75t179 -75t77 -187.5t-77 -187t-179 -74.5t-178 74.5t-76 187zM454 1563q0 -74 45 -121t111 -47t111 46t45 121.5t-45 122t-111 46.5t-111 -46t-45 -122zM78 369v28q0 190 123 294t319 104 q207 0 318 -117v139q0 86 -61.5 138.5t-196.5 52.5q-205 0 -347 -82v170q129 78 377 78q211 0 320.5 -105.5t109.5 -259.5v-809h-184l-14 141q-49 -78 -151.5 -116.5t-213.5 -38.5q-178 0 -288.5 98.5t-110.5 284.5zM285 387q0 -244 268 -244q129 0 207 70t78 172v31 q0 102 -79 165.5t-206 63.5q-121 0 -194.5 -62.5t-73.5 -172.5v-23z" />
<glyph unicode="&#x202;" horiz-adv-x="1255" d="M272 1652h147q6 74 59.5 123t137.5 49q86 0 140.5 -48t58.5 -124h149q0 139 -103.5 232.5t-242.5 93.5q-150 0 -248 -93.5t-98 -232.5zM2 0l487 1509h256l508 -1509h-213l-127 391h-569l-129 -391h-213zM387 555h2h2h2h2h2h2h2h2h3h2h2h2h2h2h2h2h2h2h2h2h2h2h2h2h2h2h2 h2h2h3h2h2h2h2h2h2h2h2h2h2h2h2h2h2h2h2h2h2h4h3h2h2h2h2h2h4h2h2h2h2h4h2h2h2h4h2h2h5h2h2h2h4h2h2h4h2h2h4h2h2h4h2h5h2h2h4h2h4h2h4h2h4h2h2h4h2h4h3h4h2h4h2h4h2h4h4h2h4h2h4h3h4h4h2h4h2h4h4h2h4h4h2h4h3h4h4h2h4h4h4h2h4h4h2h4h5h4h2h4h4h4h2h4h4h4h2h4h5h4h4h2h4h4h4 h4h4h2h4h4h5h4h4h16l-242 752z" />
<glyph unicode="&#x203;" horiz-adv-x="1179" d="M264 1300h147q6 74 59.5 123t137.5 49q86 0 140.5 -48t58.5 -124h149q0 139 -103.5 232.5t-242.5 93.5q-150 0 -248 -93.5t-98 -232.5zM78 369v28q0 190 123 294t319 104q207 0 318 -117v139q0 86 -61.5 138.5t-196.5 52.5q-205 0 -347 -82v170q129 78 377 78 q211 0 320.5 -105.5t109.5 -259.5v-809h-184l-14 141q-49 -78 -151.5 -116.5t-213.5 -38.5q-178 0 -288.5 98.5t-110.5 284.5zM285 387q0 -244 268 -244q129 0 207 70t78 172v31q0 102 -79 165.5t-206 63.5q-121 0 -194.5 -62.5t-73.5 -172.5v-23z" />
<glyph unicode="&#x206;" horiz-adv-x="1136" d="M264 1652h147q6 74 59.5 123t137.5 49q86 0 140.5 -48t58.5 -124h149q0 139 -103.5 232.5t-242.5 93.5q-150 0 -248 -93.5t-98 -232.5zM168 0v1509h887v-168h-676v-493h543v-166h-543v-516h706v-166h-917z" />
<glyph unicode="&#x207;" d="M262 1300h147q6 74 59.5 123t137.5 49q86 0 140.5 -48t58.5 -124h149q0 139 -103.5 232.5t-242.5 93.5q-150 0 -248 -93.5t-98 -232.5zM102 530v80q0 270 138.5 419t367.5 149q246 0 383 -156t137 -422v-86h-806q0 -184 97 -273t247 -89q184 0 376 92v-178 q-152 -90 -391 -91q-238 0 -393.5 144.5t-155.5 410.5zM324 678h587q-2 168 -80.5 245.5t-214.5 77.5q-129 0 -207.5 -78.5t-84.5 -244.5z" />
<glyph unicode="&#x20a;" horiz-adv-x="569" d="M-61 1652h147q6 74 59.5 123t137.5 49q86 0 140.5 -48t58.5 -124h149q0 139 -103.5 232.5t-242.5 93.5q-150 0 -248 -93.5t-98 -232.5zM176 0v1509h217v-1509h-217z" />
<glyph unicode="&#x20b;" horiz-adv-x="536" d="M-76 1300h147q6 74 59.5 123t137.5 49q86 0 140.5 -48t58.5 -124h149q0 139 -103.5 232.5t-242.5 93.5q-150 0 -248 -93.5t-98 -232.5zM166 0v1149h211v-1149h-211z" />
<glyph unicode="&#x20e;" horiz-adv-x="1366" d="M342 1652h147q6 74 59.5 123t137.5 49q86 0 140.5 -48t58.5 -124h149q0 139 -103.5 232.5t-242.5 93.5q-150 0 -248 -93.5t-98 -232.5zM90 702v86q0 350 150.5 546t447.5 196q598 0 598 -742v-81q0 -731 -598 -732q-279 0 -438.5 180t-159.5 547zM313 731 q0 -326 92.5 -463t282.5 -137q129 0 208 50t123 183.5t44 362.5v41q0 307 -86 450.5t-289 143.5q-201 0 -288 -136t-87 -458v-37z" />
<glyph unicode="&#x20f;" horiz-adv-x="1298" d="M299 1300h147q6 74 59.5 123t137.5 49q86 0 140.5 -48t58.5 -124h149q0 139 -103.5 232.5t-242.5 93.5q-150 0 -248 -93.5t-98 -232.5zM102 541v73q0 244 150.5 404t392.5 160q143 0 253 -45.5t173.5 -125t94 -178t30.5 -215.5v-73q0 -248 -151.5 -407t-399.5 -159 q-246 0 -394.5 158t-148.5 408zM317 569q0 -203 85 -315.5t243 -112.5q340 0 340 428v17q0 418 -334 418q-164 0 -249 -109t-85 -309v-17z" />
<glyph unicode="&#x212;" horiz-adv-x="1251" d="M109 1652h147q6 74 59.5 123t137.5 49q86 0 140.5 -48t58.5 -124h149q0 139 -103.5 232.5t-242.5 93.5q-150 0 -248 -93.5t-98 -232.5zM168 0v1509h573q172 0 272.5 -97t100.5 -228v-82q0 -135 -72.5 -220t-218.5 -106q115 -27 185.5 -103.5t108.5 -241.5t38 -431h-221 q-2 360 -71.5 521t-213.5 161h-264v-682h-217zM385 850h289q115 0 170 62.5t55 158.5v41q0 100 -54 158.5t-153 58.5h-307v-479z" />
<glyph unicode="&#x213;" horiz-adv-x="987" d="M205 1300h147q6 74 59.5 123t137.5 49q86 0 140.5 -48t58.5 -124h149q0 139 -103.5 232.5t-242.5 93.5q-150 0 -248 -93.5t-98 -232.5zM150 0v1141h202l6 -125q33 68 114 113t190 45q147 0 227 -98q65 -79 65 -186q0 -25 -4 -50h-184v13q0 74 -41 113q-45 42 -129 42 q-78 0 -141.5 -40t-89.5 -102v-866h-215z" />
<glyph unicode="&#x216;" horiz-adv-x="1302" d="M313 1652h147q6 74 59.5 123t137.5 49q86 0 140.5 -48t58.5 -124h149q0 139 -103.5 232.5t-242.5 93.5q-150 0 -248 -93.5t-98 -232.5zM147 522v987h218v-1028q0 -139 68.5 -231t223.5 -92q152 0 228 70.5t76 258.5v1022h210v-1044q0 -223 -132 -353t-379.5 -130 t-380 138t-132.5 402z" />
<glyph unicode="&#x217;" d="M262 1300h147q6 74 59.5 123t137.5 49q86 0 140.5 -48t58.5 -124h149q0 139 -103.5 232.5t-242.5 93.5q-150 0 -248 -93.5t-98 -232.5zM139 336v807h215v-787q0 -209 221 -209q78 0 157 41t130 119v836h215v-1143h-203l-6 156q-57 -80 -157.5 -128t-221.5 -48 q-145 0 -247.5 92t-102.5 264z" />
<glyph unicode="&#x218;" horiz-adv-x="1155" d="M361 -430v287h282v-287q0 -315 -282 -315v127q82 0 117.5 44t35.5 144h-153zM61 47v201q158 -94 449 -94q188 0 275 63.5t87 157.5q0 90 -68.5 155.5t-254.5 137.5q-233 90 -331.5 191.5t-98.5 256.5q0 182 142 298t396 116q201 0 351 -57v-179q-217 53 -365 54 q-160 0 -235.5 -57.5t-75.5 -133.5q0 -106 57 -164.5t262 -138.5q225 -88 329.5 -189.5t104.5 -265.5q0 -203 -149.5 -311t-433.5 -108q-265 -1 -441 67z" />
<glyph unicode="&#x219;" horiz-adv-x="897" d="M271 -434v287h282v-287q0 -315 -282 -315v127q82 0 117.5 44t35.5 144h-153zM63 39v170q133 -78 345 -78q250 0 249 180q0 78 -63.5 123t-216.5 92q-152 45 -221.5 114t-69.5 198q0 147 101.5 239t297.5 92q162 0 287 -59v-176q-104 61 -270 61q-225 0 -226 -129 q0 -76 47.5 -110.5t200.5 -83.5q162 -51 241 -125t79 -211q0 -176 -111.5 -268.5t-320.5 -92.5q-245 1 -349 64z" />
<glyph unicode="&#x21a;" horiz-adv-x="983" d="M351 -410v287h282v-287q0 -315 -282 -315v127q82 0 117.5 44t35.5 144h-153zM10 1331v178h963v-178h-373v-1331h-217v1331h-373z" />
<glyph unicode="&#x21b;" horiz-adv-x="829" d="M418 -420v287h282v-287q0 -315 -282 -315v127q82 0 117.5 44t35.5 144h-153zM20 979v149l193 9l53 331h156v-340h342v-151h-342v-643q0 -182 186 -182q70 0 164 22v-154q-82 -31 -213 -30q-178 0 -262 91t-84 308v590h-193z" />
<glyph unicode="&#x21e;" horiz-adv-x="1380" d="M221 2007h143l326 -238l326 238h143l-391 -354h-156zM168 0v1509h217v-659h610v659h217v-1509h-217v680h-610v-680h-217z" />
<glyph unicode="&#x21f;" d="M149 1987h143l326 -238l326 238h143l-391 -354h-156zM150 0v1509h210v-503q55 70 152.5 119t220.5 49q168 0 261 -94.5t93 -272.5v-807h-215v834q0 70 -56 115.5t-152 45.5q-78 0 -168 -46t-131 -122v-827h-215z" />
<glyph unicode="&#x226;" horiz-adv-x="1255" d="M505 1773.5q0 51.5 32 86t79 34.5t79 -34.5t32 -86t-32 -86.5t-79 -35t-79 35t-32 86.5zM2 0l487 1509h256l508 -1509h-213l-127 391h-569l-129 -391h-213zM387 555h2h2h2h2h2h2h2h2h3h2h2h2h2h2h2h2h2h2h2h2h2h2h2h2h2h2h2h2h2h3h2h2h2h2h2h2h2h2h2h2h2h2h2h2h2h2h2h2h4 h3h2h2h2h2h2h4h2h2h2h2h4h2h2h2h4h2h2h5h2h2h2h4h2h2h4h2h2h4h2h2h4h2h5h2h2h4h2h4h2h4h2h4h2h2h4h2h4h3h4h2h4h2h4h2h4h4h2h4h2h4h3h4h4h2h4h2h4h4h2h4h4h2h4h3h4h4h2h4h4h4h2h4h4h2h4h5h4h2h4h4h4h2h4h4h4h2h4h5h4h4h2h4h4h4h4h4h2h4h4h5h4h4h16l-242 752z" />
<glyph unicode="&#x227;" horiz-adv-x="1179" d="M499 1421.5q0 51.5 32 86t79 34.5t79 -34.5t32 -86t-32 -86.5t-79 -35t-79 35t-32 86.5zM78 369v28q0 190 123 294t319 104q207 0 318 -117v139q0 86 -61.5 138.5t-196.5 52.5q-205 0 -347 -82v170q129 78 377 78q211 0 320.5 -105.5t109.5 -259.5v-809h-184l-14 141 q-49 -78 -151.5 -116.5t-213.5 -38.5q-178 0 -288.5 98.5t-110.5 284.5zM285 387q0 -244 268 -244q129 0 207 70t78 172v31q0 102 -79 165.5t-206 63.5q-121 0 -194.5 -62.5t-73.5 -172.5v-23z" />
<glyph unicode="&#x228;" horiz-adv-x="1136" d="M532 -348q47 -20 109 -20q59 0 97 30.5t38 81.5q0 113 -137 113h-68v160h109v-74q106 0 166.5 -50.5t60.5 -140.5q0 -98 -72.5 -157.5t-177.5 -59.5q-78 0 -125 17v100zM168 0v1509h887v-168h-676v-493h543v-166h-543v-516h706v-166h-917z" />
<glyph unicode="&#x229;" d="M557 -373q47 -20 109 -20q59 0 97 30.5t38 81.5q0 113 -137 113h-68v160h109v-74q106 0 166.5 -50.5t60.5 -140.5q0 -98 -72.5 -157.5t-177.5 -59.5q-78 0 -125 17v100zM102 530v80q0 270 138.5 419t367.5 149q246 0 383 -156t137 -422v-86h-806q0 -184 97 -273t247 -89 q184 0 376 92v-178q-152 -90 -391 -91q-238 0 -393.5 144.5t-155.5 410.5zM324 678h587q-2 168 -80.5 245.5t-214.5 77.5q-129 0 -207.5 -78.5t-84.5 -244.5z" />
<glyph unicode="&#x22a;" horiz-adv-x="1366" d="M338 1985v133h698v-133h-698zM362 1757q0 41 31 72.5t72 31.5t72.5 -31.5t31.5 -72.5q0 -43 -31.5 -74t-72.5 -31q-39 0 -71 31t-32 74zM805 1757q0 41 31.5 72.5t70.5 31.5q41 0 73 -31.5t32 -72.5q0 -43 -32 -74t-73 -31q-39 0 -70.5 31t-31.5 74zM90 702v86 q0 350 150.5 546t447.5 196q598 0 598 -742v-81q0 -731 -598 -732q-279 0 -438.5 180t-159.5 547zM313 731q0 -326 92.5 -463t282.5 -137q129 0 208 50t123 183.5t44 362.5v41q0 307 -86 450.5t-289 143.5q-201 0 -288 -136t-87 -458v-37z" />
<glyph unicode="&#x22b;" horiz-adv-x="1298" d="M295 1633v133h698v-133h-698zM321 1405q0 41 31 72.5t72 31.5t72.5 -31.5t31.5 -72.5q0 -43 -31.5 -74t-72.5 -31q-39 0 -71 31t-32 74zM764 1405q0 41 31.5 72.5t70.5 31.5q41 0 73 -31.5t32 -72.5q0 -43 -32 -74t-73 -31q-39 0 -70.5 31t-31.5 74zM102 541v73 q0 244 150.5 404t392.5 160q143 0 253 -45.5t173.5 -125t94 -178t30.5 -215.5v-73q0 -248 -151.5 -407t-399.5 -159q-246 0 -394.5 158t-148.5 408zM317 569q0 -203 85 -315.5t243 -112.5q340 0 340 428v17q0 418 -334 418q-164 0 -249 -109t-85 -309v-17z" />
<glyph unicode="&#x22c;" horiz-adv-x="1366" d="M182 2016v133h698v-133h-698zM287 1735q31 63 95 110t150 47q66 0 172 -55q94 -53 168 -53q94 0 142 96l77 -68q-88 -160 -237 -159q-76 0 -182 55q-102 51 -162 51q-98 0 -152 -86zM90 702v86q0 350 150.5 546t447.5 196q598 0 598 -742v-81q0 -731 -598 -732 q-279 0 -438.5 180t-159.5 547zM313 731q0 -326 92.5 -463t282.5 -137q129 0 208 50t123 183.5t44 362.5v41q0 307 -86 450.5t-289 143.5q-201 0 -288 -136t-87 -458v-37z" />
<glyph unicode="&#x22d;" horiz-adv-x="1298" d="M139 1663v133h698v-133h-698zM242 1383q31 63 95 110t150 47q66 0 172 -55q94 -53 168 -53q94 0 142 96l77 -68q-88 -160 -237 -159q-76 0 -182 55q-102 51 -162 51q-98 0 -152 -86zM102 541v73q0 244 150.5 404t392.5 160q143 0 253 -45.5t173.5 -125t94 -178 t30.5 -215.5v-73q0 -248 -151.5 -407t-399.5 -159q-246 0 -394.5 158t-148.5 408zM317 569q0 -203 85 -315.5t243 -112.5q340 0 340 428v17q0 418 -334 418q-164 0 -249 -109t-85 -309v-17z" />
<glyph unicode="&#x22e;" horiz-adv-x="1366" d="M577 1773.5q0 51.5 32 86t79 34.5t79 -34.5t32 -86t-32 -86.5t-79 -35t-79 35t-32 86.5zM90 702v86q0 350 150.5 546t447.5 196q598 0 598 -742v-81q0 -731 -598 -732q-279 0 -438.5 180t-159.5 547zM313 731q0 -326 92.5 -463t282.5 -137q129 0 208 50t123 183.5 t44 362.5v41q0 307 -86 450.5t-289 143.5q-201 0 -288 -136t-87 -458v-37z" />
<glyph unicode="&#x22f;" horiz-adv-x="1298" d="M534 1421.5q0 51.5 32 86t79 34.5t79 -34.5t32 -86t-32 -86.5t-79 -35t-79 35t-32 86.5zM102 541v73q0 244 150.5 404t392.5 160q143 0 253 -45.5t173.5 -125t94 -178t30.5 -215.5v-73q0 -248 -151.5 -407t-399.5 -159q-246 0 -394.5 158t-148.5 408zM317 569 q0 -203 85 -315.5t243 -112.5q340 0 340 428v17q0 418 -334 418q-164 0 -249 -109t-85 -309v-17z" />
<glyph unicode="&#x230;" horiz-adv-x="1366" d="M338 2018v133h698v-133h-698zM577 1773.5q0 51.5 32 86t79 34.5t79 -34.5t32 -86t-32 -86.5t-79 -35t-79 35t-32 86.5zM90 702v86q0 350 150.5 546t447.5 196q598 0 598 -742v-81q0 -731 -598 -732q-279 0 -438.5 180t-159.5 547zM313 731q0 -326 92.5 -463t282.5 -137 q129 0 208 50t123 183.5t44 362.5v41q0 307 -86 450.5t-289 143.5q-201 0 -288 -136t-87 -458v-37z" />
<glyph unicode="&#x2c6;" horiz-adv-x="1024" d="M43 1225l383 354h172l383 -354h-143l-326 231l-326 -231h-143z" />
<glyph unicode="&#x2c7;" horiz-adv-x="1024" d="M43 1579h143l326 -238l326 238h143l-391 -354h-156z" />
<glyph unicode="&#x2d8;" horiz-adv-x="1024" d="M166 1563h147q6 -74 59.5 -123t137.5 -49q86 0 140.5 48t58.5 124h149q0 -139 -103.5 -232.5t-242.5 -93.5q-150 0 -248 93.5t-98 232.5z" />
<glyph unicode="&#x2d9;" horiz-adv-x="1024" d="M403 1378.5q0 51.5 32 86t79 34.5t79 -34.5t32 -86t-32 -86.5t-79 -35t-79 35t-32 86.5z" />
<glyph unicode="&#x2da;" horiz-adv-x="1024" d="M258 1435.5q0 112.5 76 187.5t178 75t179 -75t77 -187.5t-77 -187t-179 -74.5t-178 74.5t-76 187zM356 1436q0 -74 45 -121t111 -47t111 46t45 121.5t-45 122t-111 46.5t-111 -46t-45 -122z" />
<glyph unicode="&#x2db;" horiz-adv-x="1024" d="M274 -246q0 109 86 177.5t209 68.5h70v-113h-70q-72 0 -115.5 -33.5t-43.5 -99t43 -101.5t108 -36q25 0 72 14l31 -102q-63 -20 -111 -21q-127 0 -203 61.5t-76 184.5z" />
<glyph unicode="&#x2dc;" horiz-adv-x="1024" d="M111 1348q31 63 95 110t150 47q66 0 172 -55q94 -53 168 -53q94 0 142 96l77 -68q-88 -160 -237 -159q-76 0 -182 55q-102 51 -162 51q-98 0 -152 -86z" />
<glyph unicode="&#x2dd;" horiz-adv-x="1024" d="M170 1221l240 354h163l-274 -354h-129zM580 1221l239 354h162l-274 -354h-127z" />
<glyph unicode="&#x394;" horiz-adv-x="1282" d="M-2 0l567 1509h140l567 -1509h-1274zM221 180h762l-377 967z" />
<glyph unicode="&#x2206;" horiz-adv-x="1282" d="M-2 0l567 1509h140l567 -1509h-1274zM221 180h762l-377 967z" />
<glyph unicode="&#x3a9;" horiz-adv-x="1482" d="M92 850v96q0 111 41 213.5t119 186.5t206 134t287 50q299 0 472.5 -163t173.5 -421v-115q0 -170 -102.5 -305t-246.5 -194v-166h336v-166h-485v406q121 47 198.5 174t77.5 290v41q0 479 -428 479.5t-428 -479.5v-41q0 -174 77 -300t200 -164v-406h-486v166h336v166 q-139 45 -243.5 182t-104.5 336z" />
<glyph unicode="&#x2126;" horiz-adv-x="1482" d="M92 850v96q0 111 41 213.5t119 186.5t206 134t287 50q299 0 472.5 -163t173.5 -421v-115q0 -170 -102.5 -305t-246.5 -194v-166h336v-166h-485v406q121 47 198.5 174t77.5 290v41q0 479 -428 479.5t-428 -479.5v-41q0 -174 77 -300t200 -164v-406h-486v166h336v166 q-139 45 -243.5 182t-104.5 336z" />
<glyph unicode="&#x3c0;" horiz-adv-x="1259" d="M57 997v148h1141v-148h-172v-997h-203v997h-389v-997h-203v997h-174z" />
<glyph unicode="&#x402;" horiz-adv-x="1398" d="M932 0v176q92 0 142 58.5t50 150.5v104q0 100 -67.5 165t-161.5 65h-295v-719h-217v1331h-373v178h1100v-178h-510v-434h309q203 0 314.5 -113.5t111.5 -298.5v-94q0 -168 -107.5 -279.5t-295.5 -111.5z" />
<glyph unicode="&#x410;" horiz-adv-x="1255" d="M2 0l487 1509h256l508 -1509h-213l-127 391h-569l-129 -391h-213zM387 555h2h2h2h2h2h2h2h2h3h2h2h2h2h2h2h2h2h2h2h2h2h2h2h2h2h2h2h2h2h3h2h2h2h2h2h2h2h2h2h2h2h2h2h2h2h2h2h2h4h3h2h2h2h2h2h4h2h2h2h2h4h2h2h2h4h2h2h5h2h2h2h4h2h2h4h2h2h4h2h2h4h2h5h2h2h4h2h4h2h4 h2h4h2h2h4h2h4h3h4h2h4h2h4h2h4h4h2h4h2h4h3h4h4h2h4h2h4h4h2h4h4h2h4h3h4h4h2h4h4h4h2h4h4h2h4h5h4h2h4h4h4h2h4h4h4h2h4h5h4h4h2h4h4h4h4h4h2h4h4h5h4h4h16l-242 752z" />
<glyph unicode="&#x411;" horiz-adv-x="1302" d="M170 0v1509h934v-168h-721v-438h309q240 0 371 -118.5t131 -335.5q0 -221 -133 -335t-385 -114h-506zM383 168h324q266 0 266 295q0 127 -69.5 200.5t-215.5 73.5h-305v-569z" />
<glyph unicode="&#x412;" horiz-adv-x="1298" d="M168 0v1509h514q197 0 299 -98t102 -244q0 -133 -50 -216t-171 -115q154 -23 241 -123.5t87 -263.5q0 -221 -133 -335t-385 -114h-504zM379 168h323q266 0 267 295q0 127 -70 200.5t-215 73.5h-305v-569zM379 903h309q98 0 144.5 58.5t46.5 154.5q0 100 -49.5 162.5 t-143.5 62.5h-307v-438z" />
<glyph unicode="&#x413;" horiz-adv-x="1097" d="M168 0v1509h864v-176h-647v-1333h-217z" />
<glyph unicode="&#x414;" horiz-adv-x="1445" d="M33 170h112q143 20 208 307t100 1032h809v-1339h131v-547h-176v377h-1008v-377h-176v547zM436 170h615v1169h-412q-43 -836 -123 -1048q-31 -80 -80 -121z" />
<glyph unicode="&#x415;" horiz-adv-x="1136" d="M168 0v1509h887v-168h-676v-493h543v-166h-543v-516h706v-166h-917z" />
<glyph unicode="&#x416;" horiz-adv-x="1966" d="M94 0q0 266 38 431t108.5 242t185.5 103q-78 16 -129 50t-93 111t-61.5 218t-19.5 354h213q0 -268 24.5 -406t82 -195.5t167.5 -57.5h267v659h213v-659h266q111 0 168 57.5t81.5 195.5t24.5 406h213q0 -213 -19.5 -354t-61.5 -218t-93 -110.5t-129 -50.5 q115 -27 185.5 -103.5t108.5 -241.5t38 -431h-219q-2 360 -72 521t-213 161h-278v-682h-213v682h-279q-143 0 -213 -161t-72 -521h-219z" />
<glyph unicode="&#x417;" horiz-adv-x="1081" d="M88 45v178q152 -68 358 -67q346 0 347 288q0 121 -86 196t-230 75h-190v164h178q127 0 195.5 63.5t68.5 179.5q0 225 -280 226q-172 0 -324 -62v191q127 55 324 55q260 0 378.5 -106.5t118.5 -286.5q0 -129 -52 -214t-153 -112q115 -41 192 -137t77 -238 q0 -229 -142.5 -346t-414.5 -117q-220 0 -365 70z" />
<glyph unicode="&#x418;" horiz-adv-x="1454" d="M168 0h217v102l684 985v-1087h217v1509h-215v-82l-686 -997v1079h-217v-1509z" />
<glyph unicode="&#x419;" horiz-adv-x="1454" d="M168 0h217v102l684 985v-1087h217v1509h-215v-82l-686 -997v1079h-217v-1509zM389 1931h148q6 -74 59 -123t137 -49q86 0 140.5 48t58.5 124h149q0 -139 -103.5 -232t-242.5 -93q-150 0 -248 93t-98 232z" />
<glyph unicode="&#x41a;" horiz-adv-x="1263" d="M168 0v1509h217v-659h266q111 0 168.5 57.5t82 195.5t24.5 406h215q0 -213 -19.5 -354t-61.5 -218t-93.5 -110.5t-128.5 -50.5q115 -27 185.5 -103.5t108 -241.5t37.5 -431h-221q-2 360 -71.5 521t-212.5 161h-279v-682h-217z" />
<glyph unicode="&#x41b;" horiz-adv-x="1515" d="M70 47v203q96 -45 170 -45q72 0 115.5 46t80.5 191.5t60 419.5q23 256 43 647h809v-1509h-218v1339h-401q-10 -193 -33 -501q-25 -344 -74 -526.5t-124.5 -249t-206.5 -66.5q-139 0 -221 51z" />
<glyph unicode="&#x41c;" horiz-adv-x="1789" d="M168 0v1509h225l510 -1323l514 1323h205v-1509h-197v1077l-424 -1077h-215l-424 1077v-1077h-194z" />
<glyph unicode="&#x41d;" horiz-adv-x="1380" d="M168 0v1509h217v-659h610v659h217v-1509h-217v680h-610v-680h-217z" />
<glyph unicode="&#x41e;" horiz-adv-x="1366" d="M90 702v86q0 350 150.5 546t447.5 196q598 0 598 -742v-81q0 -731 -598 -732q-279 0 -438.5 180t-159.5 547zM313 731q0 -326 92.5 -463t282.5 -137q129 0 208 50t123 183.5t44 362.5v41q0 307 -86 450.5t-289 143.5q-201 0 -288 -136t-87 -458v-37z" />
<glyph unicode="&#x41f;" horiz-adv-x="1370" d="M168 0v1509h1034v-1509h-217v1339h-600v-1339h-217z" />
<glyph unicode="&#x420;" horiz-adv-x="1189" d="M168 0v1509h524q203 0 318.5 -113.5t115.5 -297.5v-94q0 -166 -110.5 -279t-296.5 -113h-336v-612h-215zM383 788h332q92 0 140 58.5t48 150.5v105q0 102 -56 165.5t-149 63.5h-315v-543z" />
<glyph unicode="&#x421;" horiz-adv-x="1169" d="M88 717v61q0 352 177 552t499 200q197 0 323 -49v-193q-8 2 -36.5 12.5t-41.5 13.5l-44 10q-31 7 -58.5 10t-70.5 6t-95 3q-428 0 -428 -585v-21q0 -317 116 -454.5t359 -137.5q158 0 299 66v-170q-102 -66 -352 -66q-133 0 -246.5 43t-204.5 129t-143.5 231.5 t-52.5 338.5z" />
<glyph unicode="&#x422;" horiz-adv-x="983" d="M10 1331v178h963v-178h-373v-1331h-217v1331h-373z" />
<glyph unicode="&#x423;" horiz-adv-x="1349" d="M33 1509h223l457 -897l422 897h208l-534 -1116q-111 -229 -206 -318t-236 -89q-193 0 -277 53v184q111 -55 254 -55q74 0 133.5 46t130.5 183z" />
<glyph unicode="&#x424;" horiz-adv-x="1540" d="M76 715v63q0 520 579 565v195h217v-192q303 -20 447.5 -159.5t144.5 -408.5v-61q0 -281 -149.5 -411t-442.5 -148v-158h-217v160q-285 23 -432 155t-147 400zM291 735q0 -195 93 -292t271 -115v843q-186 -18 -275 -113t-89 -294v-29zM872 326q188 18 282.5 111t94.5 294 v33q0 190 -92 289.5t-285 117.5v-845z" />
<glyph unicode="&#x425;" horiz-adv-x="1191" d="M2 0l490 778l-441 731h236l331 -555l347 555h213l-457 -727l469 -782h-236l-360 606l-379 -606h-213z" />
<glyph unicode="&#x426;" horiz-adv-x="1353" d="M168 0v1509h217v-1339h584v1339h217v-1339h114v-547h-176v377h-956z" />
<glyph unicode="&#x427;" horiz-adv-x="1349" d="M139 1024v485h215v-489q0 -102 58.5 -165.5t150.5 -63.5h402v718h217v-1509h-217v612h-400q-203 0 -314.5 114t-111.5 298z" />
<glyph unicode="&#x428;" horiz-adv-x="1968" d="M168 0v1509h211v-1339h500v1339h211v-1339h499v1339h211v-1509h-1632z" />
<glyph unicode="&#x429;" horiz-adv-x="1968" d="M168 0v1509h211v-1339h500v1339h211v-1339h499v1339h211v-1339h115v-547h-176v377h-1571z" />
<glyph unicode="&#x42a;" horiz-adv-x="1415" d="M0 1339v170h580v-606h270q240 0 371 -118.5t131 -335.5q0 -221 -133.5 -335t-384.5 -114h-469v1339h-365zM580 168h288q266 0 267 295q0 127 -70 200.5t-215 73.5h-270v-569z" />
<glyph unicode="&#x42b;" horiz-adv-x="1685" d="M168 0v1509h215v-606h250q240 0 371 -118.5t131 -335.5q0 -221 -133.5 -335t-385.5 -114h-448zM383 168h268q266 0 267 295q0 127 -70 200.5t-215 73.5h-250v-569zM1282 0v1509h217v-1509h-217z" />
<glyph unicode="&#x42c;" horiz-adv-x="1257" d="M168 1509h215v-606h309q240 0 371 -118.5t131 -335.5q0 -221 -133 -335t-385 -114h-506zM383 168h324q266 0 266 295q0 127 -69.5 200.5t-215.5 73.5h-305v-569z" />
<glyph unicode="&#x42d;" horiz-adv-x="1189" d="M102 41q102 -66 353 -66q141 0 254.5 40t204 124t139.5 230.5t49 347.5v61q0 369 -170 560.5t-506 191.5q-197 0 -324 -49v-191l43 15q37 12 54.5 16t56.5 12t86 11.5t107 3.5q215 0 315 -117t117 -383h-613v-166h615q-12 -305 -123 -423t-359 -118q-154 0 -299 68v-168z " />
<glyph unicode="&#x42e;" horiz-adv-x="1878" d="M168 0v1509h217v-659h258q14 319 163.5 499.5t414.5 180.5q285 0 431 -191.5t146 -550.5v-81q0 -375 -155.5 -553.5t-421.5 -178.5q-258 0 -416 176.5t-162 528.5h-258v-680h-217zM866 731q0 -322 91.5 -461t263.5 -139q178 0 266 131t88 465v41q0 303 -84 448.5 t-270 145.5q-182 0 -268.5 -138.5t-86.5 -455.5v-37z" />
<glyph unicode="&#x42f;" horiz-adv-x="1265" d="M94 0h221q2 360 72 521t213 161h281v-682h217v1509h-590q-172 0 -272.5 -97t-100.5 -228v-82q0 -135 73 -220t218 -106q-115 -27 -185.5 -103.5t-108.5 -241.5t-38 -431zM350 1071v41q0 100 54.5 158.5t152.5 58.5h324v-479h-306q-115 0 -170 62.5t-55 158.5z" />
<glyph unicode="&#x430;" horiz-adv-x="1179" d="M78 369v28q0 190 123 294t319 104q207 0 318 -117v139q0 86 -61.5 138.5t-196.5 52.5q-205 0 -347 -82v170q129 78 377 78q211 0 320.5 -105.5t109.5 -259.5v-809h-184l-14 141q-49 -78 -151.5 -116.5t-213.5 -38.5q-178 0 -288.5 98.5t-110.5 284.5zM285 387 q0 -244 268 -244q129 0 207 70t78 172v31q0 102 -79 165.5t-206 63.5q-121 0 -194.5 -62.5t-73.5 -172.5v-23z" />
<glyph unicode="&#x431;" horiz-adv-x="1298" d="M102 530v373q0 268 133.5 404.5t419.5 179.5l271 39v-183l-271 -26q-369 -35 -376 -379q133 178 389 178q264 0 396 -156.5t132 -396.5v-33q0 -244 -151.5 -399.5t-399.5 -155.5q-246 0 -394.5 154.5t-148.5 400.5zM317 539q0 -184 86 -291t242 -107q166 0 253 100.5 t87 297.5v16q0 178 -81 282.5t-253 104.5q-162 0 -248 -102.5t-86 -284.5v-16z" />
<glyph unicode="&#x432;" horiz-adv-x="1130" d="M150 0v1141h528q166 0 250 -76t84 -193q0 -113 -54.5 -181t-160.5 -81q117 -16 182 -87.5t65 -192.5q0 -164 -101 -247t-290 -83h-503zM360 160h265q201 0 200 180q0 178 -215 178h-250v-358zM360 680h275q174 0 174 154q0 147 -180 147h-269v-301z" />
<glyph unicode="&#x433;" horiz-adv-x="860" d="M150 0v1141h702v-178h-487v-963h-215z" />
<glyph unicode="&#x434;" horiz-adv-x="1308" d="M16 160h138q123 8 159 225l119 756h713v-981h121v-398h-197l-8 238h-840l-8 -238h-197v398zM453 160h477v821h-307l-101 -633q-16 -110 -69 -188z" />
<glyph unicode="&#x435;" d="M102 530v80q0 270 138.5 419t367.5 149q246 0 383 -156t137 -422v-86h-806q0 -184 97 -273t247 -89q184 0 376 92v-178q-152 -90 -391 -91q-238 0 -393.5 144.5t-155.5 410.5zM324 678h587q-2 168 -80.5 245.5t-214.5 77.5q-129 0 -207.5 -78.5t-84.5 -244.5z" />
<glyph unicode="&#x436;" horiz-adv-x="1630" d="M72 0q0 301 61.5 439.5t190.5 166.5q-82 16 -126 53t-74 153t-30 329h207q0 -205 16.5 -299t55.5 -128t125 -34h213v461h209v-461h213q86 0 124.5 34t55 128t16.5 299h207q0 -162 -14.5 -265.5t-48 -157.5t-70.5 -77t-96 -35q129 -29 190.5 -167t61.5 -439h-211 q-4 279 -51.5 398.5t-153.5 119.5h-223v-518h-209v518h-224q-106 0 -153 -119.5t-51 -398.5h-211z" />
<glyph unicode="&#x437;" horiz-adv-x="864" d="M86 35v170q117 -51 272 -51q238 0 238 186q0 88 -58.5 135t-156.5 47h-154v158h146q188 0 188 168q0 147 -201 147q-125 0 -245 -45v166q96 41 245 41q395 0 396 -297q0 -205 -156 -246q94 -29 148.5 -101.5t54.5 -180.5q0 -350 -441 -350q-170 0 -276 53z" />
<glyph unicode="&#x438;" horiz-adv-x="1236" d="M150 0h194v39l549 741v-780h194v1141h-194v-41l-549 -750v791h-194v-1141z" />
<glyph unicode="&#x439;" horiz-adv-x="1236" d="M150 0h194v39l549 741v-780h194v1141h-194v-41l-549 -750v791h-194v-1141zM272 1563h148q6 -74 59 -123t137 -49q86 0 140.5 48t58.5 124h150q0 -139 -103.5 -232.5t-243.5 -93.5q-150 0 -248 93.5t-98 232.5z" />
<glyph unicode="&#x43a;" horiz-adv-x="1073" d="M150 0v1141h210v-461h213q86 0 125 34t55.5 128t16.5 299h209q0 -213 -29.5 -329t-74 -152.5t-125.5 -53.5q129 -29 190 -167t61 -439h-213q-4 279 -51 398.5t-153 119.5h-224v-518h-210z" />
<glyph unicode="&#x43b;" horiz-adv-x="1273" d="M49 35v178q63 -31 131 -31q66 0 104 73t67.5 279.5t54.5 606.5h718v-1141h-215v981h-305q-29 -401 -76 -615t-116.5 -292t-188.5 -78q-108 0 -174 39z" />
<glyph unicode="&#x43c;" horiz-adv-x="1488" d="M150 0v1141h217l387 -983l387 983h198v-1141h-174v713l4 118q-23 -51 -45 -120l-278 -711h-199l-278 702l-50 129q4 -86 5 -133v-698h-174z" />
<glyph unicode="&#x43d;" horiz-adv-x="1247" d="M150 0v1141h215v-484h518v484h215v-1141h-215v498h-518v-498h-215z" />
<glyph unicode="&#x43e;" horiz-adv-x="1298" d="M102 541v73q0 244 150.5 404t392.5 160q143 0 253 -45.5t173.5 -125t94 -178t30.5 -215.5v-73q0 -248 -151.5 -407t-399.5 -159q-246 0 -394.5 158t-148.5 408zM317 569q0 -203 85 -315.5t243 -112.5q340 0 340 428v17q0 418 -334 418q-164 0 -249 -109t-85 -309v-17z " />
<glyph unicode="&#x43f;" horiz-adv-x="1236" d="M150 0v1141h937v-1141h-215v963h-507v-963h-215z" />
<glyph unicode="&#x440;" horiz-adv-x="1241" d="M150 -342v1483h196l10 -150q31 72 122 127.5t192 55.5q238 0 353.5 -142.5t115.5 -365.5v-134q0 -266 -127 -406t-348 -140q-106 0 -189.5 42t-114.5 97v-467h-210zM362 352q0 -68 76 -137.5t195 -69.5q135 0 211 101.5t76 302.5v76q0 184 -75 280t-212 96 q-186 0 -271 -165v-484z" />
<glyph unicode="&#x441;" horiz-adv-x="1124" d="M102 553v49q0 260 143.5 419t383.5 159q219 0 350 -78v-209q-158 98 -332 98q-147 0 -234 -98t-87 -303v-21q0 -197 87 -302t234 -105q190 0 332 96v-197q-145 -86 -334 -86q-248 0 -395.5 152t-147.5 426z" />
<glyph unicode="&#x442;" horiz-adv-x="950" d="M4 961v180h942v-180h-364v-961h-215v961h-363z" />
<glyph unicode="&#x443;" horiz-adv-x="1136" d="M2 1143h219l348 -871l359 871h207l-635 -1485h-209l160 373z" />
<glyph unicode="&#x444;" horiz-adv-x="1501" d="M102 541v73q0 244 150.5 404t392.5 160v331h209v-331q276 -2 410.5 -161t134.5 -403v-73q0 -246 -149.5 -405t-395.5 -161v-317h-209v317q-246 0 -394.5 158t-148.5 408zM317 569q0 -203 85 -315.5t243 -112.5v863q-160 -2 -244 -111t-84 -307v-17zM854 141 q334 4 334 428v17q0 418 -334 418v-863z" />
<glyph unicode="&#x445;" horiz-adv-x="1071" d="M2 0l416 600l-359 541h228l256 -385l256 385h221l-367 -539l416 -602h-248l-295 438l-303 -438h-221z" />
<glyph unicode="&#x446;" horiz-adv-x="1220" d="M150 0h851v-377h177v537h-107v981h-215v-981h-491v981h-215v-1141z" />
<glyph unicode="&#x447;" horiz-adv-x="1126" d="M94 846v295h211v-299q0 -102 58.5 -166t150.5 -64h254v529h209v-1141h-209v434h-248q-203 0 -314.5 114t-111.5 298z" />
<glyph unicode="&#x448;" horiz-adv-x="1681" d="M150 0v1141h208v-981h379v981h209v-981h377v981h209v-1141h-1382z" />
<glyph unicode="&#x449;" horiz-adv-x="1693" d="M150 0h1312v-377h176v537h-106v981h-209v-981h-377v981h-209v-981h-379v981h-208v-1141z" />
<glyph unicode="&#x44a;" horiz-adv-x="1138" d="M0 991v150h504v-436h219q190 0 287.5 -98.5t97.5 -258.5q0 -166 -99.5 -257t-301.5 -91h-416v991h-291zM504 160h221q168 0 168 198q0 184 -180 185h-209v-383z" />
<glyph unicode="&#x44b;" horiz-adv-x="1458" d="M150 0v1141h212v-436h209q190 0 287.5 -98.5t97.5 -258.5q0 -166 -99 -257t-302 -91h-405zM362 160h211q168 0 168 198q0 184 -180 185h-199v-383zM1098 0v1141h211v-1141h-211z" />
<glyph unicode="&#x44c;" horiz-adv-x="1007" d="M150 0v1141h212v-436h230q190 0 287.5 -98.5t97.5 -258.5q0 -166 -99.5 -257t-302.5 -91h-425zM362 160h232q168 0 168 198q0 184 -180 185h-220v-383z" />
<glyph unicode="&#x44d;" horiz-adv-x="1187" d="M145 66q152 -90 371 -91q569 0 569 578v49q0 274 -136 426t-425 152q-213 0 -379 -78v-199q63 39 171 70t198 31q190 0 268 -74t90 -252h-628v-164h630q-2 -184 -93 -273t-279 -89q-164 0 -357 92v-178z" />
<glyph unicode="&#x44e;" horiz-adv-x="1808" d="M156 0v1151h202v-473h297q20 217 166 358.5t355 141.5q264 0 397 -160t133 -404v-73q0 -246 -149.5 -406t-380.5 -160q-223 0 -368.5 150.5t-154.5 388.5h-295v-514h-202zM868 569q0 -201 83 -314.5t225 -113.5q150 0 234.5 107.5t84.5 320.5v17q0 195 -78 306.5 t-235 111.5q-147 0 -230.5 -110t-83.5 -308v-17z" />
<glyph unicode="&#x44f;" horiz-adv-x="1069" d="M72 0h209q2 260 49 364.5t157 104.5h244v-469h207v1141h-555q-129 0 -205 -77t-76 -175v-78q0 -104 55.5 -172t164.5 -84q-133 -29 -191.5 -145.5t-58.5 -409.5zM307 778v39q0 164 137 164h287v-348h-260q-84 0 -124 41t-40 104z" />
<glyph unicode="&#x1e00;" horiz-adv-x="1255" d="M373 -385.5q0 112.5 76 187.5t178 75t179 -75t77 -187.5t-77 -187t-179 -74.5t-178 74.5t-76 187zM471 -385q0 -74 45 -121t111 -47t111 46t45 121.5t-45 122t-111 46.5t-111 -46t-45 -122zM2 0l487 1509h256l508 -1509h-213l-127 391h-569l-129 -391h-213zM387 555h2h2 h2h2h2h2h2h2h3h2h2h2h2h2h2h2h2h2h2h2h2h2h2h2h2h2h2h2h2h3h2h2h2h2h2h2h2h2h2h2h2h2h2h2h2h2h2h2h4h3h2h2h2h2h2h4h2h2h2h2h4h2h2h2h4h2h2h5h2h2h2h4h2h2h4h2h2h4h2h2h4h2h5h2h2h4h2h4h2h4h2h4h2h2h4h2h4h3h4h2h4h2h4h2h4h4h2h4h2h4h3h4h4h2h4h2h4h4h2h4h4h2h4h3h4h4h2h4h4 h4h2h4h4h2h4h5h4h2h4h4h4h2h4h4h4h2h4h5h4h4h2h4h4h4h4h4h2h4h4h5h4h4h16l-242 752z" />
<glyph unicode="&#x1e01;" horiz-adv-x="1179" d="M221 -399.5q0 112.5 76 187.5t178 75t179 -75t77 -187.5t-77 -187t-179 -74.5t-178 74.5t-76 187zM319 -399q0 -74 45 -121t111 -47t111 46t45 121.5t-45 122t-111 46.5t-111 -46t-45 -122zM78 369v28q0 190 123 294t319 104q207 0 318 -117v139q0 86 -61.5 138.5 t-196.5 52.5q-205 0 -347 -82v170q129 78 377 78q211 0 320.5 -105.5t109.5 -259.5v-809h-184l-14 141q-49 -78 -151.5 -116.5t-213.5 -38.5q-178 0 -288.5 98.5t-110.5 284.5zM285 387q0 -244 268 -244q129 0 207 70t78 172v31q0 102 -79 165.5t-206 63.5 q-121 0 -194.5 -62.5t-73.5 -172.5v-23z" />
<glyph unicode="&#x1e02;" horiz-adv-x="1298" d="M567 1773.5q0 51.5 32 86t79 34.5t79 -34.5t32 -86t-32 -86.5t-79 -35t-79 35t-32 86.5zM168 0v1509h514q197 0 299 -98t102 -244q0 -133 -50 -216t-171 -115q154 -23 241 -123.5t87 -263.5q0 -221 -133 -335t-385 -114h-504zM379 168h323q266 0 267 295q0 127 -70 200.5 t-215 73.5h-305v-569zM379 903h309q98 0 144.5 58.5t46.5 154.5q0 100 -49.5 162.5t-143.5 62.5h-307v-438z" />
<glyph unicode="&#x1e03;" horiz-adv-x="1241" d="M534 1753.5q0 51.5 32 86t79 34.5t79 -34.5t32 -86t-32 -86.5t-79 -35t-79 35t-32 86.5zM150 0v1509h206v-503q35 76 126 122t188 46q219 0 344 -131.5t125 -385.5v-131q0 -250 -127 -395t-324 -145q-217 0 -319 127l-17 -113h-202zM362 367q8 -90 88 -150.5t183 -60.5 q143 0 215 90t72 319v84q0 152 -71 250t-208 98q-190 0 -279 -168v-462z" />
<glyph unicode="&#x1e04;" horiz-adv-x="1298" d="M309 -243.5q0 51.5 32 86t79 34.5t79 -34.5t32 -86t-32 -86.5t-79 -35t-79 35t-32 86.5zM168 0v1509h514q197 0 299 -98t102 -244q0 -133 -50 -216t-171 -115q154 -23 241 -123.5t87 -263.5q0 -221 -133 -335t-385 -114h-504zM379 168h323q266 0 267 295q0 127 -70 200.5 t-215 73.5h-305v-569zM379 903h309q98 0 144.5 58.5t46.5 154.5q0 100 -49.5 162.5t-143.5 62.5h-307v-438z" />
<glyph unicode="&#x1e05;" horiz-adv-x="1241" d="M577 -257.5q0 51.5 32 86t79 34.5t79 -34.5t32 -86t-32 -86.5t-79 -35t-79 35t-32 86.5zM150 0v1509h206v-503q35 76 126 122t188 46q219 0 344 -131.5t125 -385.5v-131q0 -250 -127 -395t-324 -145q-217 0 -319 127l-17 -113h-202zM362 367q8 -90 88 -150.5t183 -60.5 q143 0 215 90t72 319v84q0 152 -71 250t-208 98q-190 0 -279 -168v-462z" />
<glyph unicode="&#x1e06;" horiz-adv-x="1298" d="M72 -256v133h698v-133h-698zM168 0v1509h514q197 0 299 -98t102 -244q0 -133 -50 -216t-171 -115q154 -23 241 -123.5t87 -263.5q0 -221 -133 -335t-385 -114h-504zM379 168h323q266 0 267 295q0 127 -70 200.5t-215 73.5h-305v-569zM379 903h309q98 0 144.5 58.5 t46.5 154.5q0 100 -49.5 162.5t-143.5 62.5h-307v-438z" />
<glyph unicode="&#x1e07;" horiz-adv-x="1241" d="M338 -270v133h698v-133h-698zM150 0v1509h206v-503q35 76 126 122t188 46q219 0 344 -131.5t125 -385.5v-131q0 -250 -127 -395t-324 -145q-217 0 -319 127l-17 -113h-202zM362 367q8 -90 88 -150.5t183 -60.5q143 0 215 90t72 319v84q0 152 -71 250t-208 98 q-190 0 -279 -168v-462z" />
<glyph unicode="&#x1e08;" horiz-adv-x="1169" d="M686 1653l267 354h205l-314 -354h-158zM643 -373q47 -20 109 -20q59 0 97 30.5t38 81.5q0 113 -137 113h-68v160h109v-74q106 0 166.5 -50.5t60.5 -140.5q0 -98 -72.5 -157.5t-177.5 -59.5q-78 0 -125 17v100zM88 717v61q0 352 177 552t499 200q197 0 323 -49v-193 q-8 2 -36.5 12.5t-41.5 13.5l-44 10q-31 7 -58.5 10t-70.5 6t-95 3q-428 0 -428 -585v-21q0 -317 116 -454.5t359 -137.5q158 0 299 66v-170q-102 -66 -352 -66q-133 0 -246.5 43t-204.5 129t-143.5 231.5t-52.5 338.5z" />
<glyph unicode="&#x1e09;" horiz-adv-x="1124" d="M550 1303l267 354h205l-314 -354h-158zM553 -373q47 -20 109 -20q59 0 97 30.5t38 81.5q0 113 -137 113h-68v160h109v-74q106 0 166.5 -50.5t60.5 -140.5q0 -98 -72.5 -157.5t-177.5 -59.5q-78 0 -125 17v100zM102 553v49q0 260 143.5 419t383.5 159q219 0 350 -78v-209 q-158 98 -332 98q-147 0 -234 -98t-87 -303v-21q0 -197 87 -302t234 -105q190 0 332 96v-197q-145 -86 -334 -86q-248 0 -395.5 152t-147.5 426z" />
<glyph unicode="&#x1e0a;" horiz-adv-x="1359" d="M600 1773.5q0 51.5 32 86t79 34.5t79 -34.5t32 -86t-32 -86.5t-79 -35t-79 35t-32 86.5zM168 0v1509h432q309 0 482 -176t173 -549v-61q0 -358 -162.5 -540.5t-455.5 -182.5h-469zM381 166h301q156 0 255 143.5t99 423.5v41q0 270 -112.5 418.5t-286.5 148.5h-256v-1175z " />
<glyph unicode="&#x1e0b;" horiz-adv-x="1241" d="M485 1753.5q0 51.5 32 86t79 34.5t79 -34.5t32 -86t-32 -86.5t-79 -35t-79 35t-32 86.5zM102 494v120q0 266 126 413t350 147q86 0 174 -38t129 -100v473h211v-1509h-199l-19 117q-98 -131 -319 -131q-209 0 -331 129t-122 379zM322 502q0 -360 284 -361q94 0 171 47.5 t102 143.5v502q-37 84 -114 123.5t-159 39.5q-285 0 -284 -407v-88z" />
<glyph unicode="&#x1e0c;" horiz-adv-x="1359" d="M292 -243.5q0 51.5 32 86t79 34.5t79 -34.5t32 -86t-32 -86.5t-79 -35t-79 35t-32 86.5zM168 0v1509h432q309 0 482 -176t173 -549v-61q0 -358 -162.5 -540.5t-455.5 -182.5h-469zM381 166h301q156 0 255 143.5t99 423.5v41q0 270 -112.5 418.5t-286.5 148.5h-256v-1175z " />
<glyph unicode="&#x1e0d;" horiz-adv-x="1241" d="M444 -257.5q0 51.5 32 86t79 34.5t79 -34.5t32 -86t-32 -86.5t-79 -35t-79 35t-32 86.5zM102 494v120q0 266 126 413t350 147q86 0 174 -38t129 -100v473h211v-1509h-199l-19 117q-98 -131 -319 -131q-209 0 -331 129t-122 379zM322 502q0 -360 284 -361q94 0 171 47.5 t102 143.5v502q-37 84 -114 123.5t-159 39.5q-285 0 -284 -407v-88z" />
<glyph unicode="&#x1e0e;" horiz-adv-x="1359" d="M53 -256v133h698v-133h-698zM168 0v1509h432q309 0 482 -176t173 -549v-61q0 -358 -162.5 -540.5t-455.5 -182.5h-469zM381 166h301q156 0 255 143.5t99 423.5v41q0 270 -112.5 418.5t-286.5 148.5h-256v-1175z" />
<glyph unicode="&#x1e0f;" horiz-adv-x="1241" d="M207 -270v133h698v-133h-698zM102 494v120q0 266 126 413t350 147q86 0 174 -38t129 -100v473h211v-1509h-199l-19 117q-98 -131 -319 -131q-209 0 -331 129t-122 379zM322 502q0 -360 284 -361q94 0 171 47.5t102 143.5v502q-37 84 -114 123.5t-159 39.5 q-285 0 -284 -407v-88z" />
<glyph unicode="&#x1e10;" horiz-adv-x="1359" d="M309 -348q47 -20 109 -20q59 0 97 30.5t38 81.5q0 113 -137 113h-68v160h109v-74q106 0 166.5 -50.5t60.5 -140.5q0 -98 -72.5 -157.5t-177.5 -59.5q-78 0 -125 17v100zM168 0v1509h432q309 0 482 -176t173 -549v-61q0 -358 -162.5 -540.5t-455.5 -182.5h-469zM381 166 h301q156 0 255 143.5t99 423.5v41q0 270 -112.5 418.5t-286.5 148.5h-256v-1175z" />
<glyph unicode="&#x1e11;" horiz-adv-x="1241" d="M462 -363q47 -20 109 -20q59 0 97 30.5t38 81.5q0 113 -137 113h-68v160h109v-74q106 0 166.5 -50.5t60.5 -140.5q0 -98 -72.5 -157.5t-177.5 -59.5q-78 0 -125 17v100zM102 494v120q0 266 126 413t350 147q86 0 174 -38t129 -100v473h211v-1509h-199l-19 117 q-98 -131 -319 -131q-209 0 -331 129t-122 379zM322 502q0 -360 284 -361q94 0 171 47.5t102 143.5v502q-37 84 -114 123.5t-159 39.5q-285 0 -284 -407v-88z" />
<glyph unicode="&#x1e12;" horiz-adv-x="1359" d="M-68 -477l383 354h172l383 -354h-143l-326 231l-326 -231h-143zM168 0v1509h432q309 0 482 -176t173 -549v-61q0 -358 -162.5 -540.5t-455.5 -182.5h-469zM381 166h301q156 0 255 143.5t99 423.5v41q0 270 -112.5 418.5t-286.5 148.5h-256v-1175z" />
<glyph unicode="&#x1e13;" horiz-adv-x="1241" d="M86 -491l383 354h172l383 -354h-143l-326 231l-326 -231h-143zM102 494v120q0 266 126 413t350 147q86 0 174 -38t129 -100v473h211v-1509h-199l-19 117q-98 -131 -319 -131q-209 0 -331 129t-122 379zM322 502q0 -360 284 -361q94 0 171 47.5t102 143.5v502 q-37 84 -114 123.5t-159 39.5q-285 0 -284 -407v-88z" />
<glyph unicode="&#x1e14;" horiz-adv-x="1136" d="M219 2263h204l267 -354h-158zM262 1653v133h698v-133h-698zM168 0v1509h887v-168h-676v-493h543v-166h-543v-516h706v-166h-917z" />
<glyph unicode="&#x1e15;" d="M215 1911h204l267 -354h-158zM260 1301v133h698v-133h-698zM102 530v80q0 270 138.5 419t367.5 149q246 0 383 -156t137 -422v-86h-806q0 -184 97 -273t247 -89q184 0 376 92v-178q-152 -90 -391 -91q-238 0 -393.5 144.5t-155.5 410.5zM324 678h587q-2 168 -80.5 245.5 t-214.5 77.5q-129 0 -207.5 -78.5t-84.5 -244.5z" />
<glyph unicode="&#x1e16;" horiz-adv-x="1136" d="M532 1909l267 354h205l-314 -354h-158zM262 1653v133h698v-133h-698zM168 0v1509h887v-168h-676v-493h543v-166h-543v-516h706v-166h-917z" />
<glyph unicode="&#x1e17;" d="M530 1557l267 354h205l-314 -354h-158zM260 1301v133h698v-133h-698zM102 530v80q0 270 138.5 419t367.5 149q246 0 383 -156t137 -422v-86h-806q0 -184 97 -273t247 -89q184 0 376 92v-178q-152 -90 -391 -91q-238 0 -393.5 144.5t-155.5 410.5zM324 678h587 q-2 168 -80.5 245.5t-214.5 77.5q-129 0 -207.5 -78.5t-84.5 -244.5z" />
<glyph unicode="&#x1e18;" horiz-adv-x="1136" d="M158 -477l383 354h172l383 -354h-143l-326 231l-326 -231h-143zM168 0v1509h887v-168h-676v-493h543v-166h-543v-516h706v-166h-917z" />
<glyph unicode="&#x1e19;" d="M182 -501l383 354h172l383 -354h-143l-326 231l-326 -231h-143zM102 530v80q0 270 138.5 419t367.5 149q246 0 383 -156t137 -422v-86h-806q0 -184 97 -273t247 -89q184 0 376 92v-178q-152 -90 -391 -91q-238 0 -393.5 144.5t-155.5 410.5zM324 678h587 q-2 168 -80.5 245.5t-214.5 77.5q-129 0 -207.5 -78.5t-84.5 -244.5z" />
<glyph unicode="&#x1e1a;" horiz-adv-x="1136" d="M226 -280q31 63 95 110t150 47q66 0 172 -55q94 -53 168 -53q94 0 142 96l77 -68q-88 -160 -237 -159q-76 0 -182 55q-102 51 -162 51q-98 0 -152 -86zM168 0v1509h887v-168h-676v-493h543v-166h-543v-516h706v-166h-917z" />
<glyph unicode="&#x1e1b;" d="M250 -305q31 63 95 110t150 47q66 0 172 -55q94 -53 168 -53q94 0 142 96l77 -68q-88 -160 -237 -159q-76 0 -182 55q-102 51 -162 51q-98 0 -152 -86zM102 530v80q0 270 138.5 419t367.5 149q246 0 383 -156t137 -422v-86h-806q0 -184 97 -273t247 -89q184 0 376 92 v-178q-152 -90 -391 -91q-238 0 -393.5 144.5t-155.5 410.5zM324 678h587q-2 168 -80.5 245.5t-214.5 77.5q-129 0 -207.5 -78.5t-84.5 -244.5z" />
<glyph unicode="&#x1e1c;" horiz-adv-x="1136" d="M264 1979h147q6 -74 59.5 -123t137.5 -49q86 0 140.5 48t58.5 124h149q0 -139 -103.5 -232.5t-242.5 -93.5q-150 0 -248 93.5t-98 232.5zM532 -348q47 -20 109 -20q59 0 97 30.5t38 81.5q0 113 -137 113h-68v160h109v-74q106 0 166.5 -50.5t60.5 -140.5 q0 -98 -72.5 -157.5t-177.5 -59.5q-78 0 -125 17v100zM168 0v1509h887v-168h-676v-493h543v-166h-543v-516h706v-166h-917z" />
<glyph unicode="&#x1e1d;" d="M262 1626h147q6 -74 59.5 -123t137.5 -49q86 0 140.5 48t58.5 124h149q0 -139 -103.5 -232.5t-242.5 -93.5q-150 0 -248 93.5t-98 232.5zM557 -373q47 -20 109 -20q59 0 97 30.5t38 81.5q0 113 -137 113h-68v160h109v-74q106 0 166.5 -50.5t60.5 -140.5 q0 -98 -72.5 -157.5t-177.5 -59.5q-78 0 -125 17v100zM102 530v80q0 270 138.5 419t367.5 149q246 0 383 -156t137 -422v-86h-806q0 -184 97 -273t247 -89q184 0 376 92v-178q-152 -90 -391 -91q-238 0 -393.5 144.5t-155.5 410.5zM324 678h587q-2 168 -80.5 245.5 t-214.5 77.5q-129 0 -207.5 -78.5t-84.5 -244.5z" />
<glyph unicode="&#x1e1e;" horiz-adv-x="1089" d="M485 1773.5q0 51.5 32 86t79 34.5t79 -34.5t32 -86t-32 -86.5t-79 -35t-79 35t-32 86.5zM168 0v1509h856v-168h-645v-493h536v-164h-536v-684h-211z" />
<glyph unicode="&#x1e1f;" horiz-adv-x="593" d="M364 1773.5q0 51.5 32 86t79 34.5t79 -34.5t32 -86t-32 -86.5t-79 -35t-79 35t-32 86.5zM-2 979v149h160v33q0 178 80.5 273.5t236.5 95.5q135 0 248 -66l-72 -147q-78 43 -153 43q-66 0 -101 -50t-35 -139v-43h238v-151h-240v-977h-208v979h-154z" />
<glyph unicode="&#x1e20;" horiz-adv-x="1359" d="M383 1655v133h698v-133h-698zM88 717v82q0 334 179 533.5t464 199.5q250 0 387 -59v-201q-168 78 -360 78q-442 0 -443 -570v-43q0 -315 116 -454.5t308 -139.5q172 0 279 78v377h-281v170h496v-618q-190 -174 -512 -175q-295 0 -464 186.5t-169 555.5z" />
<glyph unicode="&#x1e21;" horiz-adv-x="1236" d="M244 1301v133h698v-133h-698zM102 567v33q0 283 129 428.5t361 145.5q90 0 169 -33t122 -90v88h204v-981q0 -256 -130 -391.5t-371 -135.5q-254 0 -383 58v161q168 -61 346 -61q182 0 258 77t76 228v56q-98 -156 -330 -156q-209 0 -330 145t-121 428zM322 532 q0 -389 274 -389q133 0 207 106.5t74 307.5v72q0 188 -57.5 284.5t-217.5 96.5q-131 0 -205.5 -91.5t-74.5 -285.5v-101z" />
<glyph unicode="&#x1e22;" horiz-adv-x="1380" d="M579 1773.5q0 51.5 32 86t79 34.5t79 -34.5t32 -86t-32 -86.5t-79 -35t-79 35t-32 86.5zM168 0v1509h217v-659h610v659h217v-1509h-217v680h-610v-680h-217z" />
<glyph unicode="&#x1e23;" d="M145 1753.5q0 51.5 32 86t79 34.5t79 -34.5t32 -86t-32 -86.5t-79 -35t-79 35t-32 86.5zM150 0v1509h210v-503q55 70 152.5 119t220.5 49q168 0 261 -94.5t93 -272.5v-807h-215v834q0 70 -56 115.5t-152 45.5q-78 0 -168 -46t-131 -122v-827h-215z" />
<glyph unicode="&#x1e24;" horiz-adv-x="1380" d="M579 -243.5q0 51.5 32 86t79 34.5t79 -34.5t32 -86t-32 -86.5t-79 -35t-79 35t-32 86.5zM168 0v1509h217v-659h610v659h217v-1509h-217v680h-610v-680h-217z" />
<glyph unicode="&#x1e25;" d="M507 -243.5q0 51.5 32 86t79 34.5t79 -34.5t32 -86t-32 -86.5t-79 -35t-79 35t-32 86.5zM150 0v1509h210v-503q55 70 152.5 119t220.5 49q168 0 261 -94.5t93 -272.5v-807h-215v834q0 70 -56 115.5t-152 45.5q-78 0 -168 -46t-131 -122v-827h-215z" />
<glyph unicode="&#x1e26;" horiz-adv-x="1380" d="M366 1757q0 41 31 72.5t72 31.5t72.5 -31.5t31.5 -72.5q0 -43 -31.5 -74t-72.5 -31q-39 0 -71 31t-32 74zM809 1757q0 41 31.5 72.5t70.5 31.5q41 0 73 -31.5t32 -72.5q0 -43 -32 -74t-73 -31q-39 0 -70.5 31t-31.5 74zM168 0v1509h217v-659h610v659h217v-1509h-217v680 h-610v-680h-217z" />
<glyph unicode="&#x1e27;" d="M292 1737q0 41 31 72.5t72 31.5t72.5 -31.5t31.5 -72.5q0 -43 -31.5 -74t-72.5 -31q-39 0 -71 31t-32 74zM735 1737q0 41 31.5 72.5t70.5 31.5q41 0 73 -31.5t32 -72.5q0 -43 -32 -74t-73 -31q-39 0 -70.5 31t-31.5 74zM150 0v1509h210v-503q55 70 152.5 119t220.5 49 q168 0 261 -94.5t93 -272.5v-807h-215v834q0 70 -56 115.5t-152 45.5q-78 0 -168 -46t-131 -122v-827h-215z" />
<glyph unicode="&#x1e28;" horiz-adv-x="1380" d="M184 -348q47 -20 109 -20q59 0 97 30.5t38 81.5q0 113 -137 113h-68v160h109v-74q106 0 166.5 -50.5t60.5 -140.5q0 -98 -72.5 -157.5t-177.5 -59.5q-78 0 -125 17v100zM168 0v1509h217v-659h610v659h217v-1509h-217v680h-610v-680h-217z" />
<glyph unicode="&#x1e29;" d="M163 -348q47 -20 109 -20q59 0 97 30.5t38 81.5q0 113 -137 113h-68v160h109v-74q106 0 166.5 -50.5t60.5 -140.5q0 -98 -72.5 -157.5t-177.5 -59.5q-78 0 -125 17v100zM150 0v1509h210v-503q55 70 152.5 119t220.5 49q168 0 261 -94.5t93 -272.5v-807h-215v834 q0 70 -56 115.5t-152 45.5q-78 0 -168 -46t-131 -122v-827h-215z" />
<glyph unicode="&#x1e2a;" horiz-adv-x="1380" d="M344 -123h147q6 -74 59.5 -123t137.5 -49q86 0 140.5 48t58.5 124h149q0 -139 -103.5 -232.5t-242.5 -93.5q-150 0 -248 93.5t-98 232.5zM168 0v1509h217v-659h610v659h217v-1509h-217v680h-610v-680h-217z" />
<glyph unicode="&#x1e2b;" d="M272 -123h147q6 -74 59.5 -123t137.5 -49q86 0 140.5 48t58.5 124h149q0 -139 -103.5 -232.5t-242.5 -93.5q-150 0 -248 93.5t-98 232.5zM150 0v1509h210v-503q55 70 152.5 119t220.5 49q168 0 261 -94.5t93 -272.5v-807h-215v834q0 70 -56 115.5t-152 45.5 q-78 0 -168 -46t-131 -122v-827h-215z" />
<glyph unicode="&#x1e2c;" horiz-adv-x="569" d="M-118 -280q31 63 95 110t150 47q66 0 172 -55q94 -53 168 -53q94 0 142 96l77 -68q-88 -160 -237 -159q-76 0 -182 55q-102 51 -162 51q-98 0 -152 -86zM176 0v1509h217v-1509h-217z" />
<glyph unicode="&#x1e2d;" horiz-adv-x="536" d="M-131 -280q31 63 95 110t150 47q66 0 172 -55q94 -53 168 -53q94 0 142 96l77 -68q-88 -160 -237 -159q-76 0 -182 55q-102 51 -162 51q-98 0 -152 -86zM150 1268v243h237v-243h-237zM166 0v1149h211v-1149h-211z" />
<glyph unicode="&#x1e2e;" horiz-adv-x="569" d="M204 1985l267 354h205l-314 -354h-158zM-39 1757q0 41 31 72.5t72 31.5t72.5 -31.5t31.5 -72.5q0 -43 -31.5 -74t-72.5 -31q-39 0 -71 31t-32 74zM404 1757q0 41 31.5 72.5t70.5 31.5q41 0 73 -31.5t32 -72.5q0 -43 -32 -74t-73 -31q-39 0 -70.5 31t-31.5 74zM176 0v1509 h217v-1509h-217z" />
<glyph unicode="&#x1e2f;" horiz-adv-x="536" d="M188 1966l267 354h205l-314 -354h-158zM-56 1739q0 41 31 72.5t72 31.5t72.5 -31.5t31.5 -72.5q0 -43 -31.5 -74t-72.5 -31q-39 0 -71 31t-32 74zM387 1739q0 41 31.5 72.5t70.5 31.5q41 0 73 -31.5t32 -72.5q0 -43 -32 -74t-73 -31q-39 0 -70.5 31t-31.5 74zM150 1268 v243h237v-243h-237zM166 0v1149h211v-1149h-211z" />
<glyph unicode="&#x1e30;" horiz-adv-x="1339" d="M618 1653l267 354h205l-314 -354h-158zM168 0v1509h217v-764l608 764h234l-510 -645l620 -864h-256l-499 698l-197 -229v-469h-217z" />
<glyph unicode="&#x1e31;" horiz-adv-x="1128" d="M174 1633l267 354h205l-314 -354h-158zM150 0v1509h210v-802l445 444h242l-490 -489l553 -662h-258l-453 543l-32 -27v-516h-217z" />
<glyph unicode="&#x1e32;" horiz-adv-x="1339" d="M641 -243.5q0 51.5 32 86t79 34.5t79 -34.5t32 -86t-32 -86.5t-79 -35t-79 35t-32 86.5zM168 0v1509h217v-764l608 764h234l-510 -645l620 -864h-256l-499 698l-197 -229v-469h-217z" />
<glyph unicode="&#x1e33;" horiz-adv-x="1128" d="M518 -243.5q0 51.5 32 86t79 34.5t79 -34.5t32 -86t-32 -86.5t-79 -35t-79 35t-32 86.5zM150 0v1509h210v-802l445 444h242l-490 -489l553 -662h-258l-453 543l-32 -27v-516h-217z" />
<glyph unicode="&#x1e34;" horiz-adv-x="1339" d="M404 -256v133h698v-133h-698zM168 0v1509h217v-764l608 764h234l-510 -645l620 -864h-256l-499 698l-197 -229v-469h-217z" />
<glyph unicode="&#x1e35;" horiz-adv-x="1128" d="M281 -256v133h698v-133h-698zM150 0v1509h210v-802l445 444h242l-490 -489l553 -662h-258l-453 543l-32 -27v-516h-217z" />
<glyph unicode="&#x1e36;" horiz-adv-x="1044" d="M477 -243.5q0 51.5 32 86t79 34.5t79 -34.5t32 -86t-32 -86.5t-79 -35t-79 35t-32 86.5zM168 0v1509h217v-1341h621v-168h-838z" />
<glyph unicode="&#x1e37;" horiz-adv-x="522" d="M149 -243.5q0 51.5 32 86t79 34.5t79 -34.5t32 -86t-32 -86.5t-79 -35t-79 35t-32 86.5zM156 0v1509h211v-1509h-211z" />
<glyph unicode="&#x1e38;" horiz-adv-x="1044" d="M-71 1653v133h698v-133h-698zM477 -243.5q0 51.5 32 86t79 34.5t79 -34.5t32 -86t-32 -86.5t-79 -35t-79 35t-32 86.5zM168 0v1509h217v-1341h621v-168h-838z" />
<glyph unicode="&#x1e39;" horiz-adv-x="522" d="M-88 1633v133h698v-133h-698zM149 -243.5q0 51.5 32 86t79 34.5t79 -34.5t32 -86t-32 -86.5t-79 -35t-79 35t-32 86.5zM156 0v1509h211v-1509h-211z" />
<glyph unicode="&#x1e3a;" horiz-adv-x="1044" d="M238 -256v133h698v-133h-698zM168 0v1509h217v-1341h621v-168h-838z" />
<glyph unicode="&#x1e3b;" horiz-adv-x="522" d="M-88 -256v133h698v-133h-698zM156 0v1509h211v-1509h-211z" />
<glyph unicode="&#x1e3c;" horiz-adv-x="1044" d="M117 -477l383 354h172l383 -354h-143l-326 231l-326 -231h-143zM168 0v1509h217v-1341h621v-168h-838z" />
<glyph unicode="&#x1e3d;" horiz-adv-x="522" d="M-207 -477l383 354h172l383 -354h-143l-326 231l-326 -231h-143zM156 0v1509h211v-1509h-211z" />
<glyph unicode="&#x1e3e;" horiz-adv-x="1789" d="M817 1653l267 354h205l-314 -354h-158zM168 0v1509h225l510 -1323l514 1323h205v-1509h-197v1077l-424 -1077h-215l-424 1077v-1077h-194z" />
<glyph unicode="&#x1e3f;" horiz-adv-x="1947" d="M1013 1301l267 354h205l-314 -354h-158zM150 0v1141h202l6 -148q43 70 145.5 125.5t229.5 55.5q238 0 322 -195q168 195 399 195q156 0 254 -93.5t98 -273.5v-807h-215v838q0 76 -57 119.5t-154 43.5q-76 0 -160.5 -41.5t-134.5 -121.5v-838h-215v838q0 76 -57 119.5 t-154 43.5q-76 0 -160.5 -41.5t-133.5 -121.5v-838h-215z" />
<glyph unicode="&#x1e40;" horiz-adv-x="1789" d="M784 1773.5q0 51.5 32 86t79 34.5t79 -34.5t32 -86t-32 -86.5t-79 -35t-79 35t-32 86.5zM168 0v1509h225l510 -1323l514 1323h205v-1509h-197v1077l-424 -1077h-215l-424 1077v-1077h-194z" />
<glyph unicode="&#x1e41;" horiz-adv-x="1947" d="M983 1421.5q0 51.5 32 86t79 34.5t79 -34.5t32 -86t-32 -86.5t-79 -35t-79 35t-32 86.5zM150 0v1141h202l6 -148q43 70 145.5 125.5t229.5 55.5q238 0 322 -195q168 195 399 195q156 0 254 -93.5t98 -273.5v-807h-215v838q0 76 -57 119.5t-154 43.5q-76 0 -160.5 -41.5 t-134.5 -121.5v-838h-215v838q0 76 -57 119.5t-154 43.5q-76 0 -160.5 -41.5t-133.5 -121.5v-838h-215z" />
<glyph unicode="&#x1e42;" horiz-adv-x="1789" d="M784 -243.5q0 51.5 32 86t79 34.5t79 -34.5t32 -86t-32 -86.5t-79 -35t-79 35t-32 86.5zM168 0v1509h225l510 -1323l514 1323h205v-1509h-197v1077l-424 -1077h-215l-424 1077v-1077h-194z" />
<glyph unicode="&#x1e43;" horiz-adv-x="1947" d="M866 -243.5q0 51.5 32 86t79 34.5t79 -34.5t32 -86t-32 -86.5t-79 -35t-79 35t-32 86.5zM150 0v1141h202l6 -148q43 70 145.5 125.5t229.5 55.5q238 0 322 -195q168 195 399 195q156 0 254 -93.5t98 -273.5v-807h-215v838q0 76 -57 119.5t-154 43.5q-76 0 -160.5 -41.5 t-134.5 -121.5v-838h-215v838q0 76 -57 119.5t-154 43.5q-76 0 -160.5 -41.5t-133.5 -121.5v-838h-215z" />
<glyph unicode="&#x1e44;" horiz-adv-x="1437" d="M608 1773.5q0 51.5 32 86t79 34.5t79 -34.5t32 -86t-32 -86.5t-79 -35t-79 35t-32 86.5zM168 0v1509h141l760 -1103v1103h201v-1509h-146l-755 1087v-1087h-201z" />
<glyph unicode="&#x1e45;" d="M507 1421.5q0 51.5 32 86t79 34.5t79 -34.5t32 -86t-32 -86.5t-79 -35t-79 35t-32 86.5zM150 0v1141h202l6 -148q43 70 145.5 125.5t229.5 55.5q156 0 255 -93.5t99 -273.5v-807h-215v840q0 76 -58 120t-155 44q-76 0 -160.5 -42t-133.5 -122v-840h-215z" />
<glyph unicode="&#x1e46;" horiz-adv-x="1437" d="M608 -243.5q0 51.5 32 86t79 34.5t79 -34.5t32 -86t-32 -86.5t-79 -35t-79 35t-32 86.5zM168 0v1509h141l760 -1103v1103h201v-1509h-146l-755 1087v-1087h-201z" />
<glyph unicode="&#x1e47;" d="M507 -243.5q0 51.5 32 86t79 34.5t79 -34.5t32 -86t-32 -86.5t-79 -35t-79 35t-32 86.5zM150 0v1141h202l6 -148q43 70 145.5 125.5t229.5 55.5q156 0 255 -93.5t99 -273.5v-807h-215v840q0 76 -58 120t-155 44q-76 0 -160.5 -42t-133.5 -122v-840h-215z" />
<glyph unicode="&#x1e48;" horiz-adv-x="1437" d="M371 -256v133h698v-133h-698zM168 0v1509h141l760 -1103v1103h201v-1509h-146l-755 1087v-1087h-201z" />
<glyph unicode="&#x1e49;" d="M268 -256v133h698v-133h-698zM150 0v1141h202l6 -148q43 70 145.5 125.5t229.5 55.5q156 0 255 -93.5t99 -273.5v-807h-215v840q0 76 -58 120t-155 44q-76 0 -160.5 -42t-133.5 -122v-840h-215z" />
<glyph unicode="&#x1e4a;" horiz-adv-x="1437" d="M250 -477l383 354h172l383 -354h-143l-326 231l-326 -231h-143zM168 0v1509h141l760 -1103v1103h201v-1509h-146l-755 1087v-1087h-201z" />
<glyph unicode="&#x1e4b;" d="M149 -477l383 354h172l383 -354h-143l-326 231l-326 -231h-143zM150 0v1141h202l6 -148q43 70 145.5 125.5t229.5 55.5q156 0 255 -93.5t99 -273.5v-807h-215v840q0 76 -58 120t-155 44q-76 0 -160.5 -42t-133.5 -122v-840h-215z" />
<glyph unicode="&#x1e4c;" horiz-adv-x="1366" d="M452 2016l267 354h205l-314 -354h-158zM287 1735q31 63 95 110t150 47q66 0 172 -55q94 -53 168 -53q94 0 142 96l77 -68q-88 -160 -237 -159q-76 0 -182 55q-102 51 -162 51q-98 0 -152 -86zM90 702v86q0 350 150.5 546t447.5 196q598 0 598 -742v-81q0 -731 -598 -732 q-279 0 -438.5 180t-159.5 547zM313 731q0 -326 92.5 -463t282.5 -137q129 0 208 50t123 183.5t44 362.5v41q0 307 -86 450.5t-289 143.5q-201 0 -288 -136t-87 -458v-37z" />
<glyph unicode="&#x1e4d;" horiz-adv-x="1298" d="M409 1663l267 354h205l-314 -354h-158zM242 1383q31 63 95 110t150 47q66 0 172 -55q94 -53 168 -53q94 0 142 96l77 -68q-88 -160 -237 -159q-76 0 -182 55q-102 51 -162 51q-98 0 -152 -86zM102 541v73q0 244 150.5 404t392.5 160q143 0 253 -45.5t173.5 -125t94 -178 t30.5 -215.5v-73q0 -248 -151.5 -407t-399.5 -159q-246 0 -394.5 158t-148.5 408zM317 569q0 -203 85 -315.5t243 -112.5q340 0 340 428v17q0 418 -334 418q-164 0 -249 -109t-85 -309v-17z" />
<glyph unicode="&#x1e4e;" horiz-adv-x="1366" d="M206 2120q0 41 31 72.5t72 31.5t72.5 -31.5t31.5 -72.5q0 -43 -31.5 -74t-72.5 -31q-39 0 -71 31t-32 74zM649 2120q0 41 31.5 72.5t70.5 31.5q41 0 73 -31.5t32 -72.5q0 -43 -32 -74t-73 -31q-39 0 -70.5 31t-31.5 74zM287 1735q31 63 95 110t150 47q66 0 172 -55 q94 -53 168 -53q94 0 142 96l77 -68q-88 -160 -237 -159q-76 0 -182 55q-102 51 -162 51q-98 0 -152 -86zM90 702v86q0 350 150.5 546t447.5 196q598 0 598 -742v-81q0 -731 -598 -732q-279 0 -438.5 180t-159.5 547zM313 731q0 -326 92.5 -463t282.5 -137q129 0 208 50 t123 183.5t44 362.5v41q0 307 -86 450.5t-289 143.5q-201 0 -288 -136t-87 -458v-37z" />
<glyph unicode="&#x1e4f;" horiz-adv-x="1298" d="M163 1768q0 41 31 72.5t72 31.5t72.5 -31.5t31.5 -72.5q0 -43 -31.5 -74t-72.5 -31q-39 0 -71 31t-32 74zM606 1768q0 41 31.5 72.5t70.5 31.5q41 0 73 -31.5t32 -72.5q0 -43 -32 -74t-73 -31q-39 0 -70.5 31t-31.5 74zM242 1383q31 63 95 110t150 47q66 0 172 -55 q94 -53 168 -53q94 0 142 96l77 -68q-88 -160 -237 -159q-76 0 -182 55q-102 51 -162 51q-98 0 -152 -86zM102 541v73q0 244 150.5 404t392.5 160q143 0 253 -45.5t173.5 -125t94 -178t30.5 -215.5v-73q0 -248 -151.5 -407t-399.5 -159q-246 0 -394.5 158t-148.5 408z M317 569q0 -203 85 -315.5t243 -112.5q340 0 340 428v17q0 418 -334 418q-164 0 -249 -109t-85 -309v-17z" />
<glyph unicode="&#x1e50;" horiz-adv-x="1366" d="M297 2263h204l267 -354h-158zM338 1653v133h698v-133h-698zM90 702v86q0 350 150.5 546t447.5 196q598 0 598 -742v-81q0 -731 -598 -732q-279 0 -438.5 180t-159.5 547zM313 731q0 -326 92.5 -463t282.5 -137q129 0 208 50t123 183.5t44 362.5v41q0 307 -86 450.5 t-289 143.5q-201 0 -288 -136t-87 -458v-37z" />
<glyph unicode="&#x1e51;" horiz-adv-x="1298" d="M252 1911h204l267 -354h-158zM297 1301v133h698v-133h-698zM102 541v73q0 244 150.5 404t392.5 160q143 0 253 -45.5t173.5 -125t94 -178t30.5 -215.5v-73q0 -248 -151.5 -407t-399.5 -159q-246 0 -394.5 158t-148.5 408zM317 569q0 -203 85 -315.5t243 -112.5 q340 0 340 428v17q0 418 -334 418q-164 0 -249 -109t-85 -309v-17z" />
<glyph unicode="&#x1e52;" horiz-adv-x="1366" d="M608 1909l267 354h205l-314 -354h-158zM338 1653v133h698v-133h-698zM90 702v86q0 350 150.5 546t447.5 196q598 0 598 -742v-81q0 -731 -598 -732q-279 0 -438.5 180t-159.5 547zM313 731q0 -326 92.5 -463t282.5 -137q129 0 208 50t123 183.5t44 362.5v41 q0 307 -86 450.5t-289 143.5q-201 0 -288 -136t-87 -458v-37z" />
<glyph unicode="&#x1e53;" horiz-adv-x="1298" d="M567 1557l267 354h205l-314 -354h-158zM297 1301v133h698v-133h-698zM102 541v73q0 244 150.5 404t392.5 160q143 0 253 -45.5t173.5 -125t94 -178t30.5 -215.5v-73q0 -248 -151.5 -407t-399.5 -159q-246 0 -394.5 158t-148.5 408zM317 569q0 -203 85 -315.5t243 -112.5 q340 0 340 428v17q0 418 -334 418q-164 0 -249 -109t-85 -309v-17z" />
<glyph unicode="&#x1e54;" horiz-adv-x="1189" d="M350 1653l267 354h205l-314 -354h-158zM168 0v1509h524q203 0 318.5 -113.5t115.5 -297.5v-94q0 -166 -110.5 -279t-296.5 -113h-336v-612h-215zM383 788h332q92 0 140 58.5t48 150.5v105q0 102 -56 165.5t-149 63.5h-315v-543z" />
<glyph unicode="&#x1e55;" horiz-adv-x="1241" d="M591 1301l267 354h205l-314 -354h-158zM150 -342v1483h196l10 -150q31 72 122 127.5t192 55.5q238 0 353.5 -142.5t115.5 -365.5v-134q0 -266 -127 -406t-348 -140q-106 0 -189.5 42t-114.5 97v-467h-210zM362 352q0 -68 76 -137.5t195 -69.5q135 0 211 101.5t76 302.5 v76q0 184 -75 280t-212 96q-186 0 -271 -165v-484z" />
<glyph unicode="&#x1e56;" horiz-adv-x="1189" d="M319 1773.5q0 51.5 32 86t79 34.5t79 -34.5t32 -86t-32 -86.5t-79 -35t-79 35t-32 86.5zM168 0v1509h524q203 0 318.5 -113.5t115.5 -297.5v-94q0 -166 -110.5 -279t-296.5 -113h-336v-612h-215zM383 788h332q92 0 140 58.5t48 150.5v105q0 102 -56 165.5t-149 63.5h-315 v-543z" />
<glyph unicode="&#x1e57;" horiz-adv-x="1241" d="M559 1421.5q0 51.5 32 86t79 34.5t79 -34.5t32 -86t-32 -86.5t-79 -35t-79 35t-32 86.5zM150 -342v1483h196l10 -150q31 72 122 127.5t192 55.5q238 0 353.5 -142.5t115.5 -365.5v-134q0 -266 -127 -406t-348 -140q-106 0 -189.5 42t-114.5 97v-467h-210zM362 352 q0 -68 76 -137.5t195 -69.5q135 0 211 101.5t76 302.5v76q0 184 -75 280t-212 96q-186 0 -271 -165v-484z" />
<glyph unicode="&#x1e58;" horiz-adv-x="1251" d="M344 1773.5q0 51.5 32 86t79 34.5t79 -34.5t32 -86t-32 -86.5t-79 -35t-79 35t-32 86.5zM168 0v1509h573q172 0 272.5 -97t100.5 -228v-82q0 -135 -72.5 -220t-218.5 -106q115 -27 185.5 -103.5t108.5 -241.5t38 -431h-221q-2 360 -71.5 521t-213.5 161h-264v-682h-217z M385 850h289q115 0 170 62.5t55 158.5v41q0 100 -54 158.5t-153 58.5h-307v-479z" />
<glyph unicode="&#x1e59;" horiz-adv-x="987" d="M440 1421.5q0 51.5 32 86t79 34.5t79 -34.5t32 -86t-32 -86.5t-79 -35t-79 35t-32 86.5zM150 0v1141h202l6 -125q33 68 114 113t190 45q147 0 227 -98q65 -79 65 -186q0 -25 -4 -50h-184v13q0 74 -41 113q-45 42 -129 42q-78 0 -141.5 -40t-89.5 -102v-866h-215z" />
<glyph unicode="&#x1e5a;" horiz-adv-x="1251" d="M550 -243.5q0 51.5 32 86t79 34.5t79 -34.5t32 -86t-32 -86.5t-79 -35t-79 35t-32 86.5zM168 0v1509h573q172 0 272.5 -97t100.5 -228v-82q0 -135 -72.5 -220t-218.5 -106q115 -27 185.5 -103.5t108.5 -241.5t38 -431h-221q-2 360 -71.5 521t-213.5 161h-264v-682h-217z M385 850h289q115 0 170 62.5t55 158.5v41q0 100 -54 158.5t-153 58.5h-307v-479z" />
<glyph unicode="&#x1e5b;" horiz-adv-x="987" d="M145 -243.5q0 51.5 32 86t79 34.5t79 -34.5t32 -86t-32 -86.5t-79 -35t-79 35t-32 86.5zM150 0v1141h202l6 -125q33 68 114 113t190 45q147 0 227 -98q65 -79 65 -186q0 -25 -4 -50h-184v13q0 74 -41 113q-45 42 -129 42q-78 0 -141.5 -40t-89.5 -102v-866h-215z" />
<glyph unicode="&#x1e5c;" horiz-adv-x="1251" d="M105 1653v133h698v-133h-698zM550 -243.5q0 51.5 32 86t79 34.5t79 -34.5t32 -86t-32 -86.5t-79 -35t-79 35t-32 86.5zM168 0v1509h573q172 0 272.5 -97t100.5 -228v-82q0 -135 -72.5 -220t-218.5 -106q115 -27 185.5 -103.5t108.5 -241.5t38 -431h-221q-2 360 -71.5 521 t-213.5 161h-264v-682h-217zM385 850h289q115 0 170 62.5t55 158.5v41q0 100 -54 158.5t-153 58.5h-307v-479z" />
<glyph unicode="&#x1e5d;" horiz-adv-x="987" d="M314 1301v133h698v-133h-698zM145 -243.5q0 51.5 32 86t79 34.5t79 -34.5t32 -86t-32 -86.5t-79 -35t-79 35t-32 86.5zM150 0v1141h202l6 -125q33 68 114 113t190 45q147 0 227 -98q65 -79 65 -186q0 -25 -4 -50h-184v13q0 74 -41 113q-45 42 -129 42q-78 0 -141.5 -40 t-89.5 -102v-866h-215z" />
<glyph unicode="&#x1e5e;" horiz-adv-x="1251" d="M314 -256v133h698v-133h-698zM168 0v1509h573q172 0 272.5 -97t100.5 -228v-82q0 -135 -72.5 -220t-218.5 -106q115 -27 185.5 -103.5t108.5 -241.5t38 -431h-221q-2 360 -71.5 521t-213.5 161h-264v-682h-217zM385 850h289q115 0 170 62.5t55 158.5v41q0 100 -54 158.5 t-153 58.5h-307v-479z" />
<glyph unicode="&#x1e5f;" horiz-adv-x="987" d="M-92 -256v133h698v-133h-698zM150 0v1141h202l6 -125q33 68 114 113t190 45q147 0 227 -98q65 -79 65 -186q0 -25 -4 -50h-184v13q0 74 -41 113q-45 42 -129 42q-78 0 -141.5 -40t-89.5 -102v-866h-215z" />
<glyph unicode="&#x1e60;" horiz-adv-x="1155" d="M546 1773.5q0 51.5 32 86t79 34.5t79 -34.5t32 -86t-32 -86.5t-79 -35t-79 35t-32 86.5zM61 47v201q158 -94 449 -94q188 0 275 63.5t87 157.5q0 90 -68.5 155.5t-254.5 137.5q-233 90 -331.5 191.5t-98.5 256.5q0 182 142 298t396 116q201 0 351 -57v-179 q-217 53 -365 54q-160 0 -235.5 -57.5t-75.5 -133.5q0 -106 57 -164.5t262 -138.5q225 -88 329.5 -189.5t104.5 -265.5q0 -203 -149.5 -311t-433.5 -108q-265 -1 -441 67z" />
<glyph unicode="&#x1e61;" horiz-adv-x="897" d="M374 1421.5q0 51.5 32 86t79 34.5t79 -34.5t32 -86t-32 -86.5t-79 -35t-79 35t-32 86.5zM63 39v170q133 -78 345 -78q250 0 249 180q0 78 -63.5 123t-216.5 92q-152 45 -221.5 114t-69.5 198q0 147 101.5 239t297.5 92q162 0 287 -59v-176q-104 61 -270 61 q-225 0 -226 -129q0 -76 47.5 -110.5t200.5 -83.5q162 -51 241 -125t79 -211q0 -176 -111.5 -268.5t-320.5 -92.5q-245 1 -349 64z" />
<glyph unicode="&#x1e62;" horiz-adv-x="1155" d="M391 -263.5q0 51.5 32 86t79 34.5t79 -34.5t32 -86t-32 -86.5t-79 -35t-79 35t-32 86.5zM61 47v201q158 -94 449 -94q188 0 275 63.5t87 157.5q0 90 -68.5 155.5t-254.5 137.5q-233 90 -331.5 191.5t-98.5 256.5q0 182 142 298t396 116q201 0 351 -57v-179 q-217 53 -365 54q-160 0 -235.5 -57.5t-75.5 -133.5q0 -106 57 -164.5t262 -138.5q225 -88 329.5 -189.5t104.5 -265.5q0 -203 -149.5 -311t-433.5 -108q-265 -1 -441 67z" />
<glyph unicode="&#x1e63;" horiz-adv-x="897" d="M301 -268.5q0 51.5 32 86t79 34.5t79 -34.5t32 -86t-32 -86.5t-79 -35t-79 35t-32 86.5zM63 39v170q133 -78 345 -78q250 0 249 180q0 78 -63.5 123t-216.5 92q-152 45 -221.5 114t-69.5 198q0 147 101.5 239t297.5 92q162 0 287 -59v-176q-104 61 -270 61 q-225 0 -226 -129q0 -76 47.5 -110.5t200.5 -83.5q162 -51 241 -125t79 -211q0 -176 -111.5 -268.5t-320.5 -92.5q-245 1 -349 64z" />
<glyph unicode="&#x1e64;" horiz-adv-x="1155" d="M837 2250.5q0 51.5 32 86t79 34.5t79 -34.5t32 -86t-32 -86.5t-79 -35t-79 35t-32 86.5zM579 1653l267 354h205l-314 -354h-158zM61 47v201q158 -94 449 -94q188 0 275 63.5t87 157.5q0 90 -68.5 155.5t-254.5 137.5q-233 90 -331.5 191.5t-98.5 256.5q0 182 142 298 t396 116q201 0 351 -57v-179q-217 53 -365 54q-160 0 -235.5 -57.5t-75.5 -133.5q0 -106 57 -164.5t262 -138.5q225 -88 329.5 -189.5t104.5 -265.5q0 -203 -149.5 -311t-433.5 -108q-265 -1 -441 67z" />
<glyph unicode="&#x1e65;" horiz-adv-x="897" d="M665 1898.5q0 51.5 32 86t79 34.5t79 -34.5t32 -86t-32 -86.5t-79 -35t-79 35t-32 86.5zM407 1301l267 354h205l-314 -354h-158zM63 39v170q133 -78 345 -78q250 0 249 180q0 78 -63.5 123t-216.5 92q-152 45 -221.5 114t-69.5 198q0 147 101.5 239t297.5 92 q162 0 287 -59v-176q-104 61 -270 61q-225 0 -226 -129q0 -76 47.5 -110.5t200.5 -83.5q162 -51 241 -125t79 -211q0 -176 -111.5 -268.5t-320.5 -92.5q-245 1 -349 64z" />
<glyph unicode="&#x1e66;" horiz-adv-x="1155" d="M546 2250.5q0 51.5 32 86t79 34.5t79 -34.5t32 -86t-32 -86.5t-79 -35t-79 35t-32 86.5zM188 2007h143l326 -238l326 238h143l-391 -354h-156zM61 47v201q158 -94 449 -94q188 0 275 63.5t87 157.5q0 90 -68.5 155.5t-254.5 137.5q-233 90 -331.5 191.5t-98.5 256.5 q0 182 142 298t396 116q201 0 351 -57v-179q-217 53 -365 54q-160 0 -235.5 -57.5t-75.5 -133.5q0 -106 57 -164.5t262 -138.5q225 -88 329.5 -189.5t104.5 -265.5q0 -203 -149.5 -311t-433.5 -108q-265 -1 -441 67z" />
<glyph unicode="&#x1e67;" horiz-adv-x="897" d="M374 1898.5q0 51.5 32 86t79 34.5t79 -34.5t32 -86t-32 -86.5t-79 -35t-79 35t-32 86.5zM16 1655h143l326 -238l326 238h143l-391 -354h-156zM63 39v170q133 -78 345 -78q250 0 249 180q0 78 -63.5 123t-216.5 92q-152 45 -221.5 114t-69.5 198q0 147 101.5 239t297.5 92 q162 0 287 -59v-176q-104 61 -270 61q-225 0 -226 -129q0 -76 47.5 -110.5t200.5 -83.5q162 -51 241 -125t79 -211q0 -176 -111.5 -268.5t-320.5 -92.5q-245 1 -349 64z" />
<glyph unicode="&#x1e68;" horiz-adv-x="1155" d="M546 1773.5q0 51.5 32 86t79 34.5t79 -34.5t32 -86t-32 -86.5t-79 -35t-79 35t-32 86.5zM391 -263.5q0 51.5 32 86t79 34.5t79 -34.5t32 -86t-32 -86.5t-79 -35t-79 35t-32 86.5zM61 47v201q158 -94 449 -94q188 0 275 63.5t87 157.5q0 90 -68.5 155.5t-254.5 137.5 q-233 90 -331.5 191.5t-98.5 256.5q0 182 142 298t396 116q201 0 351 -57v-179q-217 53 -365 54q-160 0 -235.5 -57.5t-75.5 -133.5q0 -106 57 -164.5t262 -138.5q225 -88 329.5 -189.5t104.5 -265.5q0 -203 -149.5 -311t-433.5 -108q-265 -1 -441 67z" />
<glyph unicode="&#x1e69;" horiz-adv-x="897" d="M374 1421.5q0 51.5 32 86t79 34.5t79 -34.5t32 -86t-32 -86.5t-79 -35t-79 35t-32 86.5zM301 -268.5q0 51.5 32 86t79 34.5t79 -34.5t32 -86t-32 -86.5t-79 -35t-79 35t-32 86.5zM63 39v170q133 -78 345 -78q250 0 249 180q0 78 -63.5 123t-216.5 92q-152 45 -221.5 114 t-69.5 198q0 147 101.5 239t297.5 92q162 0 287 -59v-176q-104 61 -270 61q-225 0 -226 -129q0 -76 47.5 -110.5t200.5 -83.5q162 -51 241 -125t79 -211q0 -176 -111.5 -268.5t-320.5 -92.5q-245 1 -349 64z" />
<glyph unicode="&#x1e6a;" horiz-adv-x="983" d="M380 1773.5q0 51.5 32 86t79 34.5t79 -34.5t32 -86t-32 -86.5t-79 -35t-79 35t-32 86.5zM10 1331v178h963v-178h-373v-1331h-217v1331h-373z" />
<glyph unicode="&#x1e6b;" horiz-adv-x="829" d="M206 1712.5q0 51.5 32 86t79 34.5t79 -34.5t32 -86t-32 -86.5t-79 -35t-79 35t-32 86.5zM20 979v149l193 9l53 331h156v-340h342v-151h-342v-643q0 -182 186 -182q70 0 164 22v-154q-82 -31 -213 -30q-178 0 -262 91t-84 308v590h-193z" />
<glyph unicode="&#x1e6c;" horiz-adv-x="983" d="M380 -243.5q0 51.5 32 86t79 34.5t79 -34.5t32 -86t-32 -86.5t-79 -35t-79 35t-32 86.5zM10 1331v178h963v-178h-373v-1331h-217v1331h-373z" />
<glyph unicode="&#x1e6d;" horiz-adv-x="829" d="M448 -253.5q0 51.5 32 86t79 34.5t79 -34.5t32 -86t-32 -86.5t-79 -35t-79 35t-32 86.5zM20 979v149l193 9l53 331h156v-340h342v-151h-342v-643q0 -182 186 -182q70 0 164 22v-154q-82 -31 -213 -30q-178 0 -262 91t-84 308v590h-193z" />
<glyph unicode="&#x1e6e;" horiz-adv-x="983" d="M142 -256v133h698v-133h-698zM10 1331v178h963v-178h-373v-1331h-217v1331h-373z" />
<glyph unicode="&#x1e6f;" horiz-adv-x="829" d="M211 -266v133h698v-133h-698zM20 979v149l193 9l53 331h156v-340h342v-151h-342v-643q0 -182 186 -182q70 0 164 22v-154q-82 -31 -213 -30q-178 0 -262 91t-84 308v590h-193z" />
<glyph unicode="&#x1e70;" horiz-adv-x="983" d="M23 -477l383 354h172l383 -354h-143l-326 231l-326 -231h-143zM10 1331v178h963v-178h-373v-1331h-217v1331h-373z" />
<glyph unicode="&#x1e71;" horiz-adv-x="829" d="M90 -487l383 354h172l383 -354h-143l-326 231l-326 -231h-143zM20 979v149l193 9l53 331h156v-340h342v-151h-342v-643q0 -182 186 -182q70 0 164 22v-154q-82 -31 -213 -30q-178 0 -262 91t-84 308v590h-193z" />
<glyph unicode="&#x1e72;" horiz-adv-x="1302" d="M333 -246q0 41 31 72.5t72 31.5t72.5 -31.5t31.5 -72.5q0 -43 -31.5 -74t-72.5 -31q-39 0 -71 31t-32 74zM776 -246q0 41 31.5 72.5t70.5 31.5q41 0 73 -31.5t32 -72.5q0 -43 -32 -74t-73 -31q-39 0 -70.5 31t-31.5 74zM147 522v987h218v-1028q0 -139 68.5 -231 t223.5 -92q152 0 228 70.5t76 258.5v1022h210v-1044q0 -223 -132 -353t-379.5 -130t-380 138t-132.5 402z" />
<glyph unicode="&#x1e73;" d="M165 -248q0 41 31 72.5t72 31.5t72.5 -31.5t31.5 -72.5q0 -43 -31.5 -74t-72.5 -31q-39 0 -71 31t-32 74zM608 -248q0 41 31.5 72.5t70.5 31.5q41 0 73 -31.5t32 -72.5q0 -43 -32 -74t-73 -31q-39 0 -70.5 31t-31.5 74zM139 336v807h215v-787q0 -209 221 -209 q78 0 157 41t130 119v836h215v-1143h-203l-6 156q-57 -80 -157.5 -128t-221.5 -48q-145 0 -247.5 92t-102.5 264z" />
<glyph unicode="&#x1e74;" horiz-adv-x="1302" d="M258 -299q31 63 95 110t150 47q66 0 172 -55q94 -53 168 -53q94 0 142 96l77 -68q-88 -160 -237 -159q-76 0 -182 55q-102 51 -162 51q-98 0 -152 -86zM147 522v987h218v-1028q0 -139 68.5 -231t223.5 -92q152 0 228 70.5t76 258.5v1022h210v-1044q0 -223 -132 -353 t-379.5 -130t-380 138t-132.5 402z" />
<glyph unicode="&#x1e75;" d="M86 -301q31 63 95 110t150 47q66 0 172 -55q94 -53 168 -53q94 0 142 96l77 -68q-88 -160 -237 -159q-76 0 -182 55q-102 51 -162 51q-98 0 -152 -86zM139 336v807h215v-787q0 -209 221 -209q78 0 157 41t130 119v836h215v-1143h-203l-6 156q-57 -80 -157.5 -128 t-221.5 -48q-145 0 -247.5 92t-102.5 264z" />
<glyph unicode="&#x1e76;" horiz-adv-x="1302" d="M190 -495l383 354h172l383 -354h-143l-326 231l-326 -231h-143zM147 522v987h218v-1028q0 -139 68.5 -231t223.5 -92q152 0 228 70.5t76 258.5v1022h210v-1044q0 -223 -132 -353t-379.5 -130t-380 138t-132.5 402z" />
<glyph unicode="&#x1e77;" d="M20 -497l383 354h172l383 -354h-143l-326 231l-326 -231h-143zM139 336v807h215v-787q0 -209 221 -209q78 0 157 41t130 119v836h215v-1143h-203l-6 156q-57 -80 -157.5 -128t-221.5 -48q-145 0 -247.5 92t-102.5 264z" />
<glyph unicode="&#x1e78;" horiz-adv-x="1302" d="M423 2016l267 354h205l-314 -354h-158zM258 1735q31 63 95 110t150 47q66 0 172 -55q94 -53 168 -53q94 0 142 96l77 -68q-88 -160 -237 -159q-76 0 -182 55q-102 51 -162 51q-98 0 -152 -86zM147 522v987h218v-1028q0 -139 68.5 -231t223.5 -92q152 0 228 70.5t76 258.5 v1022h210v-1044q0 -223 -132 -353t-379.5 -130t-380 138t-132.5 402z" />
<glyph unicode="&#x1e79;" d="M372 1663l267 354h205l-314 -354h-158zM205 1383q31 63 95 110t150 47q66 0 172 -55q94 -53 168 -53q94 0 142 96l77 -68q-88 -160 -237 -159q-76 0 -182 55q-102 51 -162 51q-98 0 -152 -86zM139 336v807h215v-787q0 -209 221 -209q78 0 157 41t130 119v836h215v-1143 h-203l-6 156q-57 -80 -157.5 -128t-221.5 -48q-145 0 -247.5 92t-102.5 264z" />
<glyph unicode="&#x1e7a;" horiz-adv-x="1302" d="M333 2013q0 41 31 72.5t72 31.5t72.5 -31.5t31.5 -72.5q0 -43 -31.5 -74t-72.5 -31q-39 0 -71 31t-32 74zM776 2013q0 41 31.5 72.5t70.5 31.5q41 0 73 -31.5t32 -72.5q0 -43 -32 -74t-73 -31q-39 0 -70.5 31t-31.5 74zM309 1653v133h698v-133h-698zM147 522v987h218 v-1028q0 -139 68.5 -231t223.5 -92q152 0 228 70.5t76 258.5v1022h210v-1044q0 -223 -132 -353t-379.5 -130t-380 138t-132.5 402z" />
<glyph unicode="&#x1e7b;" d="M284 1661q0 41 31 72.5t72 31.5t72.5 -31.5t31.5 -72.5q0 -43 -31.5 -74t-72.5 -31q-39 0 -71 31t-32 74zM727 1661q0 41 31.5 72.5t70.5 31.5q41 0 73 -31.5t32 -72.5q0 -43 -32 -74t-73 -31q-39 0 -70.5 31t-31.5 74zM260 1301v133h698v-133h-698zM139 336v807h215 v-787q0 -209 221 -209q78 0 157 41t130 119v836h215v-1143h-203l-6 156q-57 -80 -157.5 -128t-221.5 -48q-145 0 -247.5 92t-102.5 264z" />
<glyph unicode="&#x1e7c;" horiz-adv-x="1181" d="M189 1735q31 63 95 110t150 47q66 0 172 -55q94 -53 168 -53q94 0 142 96l77 -68q-88 -160 -237 -159q-76 0 -182 55q-102 51 -162 51q-98 0 -152 -86zM2 1509h225l367 -1271l369 1271h217l-469 -1509h-242z" />
<glyph unicode="&#x1e7d;" horiz-adv-x="1136" d="M166 1383q31 63 95 110t150 47q66 0 172 -55q94 -53 168 -53q94 0 142 96l77 -68q-88 -160 -237 -159q-76 0 -182 55q-102 51 -162 51q-98 0 -152 -86zM2 1143h217l356 -879l347 879h213l-476 -1143h-184z" />
<glyph unicode="&#x1e7e;" horiz-adv-x="1181" d="M479 -243.5q0 51.5 32 86t79 34.5t79 -34.5t32 -86t-32 -86.5t-79 -35t-79 35t-32 86.5zM2 1509h225l367 -1271l369 1271h217l-469 -1509h-242z" />
<glyph unicode="&#x1e7f;" horiz-adv-x="1136" d="M456 -243.5q0 51.5 32 86t79 34.5t79 -34.5t32 -86t-32 -86.5t-79 -35t-79 35t-32 86.5zM2 1143h217l356 -879l347 879h213l-476 -1143h-184z" />
<glyph unicode="&#x1e80;" horiz-adv-x="1875" d="M543 2007h204l267 -354h-158zM4 1509h229l293 -1276l310 1276h202l303 -1276l304 1276h221l-418 -1509h-242l-280 1184l-297 -1184h-242z" />
<glyph unicode="&#x1e81;" horiz-adv-x="1736" d="M478 1655h204l267 -354h-158zM2 1143h217l260 -887l305 887h162l285 -887l301 887h203l-414 -1143h-184l-279 834l-299 -834h-184z" />
<glyph unicode="&#x1e82;" horiz-adv-x="1875" d="M856 1653l267 354h205l-314 -354h-158zM4 1509h229l293 -1276l310 1276h202l303 -1276l304 1276h221l-418 -1509h-242l-280 1184l-297 -1184h-242z" />
<glyph unicode="&#x1e83;" horiz-adv-x="1736" d="M788 1301l267 354h205l-314 -354h-158zM2 1143h217l260 -887l305 887h162l285 -887l301 887h203l-414 -1143h-184l-279 834l-299 -834h-184z" />
<glyph unicode="&#x1e84;" horiz-adv-x="1875" d="M610 1757q0 41 31 72.5t72 31.5t72.5 -31.5t31.5 -72.5q0 -43 -31.5 -74t-72.5 -31q-39 0 -71 31t-32 74zM1053 1757q0 41 31.5 72.5t70.5 31.5q41 0 73 -31.5t32 -72.5q0 -43 -32 -74t-73 -31q-39 0 -70.5 31t-31.5 74zM4 1509h229l293 -1276l310 1276h202l303 -1276 l304 1276h221l-418 -1509h-242l-280 1184l-297 -1184h-242z" />
<glyph unicode="&#x1e85;" horiz-adv-x="1736" d="M542 1405q0 41 31 72.5t72 31.5t72.5 -31.5t31.5 -72.5q0 -43 -31.5 -74t-72.5 -31q-39 0 -71 31t-32 74zM985 1405q0 41 31.5 72.5t70.5 31.5q41 0 73 -31.5t32 -72.5q0 -43 -32 -74t-73 -31q-39 0 -70.5 31t-31.5 74zM2 1143h217l260 -887l305 887h162l285 -887 l301 887h203l-414 -1143h-184l-279 834l-299 -834h-184z" />
<glyph unicode="&#x1e86;" horiz-adv-x="1875" d="M825 1773.5q0 51.5 32 86t79 34.5t79 -34.5t32 -86t-32 -86.5t-79 -35t-79 35t-32 86.5zM4 1509h229l293 -1276l310 1276h202l303 -1276l304 1276h221l-418 -1509h-242l-280 1184l-297 -1184h-242z" />
<glyph unicode="&#x1e87;" horiz-adv-x="1736" d="M757 1421.5q0 51.5 32 86t79 34.5t79 -34.5t32 -86t-32 -86.5t-79 -35t-79 35t-32 86.5zM2 1143h217l260 -887l305 887h162l285 -887l301 887h203l-414 -1143h-184l-279 834l-299 -834h-184z" />
<glyph unicode="&#x1e88;" horiz-adv-x="1875" d="M806 -243.5q0 51.5 32 86t79 34.5t79 -34.5t32 -86t-32 -86.5t-79 -35t-79 35t-32 86.5zM4 1509h229l293 -1276l310 1276h202l303 -1276l304 1276h221l-418 -1509h-242l-280 1184l-297 -1184h-242z" />
<glyph unicode="&#x1e89;" horiz-adv-x="1736" d="M737 -243.5q0 51.5 32 86t79 34.5t79 -34.5t32 -86t-32 -86.5t-79 -35t-79 35t-32 86.5zM2 1143h217l260 -887l305 887h162l285 -887l301 887h203l-414 -1143h-184l-279 834l-299 -834h-184z" />
<glyph unicode="&#x1e8a;" horiz-adv-x="1191" d="M503 1773.5q0 51.5 32 86t79 34.5t79 -34.5t32 -86t-32 -86.5t-79 -35t-79 35t-32 86.5zM2 0l490 778l-441 731h236l331 -555l347 555h213l-457 -727l469 -782h-236l-360 606l-379 -606h-213z" />
<glyph unicode="&#x1e8b;" horiz-adv-x="1071" d="M428 1421.5q0 51.5 32 86t79 34.5t79 -34.5t32 -86t-32 -86.5t-79 -35t-79 35t-32 86.5zM2 0l416 600l-359 541h228l256 -385l256 385h221l-367 -539l416 -602h-248l-295 438l-303 -438h-221z" />
<glyph unicode="&#x1e8c;" horiz-adv-x="1191" d="M288 1757q0 41 31 72.5t72 31.5t72.5 -31.5t31.5 -72.5q0 -43 -31.5 -74t-72.5 -31q-39 0 -71 31t-32 74zM731 1757q0 41 31.5 72.5t70.5 31.5q41 0 73 -31.5t32 -72.5q0 -43 -32 -74t-73 -31q-39 0 -70.5 31t-31.5 74zM2 0l490 778l-441 731h236l331 -555l347 555h213 l-457 -727l469 -782h-236l-360 606l-379 -606h-213z" />
<glyph unicode="&#x1e8d;" horiz-adv-x="1071" d="M215 1405q0 41 31 72.5t72 31.5t72.5 -31.5t31.5 -72.5q0 -43 -31.5 -74t-72.5 -31q-39 0 -71 31t-32 74zM658 1405q0 41 31.5 72.5t70.5 31.5q41 0 73 -31.5t32 -72.5q0 -43 -32 -74t-73 -31q-39 0 -70.5 31t-31.5 74zM2 0l416 600l-359 541h228l256 -385l256 385h221 l-367 -539l416 -602h-248l-295 438l-303 -438h-221z" />
<glyph unicode="&#x1e8e;" horiz-adv-x="1327" d="M555 1773.5q0 51.5 32 86t79 34.5t79 -34.5t32 -86t-32 -86.5t-79 -35t-79 35t-32 86.5zM10 1509h223l441 -766l438 766h209l-543 -952v-557h-217v545z" />
<glyph unicode="&#x1e8f;" horiz-adv-x="1136" d="M456 1421.5q0 51.5 32 86t79 34.5t79 -34.5t32 -86t-32 -86.5t-79 -35t-79 35t-32 86.5zM2 1143h219l348 -871l359 871h207l-635 -1485h-209l160 373z" />
<glyph unicode="&#x1e90;" horiz-adv-x="1107" d="M102 1653l383 354h172l383 -354h-143l-326 231l-326 -231h-143zM57 0v190l783 1143h-754v176h971v-194l-789 -1137h811v-178h-1022z" />
<glyph unicode="&#x1e91;" horiz-adv-x="999" d="M23 1301l383 354h172l383 -354h-143l-326 231l-326 -231h-143zM41 0v166l649 805h-639v159h881v-147l-664 -825h690v-158h-917z" />
<glyph unicode="&#x1e92;" horiz-adv-x="1107" d="M456 -243.5q0 51.5 32 86t79 34.5t79 -34.5t32 -86t-32 -86.5t-79 -35t-79 35t-32 86.5zM57 0v190l783 1143h-754v176h971v-194l-789 -1137h811v-178h-1022z" />
<glyph unicode="&#x1e93;" horiz-adv-x="999" d="M389 -243.5q0 51.5 32 86t79 34.5t79 -34.5t32 -86t-32 -86.5t-79 -35t-79 35t-32 86.5zM41 0v166l649 805h-639v159h881v-147l-664 -825h690v-158h-917z" />
<glyph unicode="&#x1e94;" horiz-adv-x="1107" d="M219 -256v133h698v-133h-698zM57 0v190l783 1143h-754v176h971v-194l-789 -1137h811v-178h-1022z" />
<glyph unicode="&#x1e95;" horiz-adv-x="999" d="M150 -256v133h698v-133h-698zM41 0v166l649 805h-639v159h881v-147l-664 -825h690v-158h-917z" />
<glyph unicode="&#x1e96;" d="M268 -256v133h698v-133h-698zM150 0v1509h210v-503q55 70 152.5 119t220.5 49q168 0 261 -94.5t93 -272.5v-807h-215v834q0 70 -56 115.5t-152 45.5q-78 0 -168 -46t-131 -122v-827h-215z" />
<glyph unicode="&#x1e97;" horiz-adv-x="829" d="M-7 1696q0 41 31 72.5t72 31.5t72.5 -31.5t31.5 -72.5q0 -43 -31.5 -74t-72.5 -31q-39 0 -71 31t-32 74zM436 1696q0 41 31.5 72.5t70.5 31.5q41 0 73 -31.5t32 -72.5q0 -43 -32 -74t-73 -31q-39 0 -70.5 31t-31.5 74zM20 979v149l193 9l53 331h156v-340h342v-151h-342 v-643q0 -182 186 -182q70 0 164 22v-154q-82 -31 -213 -30q-178 0 -262 91t-84 308v590h-193z" />
<glyph unicode="&#x1e98;" horiz-adv-x="1736" d="M614 1562.5q0 112.5 76 187.5t178 75t179 -75t77 -187.5t-77 -187t-179 -74.5t-178 74.5t-76 187zM712 1563q0 -74 45 -121t111 -47t111 46t45 121.5t-45 122t-111 46.5t-111 -46t-45 -122zM2 1143h217l260 -887l305 887h162l285 -887l301 887h203l-414 -1143h-184 l-279 834l-299 -834h-184z" />
<glyph unicode="&#x1e99;" horiz-adv-x="1136" d="M313 1562.5q0 112.5 76 187.5t178 75t179 -75t77 -187.5t-77 -187t-179 -74.5t-178 74.5t-76 187zM411 1563q0 -74 45 -121t111 -47t111 46t45 121.5t-45 122t-111 46.5t-111 -46t-45 -122zM2 1143h219l348 -871l359 871h207l-635 -1485h-209l160 373z" />
<glyph unicode="&#x1e9b;" horiz-adv-x="897" d="M374 1421.5q0 51.5 32 86t79 34.5t79 -34.5t32 -86t-32 -86.5t-79 -35t-79 35t-32 86.5zM63 39v170q133 -78 345 -78q250 0 249 180q0 78 -63.5 123t-216.5 92q-152 45 -221.5 114t-69.5 198q0 147 101.5 239t297.5 92q162 0 287 -59v-176q-104 61 -270 61 q-225 0 -226 -129q0 -76 47.5 -110.5t200.5 -83.5q162 -51 241 -125t79 -211q0 -176 -111.5 -268.5t-320.5 -92.5q-245 1 -349 64z" />
<glyph unicode="&#x1ea0;" horiz-adv-x="1255" d="M518 -243.5q0 51.5 32 86t79 34.5t79 -34.5t32 -86t-32 -86.5t-79 -35t-79 35t-32 86.5zM2 0l487 1509h256l508 -1509h-213l-127 391h-569l-129 -391h-213zM387 555h2h2h2h2h2h2h2h2h3h2h2h2h2h2h2h2h2h2h2h2h2h2h2h2h2h2h2h2h2h3h2h2h2h2h2h2h2h2h2h2h2h2h2h2h2h2h2h2h4 h3h2h2h2h2h2h4h2h2h2h2h4h2h2h2h4h2h2h5h2h2h2h4h2h2h4h2h2h4h2h2h4h2h5h2h2h4h2h4h2h4h2h4h2h2h4h2h4h3h4h2h4h2h4h2h4h4h2h4h2h4h3h4h4h2h4h2h4h4h2h4h4h2h4h3h4h4h2h4h4h4h2h4h4h2h4h5h4h2h4h4h4h2h4h4h4h2h4h5h4h4h2h4h4h4h4h4h2h4h4h5h4h4h16l-242 752z" />
<glyph unicode="&#x1ea1;" horiz-adv-x="1179" d="M366 -257.5q0 51.5 32 86t79 34.5t79 -34.5t32 -86t-32 -86.5t-79 -35t-79 35t-32 86.5zM78 369v28q0 190 123 294t319 104q207 0 318 -117v139q0 86 -61.5 138.5t-196.5 52.5q-205 0 -347 -82v170q129 78 377 78q211 0 320.5 -105.5t109.5 -259.5v-809h-184l-14 141 q-49 -78 -151.5 -116.5t-213.5 -38.5q-178 0 -288.5 98.5t-110.5 284.5zM285 387q0 -244 268 -244q129 0 207 70t78 172v31q0 102 -79 165.5t-206 63.5q-121 0 -194.5 -62.5t-73.5 -172.5v-23z" />
<glyph unicode="&#x1ea4;" horiz-adv-x="1255" d="M538 2130l267 354h205l-314 -354h-158zM149 1653l383 354h172l383 -354h-143l-326 231l-326 -231h-143zM2 0l487 1509h256l508 -1509h-213l-127 391h-569l-129 -391h-213zM387 555h2h2h2h2h2h2h2h2h3h2h2h2h2h2h2h2h2h2h2h2h2h2h2h2h2h2h2h2h2h3h2h2h2h2h2h2h2h2h2h2h2h2 h2h2h2h2h2h2h4h3h2h2h2h2h2h4h2h2h2h2h4h2h2h2h4h2h2h5h2h2h2h4h2h2h4h2h2h4h2h2h4h2h5h2h2h4h2h4h2h4h2h4h2h2h4h2h4h3h4h2h4h2h4h2h4h4h2h4h2h4h3h4h4h2h4h2h4h4h2h4h4h2h4h3h4h4h2h4h4h4h2h4h4h2h4h5h4h2h4h4h4h2h4h4h4h2h4h5h4h4h2h4h4h4h4h4h2h4h4h5h4h4h16l-242 752z " />
<glyph unicode="&#x1ea5;" horiz-adv-x="1179" d="M530 1778l267 354h205l-314 -354h-158zM141 1301l383 354h172l383 -354h-143l-326 231l-326 -231h-143zM78 369v28q0 190 123 294t319 104q207 0 318 -117v139q0 86 -61.5 138.5t-196.5 52.5q-205 0 -347 -82v170q129 78 377 78q211 0 320.5 -105.5t109.5 -259.5v-809 h-184l-14 141q-49 -78 -151.5 -116.5t-213.5 -38.5q-178 0 -288.5 98.5t-110.5 284.5zM285 387q0 -244 268 -244q129 0 207 70t78 172v31q0 102 -79 165.5t-206 63.5q-121 0 -194.5 -62.5t-73.5 -172.5v-23z" />
<glyph unicode="&#x1ea6;" horiz-adv-x="1255" d="M226 2484h204l267 -354h-158zM149 1653l383 354h172l383 -354h-143l-326 231l-326 -231h-143zM2 0l487 1509h256l508 -1509h-213l-127 391h-569l-129 -391h-213zM387 555h2h2h2h2h2h2h2h2h3h2h2h2h2h2h2h2h2h2h2h2h2h2h2h2h2h2h2h2h2h3h2h2h2h2h2h2h2h2h2h2h2h2h2h2h2h2 h2h2h4h3h2h2h2h2h2h4h2h2h2h2h4h2h2h2h4h2h2h5h2h2h2h4h2h2h4h2h2h4h2h2h4h2h5h2h2h4h2h4h2h4h2h4h2h2h4h2h4h3h4h2h4h2h4h2h4h4h2h4h2h4h3h4h4h2h4h2h4h4h2h4h4h2h4h3h4h4h2h4h4h4h2h4h4h2h4h5h4h2h4h4h4h2h4h4h4h2h4h5h4h4h2h4h4h4h4h4h2h4h4h5h4h4h16l-242 752z" />
<glyph unicode="&#x1ea7;" horiz-adv-x="1179" d="M219 2132h204l267 -354h-158zM141 1301l383 354h172l383 -354h-143l-326 231l-326 -231h-143zM78 369v28q0 190 123 294t319 104q207 0 318 -117v139q0 86 -61.5 138.5t-196.5 52.5q-205 0 -347 -82v170q129 78 377 78q211 0 320.5 -105.5t109.5 -259.5v-809h-184 l-14 141q-49 -78 -151.5 -116.5t-213.5 -38.5q-178 0 -288.5 98.5t-110.5 284.5zM285 387q0 -244 268 -244q129 0 207 70t78 172v31q0 102 -79 165.5t-206 63.5q-121 0 -194.5 -62.5t-73.5 -172.5v-23z" />
<glyph unicode="&#x1eaa;" horiz-adv-x="1255" d="M215 2212q31 63 95 110t150 47q66 0 172 -55q94 -53 168 -53q94 0 142 96l77 -68q-88 -160 -237 -159q-76 0 -182 55q-102 51 -162 51q-98 0 -152 -86zM149 1653l383 354h172l383 -354h-143l-326 231l-326 -231h-143zM2 0l487 1509h256l508 -1509h-213l-127 391h-569 l-129 -391h-213zM387 555h2h2h2h2h2h2h2h2h3h2h2h2h2h2h2h2h2h2h2h2h2h2h2h2h2h2h2h2h2h3h2h2h2h2h2h2h2h2h2h2h2h2h2h2h2h2h2h2h4h3h2h2h2h2h2h4h2h2h2h2h4h2h2h2h4h2h2h5h2h2h2h4h2h2h4h2h2h4h2h2h4h2h5h2h2h4h2h4h2h4h2h4h2h2h4h2h4h3h4h2h4h2h4h2h4h4h2h4h2h4h3h4h4h2h4 h2h4h4h2h4h4h2h4h3h4h4h2h4h4h4h2h4h4h2h4h5h4h2h4h4h4h2h4h4h4h2h4h5h4h4h2h4h4h4h4h4h2h4h4h5h4h4h16l-242 752z" />
<glyph unicode="&#x1eab;" horiz-adv-x="1179" d="M209 1860q31 63 95 110t150 47q66 0 172 -55q94 -53 168 -53q94 0 142 96l77 -68q-88 -160 -237 -159q-76 0 -182 55q-102 51 -162 51q-98 0 -152 -86zM141 1301l383 354h172l383 -354h-143l-326 231l-326 -231h-143zM78 369v28q0 190 123 294t319 104q207 0 318 -117 v139q0 86 -61.5 138.5t-196.5 52.5q-205 0 -347 -82v170q129 78 377 78q211 0 320.5 -105.5t109.5 -259.5v-809h-184l-14 141q-49 -78 -151.5 -116.5t-213.5 -38.5q-178 0 -288.5 98.5t-110.5 284.5zM285 387q0 -244 268 -244q129 0 207 70t78 172v31q0 102 -79 165.5 t-206 63.5q-121 0 -194.5 -62.5t-73.5 -172.5v-23z" />
<glyph unicode="&#x1eac;" horiz-adv-x="1255" d="M149 1653l383 354h172l383 -354h-143l-326 231l-326 -231h-143zM518 -243.5q0 51.5 32 86t79 34.5t79 -34.5t32 -86t-32 -86.5t-79 -35t-79 35t-32 86.5zM2 0l487 1509h256l508 -1509h-213l-127 391h-569l-129 -391h-213zM387 555h2h2h2h2h2h2h2h2h3h2h2h2h2h2h2h2h2h2h2 h2h2h2h2h2h2h2h2h2h2h3h2h2h2h2h2h2h2h2h2h2h2h2h2h2h2h2h2h2h4h3h2h2h2h2h2h4h2h2h2h2h4h2h2h2h4h2h2h5h2h2h2h4h2h2h4h2h2h4h2h2h4h2h5h2h2h4h2h4h2h4h2h4h2h2h4h2h4h3h4h2h4h2h4h2h4h4h2h4h2h4h3h4h4h2h4h2h4h4h2h4h4h2h4h3h4h4h2h4h4h4h2h4h4h2h4h5h4h2h4h4h4h2h4h4h4h2 h4h5h4h4h2h4h4h4h4h4h2h4h4h5h4h4h16l-242 752z" />
<glyph unicode="&#x1ead;" horiz-adv-x="1179" d="M141 1301l383 354h172l383 -354h-143l-326 231l-326 -231h-143zM366 -257.5q0 51.5 32 86t79 34.5t79 -34.5t32 -86t-32 -86.5t-79 -35t-79 35t-32 86.5zM78 369v28q0 190 123 294t319 104q207 0 318 -117v139q0 86 -61.5 138.5t-196.5 52.5q-205 0 -347 -82v170 q129 78 377 78q211 0 320.5 -105.5t109.5 -259.5v-809h-184l-14 141q-49 -78 -151.5 -116.5t-213.5 -38.5q-178 0 -288.5 98.5t-110.5 284.5zM285 387q0 -244 268 -244q129 0 207 70t78 172v31q0 102 -79 165.5t-206 63.5q-121 0 -194.5 -62.5t-73.5 -172.5v-23z" />
<glyph unicode="&#x1eae;" horiz-adv-x="1255" d="M538 2102l267 354h205l-314 -354h-158zM272 1979h147q6 -74 59.5 -123t137.5 -49q86 0 140.5 48t58.5 124h149q0 -139 -103.5 -232.5t-242.5 -93.5q-150 0 -248 93.5t-98 232.5zM2 0l487 1509h256l508 -1509h-213l-127 391h-569l-129 -391h-213zM387 555h2h2h2h2h2h2h2h2 h3h2h2h2h2h2h2h2h2h2h2h2h2h2h2h2h2h2h2h2h2h3h2h2h2h2h2h2h2h2h2h2h2h2h2h2h2h2h2h2h4h3h2h2h2h2h2h4h2h2h2h2h4h2h2h2h4h2h2h5h2h2h2h4h2h2h4h2h2h4h2h2h4h2h5h2h2h4h2h4h2h4h2h4h2h2h4h2h4h3h4h2h4h2h4h2h4h4h2h4h2h4h3h4h4h2h4h2h4h4h2h4h4h2h4h3h4h4h2h4h4h4h2h4h4h2h4 h5h4h2h4h4h4h2h4h4h4h2h4h5h4h4h2h4h4h4h4h4h2h4h4h5h4h4h16l-242 752z" />
<glyph unicode="&#x1eaf;" horiz-adv-x="1179" d="M530 1749l267 354h205l-314 -354h-158zM264 1626h147q6 -74 59.5 -123t137.5 -49q86 0 140.5 48t58.5 124h149q0 -139 -103.5 -232.5t-242.5 -93.5q-150 0 -248 93.5t-98 232.5zM78 369v28q0 190 123 294t319 104q207 0 318 -117v139q0 86 -61.5 138.5t-196.5 52.5 q-205 0 -347 -82v170q129 78 377 78q211 0 320.5 -105.5t109.5 -259.5v-809h-184l-14 141q-49 -78 -151.5 -116.5t-213.5 -38.5q-178 0 -288.5 98.5t-110.5 284.5zM285 387q0 -244 268 -244q129 0 207 70t78 172v31q0 102 -79 165.5t-206 63.5q-121 0 -194.5 -62.5 t-73.5 -172.5v-23z" />
<glyph unicode="&#x1eb0;" horiz-adv-x="1255" d="M226 2456h204l267 -354h-158zM272 1979h147q6 -74 59.5 -123t137.5 -49q86 0 140.5 48t58.5 124h149q0 -139 -103.5 -232.5t-242.5 -93.5q-150 0 -248 93.5t-98 232.5zM2 0l487 1509h256l508 -1509h-213l-127 391h-569l-129 -391h-213zM387 555h2h2h2h2h2h2h2h2h3h2h2h2 h2h2h2h2h2h2h2h2h2h2h2h2h2h2h2h2h2h3h2h2h2h2h2h2h2h2h2h2h2h2h2h2h2h2h2h2h4h3h2h2h2h2h2h4h2h2h2h2h4h2h2h2h4h2h2h5h2h2h2h4h2h2h4h2h2h4h2h2h4h2h5h2h2h4h2h4h2h4h2h4h2h2h4h2h4h3h4h2h4h2h4h2h4h4h2h4h2h4h3h4h4h2h4h2h4h4h2h4h4h2h4h3h4h4h2h4h4h4h2h4h4h2h4h5h4h2h4 h4h4h2h4h4h4h2h4h5h4h4h2h4h4h4h4h4h2h4h4h5h4h4h16l-242 752z" />
<glyph unicode="&#x1eb1;" horiz-adv-x="1179" d="M219 2103h204l267 -354h-158zM264 1626h147q6 -74 59.5 -123t137.5 -49q86 0 140.5 48t58.5 124h149q0 -139 -103.5 -232.5t-242.5 -93.5q-150 0 -248 93.5t-98 232.5zM78 369v28q0 190 123 294t319 104q207 0 318 -117v139q0 86 -61.5 138.5t-196.5 52.5 q-205 0 -347 -82v170q129 78 377 78q211 0 320.5 -105.5t109.5 -259.5v-809h-184l-14 141q-49 -78 -151.5 -116.5t-213.5 -38.5q-178 0 -288.5 98.5t-110.5 284.5zM285 387q0 -244 268 -244q129 0 207 70t78 172v31q0 102 -79 165.5t-206 63.5q-121 0 -194.5 -62.5 t-73.5 -172.5v-23z" />
<glyph unicode="&#x1eb4;" horiz-adv-x="1255" d="M215 2184q31 63 95 110t150 47q66 0 172 -55q94 -53 168 -53q94 0 142 96l77 -68q-88 -160 -237 -159q-76 0 -182 55q-102 51 -162 51q-98 0 -152 -86zM272 1979h147q6 -74 59.5 -123t137.5 -49q86 0 140.5 48t58.5 124h149q0 -139 -103.5 -232.5t-242.5 -93.5 q-150 0 -248 93.5t-98 232.5zM2 0l487 1509h256l508 -1509h-213l-127 391h-569l-129 -391h-213zM387 555h2h2h2h2h2h2h2h2h3h2h2h2h2h2h2h2h2h2h2h2h2h2h2h2h2h2h2h2h2h3h2h2h2h2h2h2h2h2h2h2h2h2h2h2h2h2h2h2h4h3h2h2h2h2h2h4h2h2h2h2h4h2h2h2h4h2h2h5h2h2h2h4h2h2h4h2h2h4 h2h2h4h2h5h2h2h4h2h4h2h4h2h4h2h2h4h2h4h3h4h2h4h2h4h2h4h4h2h4h2h4h3h4h4h2h4h2h4h4h2h4h4h2h4h3h4h4h2h4h4h4h2h4h4h2h4h5h4h2h4h4h4h2h4h4h4h2h4h5h4h4h2h4h4h4h4h4h2h4h4h5h4h4h16l-242 752z" />
<glyph unicode="&#x1eb5;" horiz-adv-x="1179" d="M209 1831q31 63 95 110t150 47q66 0 172 -55q94 -53 168 -53q94 0 142 96l77 -68q-88 -160 -237 -159q-76 0 -182 55q-102 51 -162 51q-98 0 -152 -86zM264 1626h147q6 -74 59.5 -123t137.5 -49q86 0 140.5 48t58.5 124h149q0 -139 -103.5 -232.5t-242.5 -93.5 q-150 0 -248 93.5t-98 232.5zM78 369v28q0 190 123 294t319 104q207 0 318 -117v139q0 86 -61.5 138.5t-196.5 52.5q-205 0 -347 -82v170q129 78 377 78q211 0 320.5 -105.5t109.5 -259.5v-809h-184l-14 141q-49 -78 -151.5 -116.5t-213.5 -38.5q-178 0 -288.5 98.5 t-110.5 284.5zM285 387q0 -244 268 -244q129 0 207 70t78 172v31q0 102 -79 165.5t-206 63.5q-121 0 -194.5 -62.5t-73.5 -172.5v-23z" />
<glyph unicode="&#x1eb6;" horiz-adv-x="1255" d="M272 1979h147q6 -74 59.5 -123t137.5 -49q86 0 140.5 48t58.5 124h149q0 -139 -103.5 -232.5t-242.5 -93.5q-150 0 -248 93.5t-98 232.5zM518 -243.5q0 51.5 32 86t79 34.5t79 -34.5t32 -86t-32 -86.5t-79 -35t-79 35t-32 86.5zM2 0l487 1509h256l508 -1509h-213 l-127 391h-569l-129 -391h-213zM387 555h2h2h2h2h2h2h2h2h3h2h2h2h2h2h2h2h2h2h2h2h2h2h2h2h2h2h2h2h2h3h2h2h2h2h2h2h2h2h2h2h2h2h2h2h2h2h2h2h4h3h2h2h2h2h2h4h2h2h2h2h4h2h2h2h4h2h2h5h2h2h2h4h2h2h4h2h2h4h2h2h4h2h5h2h2h4h2h4h2h4h2h4h2h2h4h2h4h3h4h2h4h2h4h2h4h4h2h4 h2h4h3h4h4h2h4h2h4h4h2h4h4h2h4h3h4h4h2h4h4h4h2h4h4h2h4h5h4h2h4h4h4h2h4h4h4h2h4h5h4h4h2h4h4h4h4h4h2h4h4h5h4h4h16l-242 752z" />
<glyph unicode="&#x1eb7;" horiz-adv-x="1179" d="M264 1626h147q6 -74 59.5 -123t137.5 -49q86 0 140.5 48t58.5 124h149q0 -139 -103.5 -232.5t-242.5 -93.5q-150 0 -248 93.5t-98 232.5zM366 -257.5q0 51.5 32 86t79 34.5t79 -34.5t32 -86t-32 -86.5t-79 -35t-79 35t-32 86.5zM78 369v28q0 190 123 294t319 104 q207 0 318 -117v139q0 86 -61.5 138.5t-196.5 52.5q-205 0 -347 -82v170q129 78 377 78q211 0 320.5 -105.5t109.5 -259.5v-809h-184l-14 141q-49 -78 -151.5 -116.5t-213.5 -38.5q-178 0 -288.5 98.5t-110.5 284.5zM285 387q0 -244 268 -244q129 0 207 70t78 172v31 q0 102 -79 165.5t-206 63.5q-121 0 -194.5 -62.5t-73.5 -172.5v-23z" />
<glyph unicode="&#x1eb8;" horiz-adv-x="1136" d="M516 -243.5q0 51.5 32 86t79 34.5t79 -34.5t32 -86t-32 -86.5t-79 -35t-79 35t-32 86.5zM168 0v1509h887v-168h-676v-493h543v-166h-543v-516h706v-166h-917z" />
<glyph unicode="&#x1eb9;" d="M540 -268.5q0 51.5 32 86t79 34.5t79 -34.5t32 -86t-32 -86.5t-79 -35t-79 35t-32 86.5zM102 530v80q0 270 138.5 419t367.5 149q246 0 383 -156t137 -422v-86h-806q0 -184 97 -273t247 -89q184 0 376 92v-178q-152 -90 -391 -91q-238 0 -393.5 144.5t-155.5 410.5z M324 678h587q-2 168 -80.5 245.5t-214.5 77.5q-129 0 -207.5 -78.5t-84.5 -244.5z" />
<glyph unicode="&#x1ebc;" horiz-adv-x="1136" d="M209 1735q31 63 95 110t150 47q66 0 172 -55q94 -53 168 -53q94 0 142 96l77 -68q-88 -160 -237 -159q-76 0 -182 55q-102 51 -162 51q-98 0 -152 -86zM168 0v1509h887v-168h-676v-493h543v-166h-543v-516h706v-166h-917z" />
<glyph unicode="&#x1ebd;" d="M205 1383q31 63 95 110t150 47q66 0 172 -55q94 -53 168 -53q94 0 142 96l77 -68q-88 -160 -237 -159q-76 0 -182 55q-102 51 -162 51q-98 0 -152 -86zM102 530v80q0 270 138.5 419t367.5 149q246 0 383 -156t137 -422v-86h-806q0 -184 97 -273t247 -89q184 0 376 92 v-178q-152 -90 -391 -91q-238 0 -393.5 144.5t-155.5 410.5zM324 678h587q-2 168 -80.5 245.5t-214.5 77.5q-129 0 -207.5 -78.5t-84.5 -244.5z" />
<glyph unicode="&#x1ebe;" horiz-adv-x="1136" d="M532 2130l267 354h205l-314 -354h-158zM141 1653l383 354h172l383 -354h-143l-326 231l-326 -231h-143zM168 0v1509h887v-168h-676v-493h543v-166h-543v-516h706v-166h-917z" />
<glyph unicode="&#x1ebf;" d="M530 1778l267 354h205l-314 -354h-158zM139 1301l383 354h172l383 -354h-143l-326 231l-326 -231h-143zM102 530v80q0 270 138.5 419t367.5 149q246 0 383 -156t137 -422v-86h-806q0 -184 97 -273t247 -89q184 0 376 92v-178q-152 -90 -391 -91q-238 0 -393.5 144.5 t-155.5 410.5zM324 678h587q-2 168 -80.5 245.5t-214.5 77.5q-129 0 -207.5 -78.5t-84.5 -244.5z" />
<glyph unicode="&#x1ec0;" horiz-adv-x="1136" d="M219 2484h204l267 -354h-158zM141 1653l383 354h172l383 -354h-143l-326 231l-326 -231h-143zM168 0v1509h887v-168h-676v-493h543v-166h-543v-516h706v-166h-917z" />
<glyph unicode="&#x1ec1;" d="M215 2132h204l267 -354h-158zM139 1301l383 354h172l383 -354h-143l-326 231l-326 -231h-143zM102 530v80q0 270 138.5 419t367.5 149q246 0 383 -156t137 -422v-86h-806q0 -184 97 -273t247 -89q184 0 376 92v-178q-152 -90 -391 -91q-238 0 -393.5 144.5t-155.5 410.5z M324 678h587q-2 168 -80.5 245.5t-214.5 77.5q-129 0 -207.5 -78.5t-84.5 -244.5z" />
<glyph unicode="&#x1ec4;" horiz-adv-x="1136" d="M209 2212q31 63 95 110t150 47q66 0 172 -55q94 -53 168 -53q94 0 142 96l77 -68q-88 -160 -237 -159q-76 0 -182 55q-102 51 -162 51q-98 0 -152 -86zM141 1653l383 354h172l383 -354h-143l-326 231l-326 -231h-143zM168 0v1509h887v-168h-676v-493h543v-166h-543v-516 h706v-166h-917z" />
<glyph unicode="&#x1ec5;" d="M205 1860q31 63 95 110t150 47q66 0 172 -55q94 -53 168 -53q94 0 142 96l77 -68q-88 -160 -237 -159q-76 0 -182 55q-102 51 -162 51q-98 0 -152 -86zM139 1301l383 354h172l383 -354h-143l-326 231l-326 -231h-143zM102 530v80q0 270 138.5 419t367.5 149 q246 0 383 -156t137 -422v-86h-806q0 -184 97 -273t247 -89q184 0 376 92v-178q-152 -90 -391 -91q-238 0 -393.5 144.5t-155.5 410.5zM324 678h587q-2 168 -80.5 245.5t-214.5 77.5q-129 0 -207.5 -78.5t-84.5 -244.5z" />
<glyph unicode="&#x1ec6;" horiz-adv-x="1136" d="M141 1653l383 354h172l383 -354h-143l-326 231l-326 -231h-143zM516 -243.5q0 51.5 32 86t79 34.5t79 -34.5t32 -86t-32 -86.5t-79 -35t-79 35t-32 86.5zM168 0v1509h887v-168h-676v-493h543v-166h-543v-516h706v-166h-917z" />
<glyph unicode="&#x1ec7;" d="M139 1301l383 354h172l383 -354h-143l-326 231l-326 -231h-143zM540 -268.5q0 51.5 32 86t79 34.5t79 -34.5t32 -86t-32 -86.5t-79 -35t-79 35t-32 86.5zM102 530v80q0 270 138.5 419t367.5 149q246 0 383 -156t137 -422v-86h-806q0 -184 97 -273t247 -89q184 0 376 92 v-178q-152 -90 -391 -91q-238 0 -393.5 144.5t-155.5 410.5zM324 678h587q-2 168 -80.5 245.5t-214.5 77.5q-129 0 -207.5 -78.5t-84.5 -244.5z" />
<glyph unicode="&#x1eca;" horiz-adv-x="569" d="M174 -243.5q0 51.5 32 86t79 34.5t79 -34.5t32 -86t-32 -86.5t-79 -35t-79 35t-32 86.5zM176 0v1509h217v-1509h-217z" />
<glyph unicode="&#x1ecb;" horiz-adv-x="536" d="M161 -243.5q0 51.5 32 86t79 34.5t79 -34.5t32 -86t-32 -86.5t-79 -35t-79 35t-32 86.5zM150 1268v243h237v-243h-237zM166 0v1149h211v-1149h-211z" />
<glyph unicode="&#x1ecc;" horiz-adv-x="1366" d="M577 -268.5q0 51.5 32 86t79 34.5t79 -34.5t32 -86t-32 -86.5t-79 -35t-79 35t-32 86.5zM90 702v86q0 350 150.5 546t447.5 196q598 0 598 -742v-81q0 -731 -598 -732q-279 0 -438.5 180t-159.5 547zM313 731q0 -326 92.5 -463t282.5 -137q129 0 208 50t123 183.5 t44 362.5v41q0 307 -86 450.5t-289 143.5q-201 0 -288 -136t-87 -458v-37z" />
<glyph unicode="&#x1ecd;" horiz-adv-x="1298" d="M534 -268.5q0 51.5 32 86t79 34.5t79 -34.5t32 -86t-32 -86.5t-79 -35t-79 35t-32 86.5zM102 541v73q0 244 150.5 404t392.5 160q143 0 253 -45.5t173.5 -125t94 -178t30.5 -215.5v-73q0 -248 -151.5 -407t-399.5 -159q-246 0 -394.5 158t-148.5 408zM317 569 q0 -203 85 -315.5t243 -112.5q340 0 340 428v17q0 418 -334 418q-164 0 -249 -109t-85 -309v-17z" />
<glyph unicode="&#x1ed0;" horiz-adv-x="1366" d="M608 2130l267 354h205l-314 -354h-158zM219 1653l383 354h172l383 -354h-143l-326 231l-326 -231h-143zM90 702v86q0 350 150.5 546t447.5 196q598 0 598 -742v-81q0 -731 -598 -732q-279 0 -438.5 180t-159.5 547zM313 731q0 -326 92.5 -463t282.5 -137q129 0 208 50 t123 183.5t44 362.5v41q0 307 -86 450.5t-289 143.5q-201 0 -288 -136t-87 -458v-37z" />
<glyph unicode="&#x1ed1;" horiz-adv-x="1298" d="M567 1778l267 354h205l-314 -354h-158zM176 1301l383 354h172l383 -354h-143l-326 231l-326 -231h-143zM102 541v73q0 244 150.5 404t392.5 160q143 0 253 -45.5t173.5 -125t94 -178t30.5 -215.5v-73q0 -248 -151.5 -407t-399.5 -159q-246 0 -394.5 158t-148.5 408z M317 569q0 -203 85 -315.5t243 -112.5q340 0 340 428v17q0 418 -334 418q-164 0 -249 -109t-85 -309v-17z" />
<glyph unicode="&#x1ed2;" horiz-adv-x="1366" d="M297 2484h204l267 -354h-158zM219 1653l383 354h172l383 -354h-143l-326 231l-326 -231h-143zM90 702v86q0 350 150.5 546t447.5 196q598 0 598 -742v-81q0 -731 -598 -732q-279 0 -438.5 180t-159.5 547zM313 731q0 -326 92.5 -463t282.5 -137q129 0 208 50t123 183.5 t44 362.5v41q0 307 -86 450.5t-289 143.5q-201 0 -288 -136t-87 -458v-37z" />
<glyph unicode="&#x1ed3;" horiz-adv-x="1298" d="M252 2132h204l267 -354h-158zM176 1301l383 354h172l383 -354h-143l-326 231l-326 -231h-143zM102 541v73q0 244 150.5 404t392.5 160q143 0 253 -45.5t173.5 -125t94 -178t30.5 -215.5v-73q0 -248 -151.5 -407t-399.5 -159q-246 0 -394.5 158t-148.5 408zM317 569 q0 -203 85 -315.5t243 -112.5q340 0 340 428v17q0 418 -334 418q-164 0 -249 -109t-85 -309v-17z" />
<glyph unicode="&#x1ed6;" horiz-adv-x="1366" d="M287 2212q31 63 95 110t150 47q66 0 172 -55q94 -53 168 -53q94 0 142 96l77 -68q-88 -160 -237 -159q-76 0 -182 55q-102 51 -162 51q-98 0 -152 -86zM219 1653l383 354h172l383 -354h-143l-326 231l-326 -231h-143zM90 702v86q0 350 150.5 546t447.5 196 q598 0 598 -742v-81q0 -731 -598 -732q-279 0 -438.5 180t-159.5 547zM313 731q0 -326 92.5 -463t282.5 -137q129 0 208 50t123 183.5t44 362.5v41q0 307 -86 450.5t-289 143.5q-201 0 -288 -136t-87 -458v-37z" />
<glyph unicode="&#x1ed7;" horiz-adv-x="1298" d="M242 1860q31 63 95 110t150 47q66 0 172 -55q94 -53 168 -53q94 0 142 96l77 -68q-88 -160 -237 -159q-76 0 -182 55q-102 51 -162 51q-98 0 -152 -86zM176 1301l383 354h172l383 -354h-143l-326 231l-326 -231h-143zM102 541v73q0 244 150.5 404t392.5 160 q143 0 253 -45.5t173.5 -125t94 -178t30.5 -215.5v-73q0 -248 -151.5 -407t-399.5 -159q-246 0 -394.5 158t-148.5 408zM317 569q0 -203 85 -315.5t243 -112.5q340 0 340 428v17q0 418 -334 418q-164 0 -249 -109t-85 -309v-17z" />
<glyph unicode="&#x1ed8;" horiz-adv-x="1366" d="M219 1653l383 354h172l383 -354h-143l-326 231l-326 -231h-143zM577 -268.5q0 51.5 32 86t79 34.5t79 -34.5t32 -86t-32 -86.5t-79 -35t-79 35t-32 86.5zM90 702v86q0 350 150.5 546t447.5 196q598 0 598 -742v-81q0 -731 -598 -732q-279 0 -438.5 180t-159.5 547z M313 731q0 -326 92.5 -463t282.5 -137q129 0 208 50t123 183.5t44 362.5v41q0 307 -86 450.5t-289 143.5q-201 0 -288 -136t-87 -458v-37z" />
<glyph unicode="&#x1ed9;" horiz-adv-x="1298" d="M176 1301l383 354h172l383 -354h-143l-326 231l-326 -231h-143zM534 -268.5q0 51.5 32 86t79 34.5t79 -34.5t32 -86t-32 -86.5t-79 -35t-79 35t-32 86.5zM102 541v73q0 244 150.5 404t392.5 160q143 0 253 -45.5t173.5 -125t94 -178t30.5 -215.5v-73q0 -248 -151.5 -407 t-399.5 -159q-246 0 -394.5 158t-148.5 408zM317 569q0 -203 85 -315.5t243 -112.5q340 0 340 428v17q0 418 -334 418q-164 0 -249 -109t-85 -309v-17z" />
<glyph unicode="&#x1eda;" horiz-adv-x="1366" d="M780 1653l267 354h205l-314 -354h-158zM750 1243v287h282v-287q0 -315 -282 -315v127q82 0 117.5 44t35.5 144h-153zM90 702v86q0 350 150.5 546t447.5 196q598 0 598 -742v-81q0 -731 -598 -732q-279 0 -438.5 180t-159.5 547zM313 731q0 -326 92.5 -463t282.5 -137 q129 0 208 50t123 183.5t44 362.5v41q0 307 -86 450.5t-289 143.5q-201 0 -288 -136t-87 -458v-37z" />
<glyph unicode="&#x1edb;" horiz-adv-x="1298" d="M739 1301l267 354h205l-314 -354h-158zM707 891v287h282v-287q0 -315 -282 -315v127q82 0 117.5 44t35.5 144h-153zM102 541v73q0 244 150.5 404t392.5 160q143 0 253 -45.5t173.5 -125t94 -178t30.5 -215.5v-73q0 -248 -151.5 -407t-399.5 -159q-246 0 -394.5 158 t-148.5 408zM317 569q0 -203 85 -315.5t243 -112.5q340 0 340 428v17q0 418 -334 418q-164 0 -249 -109t-85 -309v-17z" />
<glyph unicode="&#x1edc;" horiz-adv-x="1366" d="M469 2007h204l267 -354h-158zM750 1243v287h282v-287q0 -315 -282 -315v127q82 0 117.5 44t35.5 144h-153zM90 702v86q0 350 150.5 546t447.5 196q598 0 598 -742v-81q0 -731 -598 -732q-279 0 -438.5 180t-159.5 547zM313 731q0 -326 92.5 -463t282.5 -137q129 0 208 50 t123 183.5t44 362.5v41q0 307 -86 450.5t-289 143.5q-201 0 -288 -136t-87 -458v-37z" />
<glyph unicode="&#x1edd;" horiz-adv-x="1298" d="M424 1655h204l267 -354h-158zM707 891v287h282v-287q0 -315 -282 -315v127q82 0 117.5 44t35.5 144h-153zM102 541v73q0 244 150.5 404t392.5 160q143 0 253 -45.5t173.5 -125t94 -178t30.5 -215.5v-73q0 -248 -151.5 -407t-399.5 -159q-246 0 -394.5 158t-148.5 408z M317 569q0 -203 85 -315.5t243 -112.5q340 0 340 428v17q0 418 -334 418q-164 0 -249 -109t-85 -309v-17z" />
<glyph unicode="&#x1ee0;" horiz-adv-x="1366" d="M459 1735q31 63 95 110t150 47q66 0 172 -55q94 -53 168 -53q94 0 142 96l77 -68q-88 -160 -237 -159q-76 0 -182 55q-102 51 -162 51q-98 0 -152 -86zM750 1243v287h282v-287q0 -315 -282 -315v127q82 0 117.5 44t35.5 144h-153zM90 702v86q0 350 150.5 546t447.5 196 q598 0 598 -742v-81q0 -731 -598 -732q-279 0 -438.5 180t-159.5 547zM313 731q0 -326 92.5 -463t282.5 -137q129 0 208 50t123 183.5t44 362.5v41q0 307 -86 450.5t-289 143.5q-201 0 -288 -136t-87 -458v-37z" />
<glyph unicode="&#x1ee1;" horiz-adv-x="1298" d="M414 1383q31 63 95 110t150 47q66 0 172 -55q94 -53 168 -53q94 0 142 96l77 -68q-88 -160 -237 -159q-76 0 -182 55q-102 51 -162 51q-98 0 -152 -86zM707 891v287h282v-287q0 -315 -282 -315v127q82 0 117.5 44t35.5 144h-153zM102 541v73q0 244 150.5 404t392.5 160 q143 0 253 -45.5t173.5 -125t94 -178t30.5 -215.5v-73q0 -248 -151.5 -407t-399.5 -159q-246 0 -394.5 158t-148.5 408zM317 569q0 -203 85 -315.5t243 -112.5q340 0 340 428v17q0 418 -334 418q-164 0 -249 -109t-85 -309v-17z" />
<glyph unicode="&#x1ee2;" horiz-adv-x="1366" d="M577 -268.5q0 51.5 32 86t79 34.5t79 -34.5t32 -86t-32 -86.5t-79 -35t-79 35t-32 86.5zM750 1243v287h282v-287q0 -315 -282 -315v127q82 0 117.5 44t35.5 144h-153zM90 702v86q0 350 150.5 546t447.5 196q598 0 598 -742v-81q0 -731 -598 -732q-279 0 -438.5 180 t-159.5 547zM313 731q0 -326 92.5 -463t282.5 -137q129 0 208 50t123 183.5t44 362.5v41q0 307 -86 450.5t-289 143.5q-201 0 -288 -136t-87 -458v-37z" />
<glyph unicode="&#x1ee3;" horiz-adv-x="1298" d="M534 -268.5q0 51.5 32 86t79 34.5t79 -34.5t32 -86t-32 -86.5t-79 -35t-79 35t-32 86.5zM707 891v287h282v-287q0 -315 -282 -315v127q82 0 117.5 44t35.5 144h-153zM102 541v73q0 244 150.5 404t392.5 160q143 0 253 -45.5t173.5 -125t94 -178t30.5 -215.5v-73 q0 -248 -151.5 -407t-399.5 -159q-246 0 -394.5 158t-148.5 408zM317 569q0 -203 85 -315.5t243 -112.5q340 0 340 428v17q0 418 -334 418q-164 0 -249 -109t-85 -309v-17z" />
<glyph unicode="&#x1ee4;" horiz-adv-x="1302" d="M548 -261.5q0 51.5 32 86t79 34.5t79 -34.5t32 -86t-32 -86.5t-79 -35t-79 35t-32 86.5zM147 522v987h218v-1028q0 -139 68.5 -231t223.5 -92q152 0 228 70.5t76 258.5v1022h210v-1044q0 -223 -132 -353t-379.5 -130t-380 138t-132.5 402z" />
<glyph unicode="&#x1ee5;" d="M378 -263.5q0 51.5 32 86t79 34.5t79 -34.5t32 -86t-32 -86.5t-79 -35t-79 35t-32 86.5zM139 336v807h215v-787q0 -209 221 -209q78 0 157 41t130 119v836h215v-1143h-203l-6 156q-57 -80 -157.5 -128t-221.5 -48q-145 0 -247.5 92t-102.5 264z" />
<glyph unicode="&#x1ee8;" horiz-adv-x="1302" d="M1296 1653l267 354h205l-314 -354h-158zM1233 1243v287h282v-287q0 -315 -282 -315v127q82 0 117.5 44t35.5 144h-153zM147 522v987h218v-1028q0 -139 68.5 -231t223.5 -92q152 0 228 70.5t76 258.5v1022h210v-1044q0 -223 -132 -353t-379.5 -130t-380 138t-132.5 402z " />
<glyph unicode="&#x1ee9;" d="M1202 1301l267 354h205l-314 -354h-158zM1139 891v287h282v-287q0 -315 -282 -315v127q82 0 117.5 44t35.5 144h-153zM139 336v807h215v-787q0 -209 221 -209q78 0 157 41t130 119v836h215v-1143h-203l-6 156q-57 -80 -157.5 -128t-221.5 -48q-145 0 -247.5 92 t-102.5 264z" />
<glyph unicode="&#x1eea;" horiz-adv-x="1302" d="M981 2007h204l267 -354h-158zM1233 1243v287h282v-287q0 -315 -282 -315v127q82 0 117.5 44t35.5 144h-153zM147 522v987h218v-1028q0 -139 68.5 -231t223.5 -92q152 0 228 70.5t76 258.5v1022h210v-1044q0 -223 -132 -353t-379.5 -130t-380 138t-132.5 402z" />
<glyph unicode="&#x1eeb;" d="M887 1655h204l267 -354h-158zM1139 891v287h282v-287q0 -315 -282 -315v127q82 0 117.5 44t35.5 144h-153zM139 336v807h215v-787q0 -209 221 -209q78 0 157 41t130 119v836h215v-1143h-203l-6 156q-57 -80 -157.5 -128t-221.5 -48q-145 0 -247.5 92t-102.5 264z" />
<glyph unicode="&#x1eee;" horiz-adv-x="1302" d="M971 1735q31 63 95 110t150 47q66 0 172 -55q94 -53 168 -53q94 0 142 96l77 -68q-88 -160 -237 -159q-76 0 -182 55q-102 51 -162 51q-98 0 -152 -86zM1233 1243v287h282v-287q0 -315 -282 -315v127q82 0 117.5 44t35.5 144h-153zM147 522v987h218v-1028 q0 -139 68.5 -231t223.5 -92q152 0 228 70.5t76 258.5v1022h210v-1044q0 -223 -132 -353t-379.5 -130t-380 138t-132.5 402z" />
<glyph unicode="&#x1eef;" d="M877 1383q31 63 95 110t150 47q66 0 172 -55q94 -53 168 -53q94 0 142 96l77 -68q-88 -160 -237 -159q-76 0 -182 55q-102 51 -162 51q-98 0 -152 -86zM1139 891v287h282v-287q0 -315 -282 -315v127q82 0 117.5 44t35.5 144h-153zM139 336v807h215v-787q0 -209 221 -209 q78 0 157 41t130 119v836h215v-1143h-203l-6 156q-57 -80 -157.5 -128t-221.5 -48q-145 0 -247.5 92t-102.5 264z" />
<glyph unicode="&#x1ef0;" horiz-adv-x="1302" d="M548 -261.5q0 51.5 32 86t79 34.5t79 -34.5t32 -86t-32 -86.5t-79 -35t-79 35t-32 86.5zM1233 1243v287h282v-287q0 -315 -282 -315v127q82 0 117.5 44t35.5 144h-153zM147 522v987h218v-1028q0 -139 68.5 -231t223.5 -92q152 0 228 70.5t76 258.5v1022h210v-1044 q0 -223 -132 -353t-379.5 -130t-380 138t-132.5 402z" />
<glyph unicode="&#x1ef1;" d="M378 -263.5q0 51.5 32 86t79 34.5t79 -34.5t32 -86t-32 -86.5t-79 -35t-79 35t-32 86.5zM1139 891v287h282v-287q0 -315 -282 -315v127q82 0 117.5 44t35.5 144h-153zM139 336v807h215v-787q0 -209 221 -209q78 0 157 41t130 119v836h215v-1143h-203l-6 156 q-57 -80 -157.5 -128t-221.5 -48q-145 0 -247.5 92t-102.5 264z" />
<glyph unicode="&#x1ef2;" horiz-adv-x="1327" d="M273 2007h204l267 -354h-158zM10 1509h223l441 -766l438 766h209l-543 -952v-557h-217v545z" />
<glyph unicode="&#x1ef3;" horiz-adv-x="1136" d="M176 1655h204l267 -354h-158zM2 1143h219l348 -871l359 871h207l-635 -1485h-209l160 373z" />
<glyph unicode="&#x1ef4;" horiz-adv-x="1327" d="M559 -243.5q0 51.5 32 86t79 34.5t79 -34.5t32 -86t-32 -86.5t-79 -35t-79 35t-32 86.5zM10 1509h223l441 -766l438 766h209l-543 -952v-557h-217v545z" />
<glyph unicode="&#x1ef5;" horiz-adv-x="1136" d="M284 -585.5q0 51.5 32 86t79 34.5t79 -34.5t32 -86t-32 -86.5t-79 -35t-79 35t-32 86.5zM2 1143h219l348 -871l359 871h207l-635 -1485h-209l160 373z" />
<glyph unicode="&#x1ef8;" horiz-adv-x="1327" d="M263 1735q31 63 95 110t150 47q66 0 172 -55q94 -53 168 -53q94 0 142 96l77 -68q-88 -160 -237 -159q-76 0 -182 55q-102 51 -162 51q-98 0 -152 -86zM10 1509h223l441 -766l438 766h209l-543 -952v-557h-217v545z" />
<glyph unicode="&#x1ef9;" horiz-adv-x="1136" d="M166 1383q31 63 95 110t150 47q66 0 172 -55q94 -53 168 -53q94 0 142 96l77 -68q-88 -160 -237 -159q-76 0 -182 55q-102 51 -162 51q-98 0 -152 -86zM2 1143h219l348 -871l359 871h207l-635 -1485h-209l160 373z" />
<glyph unicode="&#x2000;" horiz-adv-x="1024" />
<glyph unicode="&#x2001;" horiz-adv-x="2048" />
<glyph unicode="&#x2002;" horiz-adv-x="1024" />
<glyph unicode="&#x2003;" horiz-adv-x="2048" />
<glyph unicode="&#x2004;" horiz-adv-x="681" />
<glyph unicode="&#x2005;" horiz-adv-x="512" />
<glyph unicode="&#x2006;" horiz-adv-x="339" />
<glyph unicode="&#x2007;" horiz-adv-x="1107" />
<glyph unicode="&#x2008;" horiz-adv-x="583" />
<glyph unicode="&#x2009;" horiz-adv-x="204" />
<glyph unicode="&#x200a;" horiz-adv-x="20" />
<glyph unicode="&#x200b;" horiz-adv-x="0" />
<glyph unicode="&#x200c;" horiz-adv-x="0" />
<glyph unicode="&#x200d;" horiz-adv-x="0" />
<glyph unicode="&#x200e;" horiz-adv-x="681" />
<glyph unicode="&#x200f;" horiz-adv-x="681" />
<glyph unicode="&#x2010;" horiz-adv-x="819" d="M205 512v205h409v-205h-409z" />
<glyph unicode="&#x2011;" horiz-adv-x="819" d="M205 512v205h409v-205h-409z" />
<glyph unicode="&#x2012;" horiz-adv-x="1107" d="M205 512v205h698v-205h-698z" />
<glyph unicode="&#x2013;" horiz-adv-x="1024" d="M76 590v174h872v-174h-872z" />
<glyph unicode="&#x2014;" horiz-adv-x="1705" d="M104 590v174h1500v-174h-1500z" />
<glyph unicode="&#x2015;" horiz-adv-x="4096" d="M205 512v205h3686v-205h-3686z" />
<glyph unicode="&#x2016;" horiz-adv-x="1703" d="M1190 -410v1921h176v-1921h-176zM338 -410v1921h176v-1921h-176z" />
<glyph unicode="&#x2018;" horiz-adv-x="548" d="M156 950v299q0 145 70.5 213t185.5 68v-113q-76 0 -108 -37t-32 -139h129v-291h-245z" />
<glyph unicode="&#x2019;" horiz-adv-x="548" d="M145 930v112q76 0 108 37t32 140h-129v290h245v-299q0 -141 -71.5 -210.5t-184.5 -69.5z" />
<glyph unicode="&#x201a;" horiz-adv-x="548" d="M145 -176q76 0 108 37t32 139h-129v291h245v-299q0 -141 -71.5 -211t-184.5 -70v113z" />
<glyph unicode="&#x201c;" horiz-adv-x="925" d="M131 950v299q0 145 70.5 213t185.5 68v-113q-76 0 -107.5 -37t-31.5 -139h129v-291h-246zM563 950v299q0 141 72 211t184 70v-113q-76 0 -107.5 -37t-31.5 -139h129v-291h-246z" />
</font>
</defs>
</svg>
